<?xml version="1.0" encoding="UTF-8" standalone="no"?>
<svg
   xmlns:dc="http://purl.org/dc/elements/1.1/"
   xmlns:cc="http://creativecommons.org/ns#"
   xmlns:rdf="http://www.w3.org/1999/02/22-rdf-syntax-ns#"
   xmlns:svg="http://www.w3.org/2000/svg"
   xmlns="http://www.w3.org/2000/svg"
   xmlns:sodipodi="http://sodipodi.sourceforge.net/DTD/sodipodi-0.dtd"
   xmlns:inkscape="http://www.inkscape.org/namespaces/inkscape"
   height="104.55772"
   viewBox="0 0 87.742544 27.664232"
   width="331.62537"
   version="1.1"
   id="svg118"
   sodipodi:docname="elimu_nasi_logo.svg"
   inkscape:version="0.92.4 (5da689c313, 2019-01-14)">
  <metadata
     id="metadata124">
    <rdf:RDF>
      <cc:Work
         rdf:about="">
        <dc:format>image/svg+xml</dc:format>
        <dc:type
           rdf:resource="http://purl.org/dc/dcmitype/StillImage" />
        <dc:title></dc:title>
      </cc:Work>
    </rdf:RDF>
  </metadata>
  <defs
     id="defs122" />
  <sodipodi:namedview
     pagecolor="#ffffff"
     bordercolor="#666666"
     borderopacity="1"
     objecttolerance="10"
     gridtolerance="10"
     guidetolerance="10"
     inkscape:pageopacity="0"
     inkscape:pageshadow="2"
     inkscape:window-width="1366"
     inkscape:window-height="706"
     id="namedview120"
     showgrid="false"
     showguides="false"
     inkscape:snap-bbox="true"
     inkscape:snap-page="true"
     fit-margin-top="0"
     fit-margin-left="0"
     fit-margin-right="0"
     fit-margin-bottom="0"
     inkscape:snap-global="false"
     inkscape:zoom="1.8032396"
     inkscape:cx="134.40948"
     inkscape:cy="57.0855"
     inkscape:window-x="0"
     inkscape:window-y="344"
     inkscape:window-maximized="1"
     inkscape:current-layer="svg118" />
  <g
     id="g1238"
     transform="translate(-3.9616199,-2.0541732)">
    <rect
       y="2.0541732"
       x="3.9616199"
       height="27.66423"
       width="87.742546"
       id="rect1018"
       style="opacity:1;fill:none;fill-opacity:1;stroke:none;stroke-width:0.23644078;stroke-linecap:round;stroke-linejoin:miter;stroke-miterlimit:4;stroke-dasharray:none;stroke-dashoffset:0;stroke-opacity:1;paint-order:stroke fill markers" />
    <g
       id="g1195">
      <g
         id="g1154">
        <g
           id="g96"
           transform="translate(-85.842731,-163.1847)"
           style="fill:#ffb380;stroke-width:0.30723199">
          <path
             id="path58"
             d="m 137.5154,187.83253 c 0.0516,-0.0516 0.0615,-0.22366 0.0295,-0.26544 h -0.0467 c -0.0147,0.0737 -0.11306,0.13026 -0.25807,0.13026 h -0.28265 c -0.007,-0.13518 -0.007,-0.34164 -0.007,-0.51369 0,-0.33673 0.0123,-0.69803 0.0246,-0.97331 -0.0467,-0.0221 -0.0959,-0.0295 -0.1401,-0.0295 -0.0934,0 -0.16959,0.0319 -0.16959,0.0319 l -0.0172,0.0418 c 0.027,0.0418 0.0639,0.0762 0.0639,0.27037 0,1.14044 -0.002,1.22647 -0.005,1.30757 z"
             inkscape:connector-curvature="0" />
          <path
             id="path60"
             d="m 138.67232,187.14188 c 0,0 0,-0.0295 0,-0.0565 0,-0.12044 -0.0197,-0.49895 -0.44487,-0.49895 -0.31215,0 -0.51615,0.2974 -0.51615,0.69312 0.007,0.41292 0.24333,0.58497 0.50386,0.58497 0.23349,0 0.47928,-0.15485 0.47928,-0.3441 0,-0.0295 -0.01,-0.059 -0.01,-0.059 -0.0885,0.13518 -0.24333,0.21629 -0.38343,0.21629 -0.20892,0 -0.3613,-0.14993 -0.3613,-0.41538 0,-0.0344 0,-0.0614 -0.002,-0.0983 l 0.59234,0.007 c 0.0516,0 0.0959,-0.002 0.14256,-0.0295 z m -0.47928,-0.41784 c 0.18188,0 0.26299,0.17451 0.26299,0.33181 l -0.52598,0.01 c 0.0442,-0.19171 0.10077,-0.34164 0.26299,-0.34164 z"
             inkscape:connector-curvature="0" />
          <path
             id="path62"
             d="m 139.5699,187.56954 c -0.0246,0.0516 -0.13764,0.11798 -0.26054,0.11798 -0.13518,0 -0.19171,-0.0983 -0.19171,-0.18188 0,-0.23841 0.45716,-0.24333 0.45962,-0.24333 0,0 -0.007,0.25562 -0.007,0.30723 z m 0.26053,0.10078 c -0.0221,-0.0467 -0.0344,-0.16714 -0.0344,-0.25562 0,-0.37359 0.005,-0.42521 0.005,-0.47682 0,-0.25071 -0.17451,-0.35148 -0.44488,-0.35148 -0.18925,0 -0.39325,0.0787 -0.39325,0.22612 0,0.0713 0.0565,0.11061 0.11797,0.11061 0.0295,0 0.059,-0.007 0.0836,-0.0246 0,-0.007 -0.002,-0.0172 -0.002,-0.0246 0,-0.0885 0.0737,-0.17451 0.18926,-0.17451 0.19908,0 0.23104,0.16222 0.23104,0.35639 0,0.0467 -0.002,0.0983 -0.005,0.14747 -0.0615,-0.0147 -0.12289,-0.0246 -0.18434,-0.0246 -0.26545,0 -0.49649,0.13026 -0.49649,0.36867 0,0.15731 0.10569,0.31707 0.33673,0.31707 0.13027,0 0.30477,-0.0909 0.35147,-0.24087 0,0.0369 0.0221,0.24087 0.1868,0.24087 0.0713,0 0.18188,-0.032 0.22858,-0.0614 v -0.0442 c -0.007,0 -0.12289,0.005 -0.16959,-0.0885 z"
             inkscape:connector-curvature="0" />
          <path
             id="path64"
             d="m 140.51383,187.83253 c -0.0246,-0.086 -0.0246,-0.43504 -0.0246,-0.52106 0,-0.16713 0.0565,-0.54073 0.2507,-0.54073 0.0369,0 0.086,0.0148 0.11306,0.0836 0.0172,0.005 0.0319,0.005 0.0467,0.005 0.0836,0 0.12535,-0.0664 0.12535,-0.12535 0,-0.0811 -0.059,-0.14747 -0.16959,-0.14747 -0.22612,0 -0.37359,0.30232 -0.38097,0.31952 l 0.0123,-0.10814 c 0.005,-0.0246 0.007,-0.0467 0.007,-0.0664 0,-0.0811 -0.0197,-0.1401 -0.11798,-0.1401 -0.10077,0 -0.17451,0.0344 -0.21875,0.0614 v 0.0443 c 0.0147,0 0.12043,0.01 0.12043,0.2974 0,0.34164 -0.01,0.69065 -0.01,0.83812 z"
             inkscape:connector-curvature="0" />
          <path
             id="path66"
             d="m 142.26947,187.83253 c -0.0442,-0.20891 -0.0197,-0.85041 -0.0246,-0.95364 -0.005,-0.14993 -0.12289,-0.29249 -0.29494,-0.29249 -0.24087,0 -0.39818,0.1573 -0.47191,0.2802 l 0.0123,-0.0688 c 0.007,-0.11306 -0.007,-0.20646 -0.12535,-0.20646 -0.10078,0 -0.17451,0.0344 -0.21875,0.0614 l 0.002,0.0443 c 0,0 0.12781,0.01 0.1229,0.2974 l -0.01,0.82829 v 0.01 h 0.24578 c -0.01,-0.0467 -0.0197,-0.1106 -0.0197,-0.18433 -0.005,-0.26054 -0.005,-0.59972 -0.005,-0.70049 0.0541,-0.0639 0.16714,-0.16714 0.34656,-0.16714 0.1573,0.002 0.20154,0.10815 0.19909,0.3441 l -0.005,0.58989 c -0.002,0.0442 0,0.0836 0.005,0.11797 z"
             inkscape:connector-curvature="0" />
          <path
             id="path68"
             d="m 142.94265,187.83253 c -0.01,-0.0467 -0.0147,-0.11306 -0.0147,-0.18433 0,-0.55794 0.0147,-0.85042 0.0147,-0.85042 0.007,-0.11306 -0.005,-0.20646 -0.12289,-0.20646 -0.10077,0 -0.17451,0.0344 -0.21875,0.0614 v 0.0443 c 0,0 0.12781,0.01 0.11798,0.2974 l -0.0197,0.82829 v 0.01 z m -0.26791,-1.57548 c 0,0.0688 0.059,0.13272 0.13273,0.13272 0.0688,0 0.13026,-0.0639 0.13026,-0.13272 0,-0.0688 -0.0614,-0.12781 -0.13026,-0.12781 -0.0737,0 -0.13273,0.059 -0.13273,0.12781 z"
             inkscape:connector-curvature="0" />
          <path
             id="path70"
             d="m 144.40089,187.83253 c -0.0442,-0.20891 -0.0197,-0.85041 -0.0246,-0.95364 -0.005,-0.14993 -0.12289,-0.29249 -0.29494,-0.29249 -0.24087,0 -0.39818,0.1573 -0.47191,0.2802 l 0.0123,-0.0688 c 0.007,-0.11306 -0.007,-0.20646 -0.12535,-0.20646 -0.10077,0 -0.17451,0.0344 -0.21875,0.0614 l 0.002,0.0443 c 0,0 0.1278,0.01 0.12289,0.2974 l -0.01,0.82829 v 0.01 h 0.24578 c -0.01,-0.0467 -0.0197,-0.1106 -0.0197,-0.18433 -0.005,-0.26054 -0.005,-0.59972 -0.005,-0.70049 0.0541,-0.0639 0.16714,-0.16714 0.34656,-0.16714 0.1573,0.002 0.20155,0.10815 0.19909,0.3441 l -0.005,0.58989 c -0.002,0.0442 0,0.0836 0.005,0.11797 z"
             inkscape:connector-curvature="0" />
          <path
             id="path72"
             d="m 145.19205,186.68963 c 0.17451,0 0.28265,0.17697 0.28265,0.42521 0,0.20646 -0.0836,0.33181 -0.22366,0.33181 -0.17451,0 -0.26791,-0.18434 -0.26791,-0.43504 0,-0.10814 0.0246,-0.32198 0.20892,-0.32198 z m -0.23596,0.9684 c -0.005,-0.0172 -0.007,-0.027 -0.007,-0.0418 0,-0.0467 0.0246,-0.086 0.0565,-0.1106 0.0664,0.0246 0.13764,0.0369 0.20892,0.0369 0.2507,0 0.48911,-0.16222 0.48911,-0.49895 0,-0.11552 -0.0467,-0.23595 -0.12289,-0.29494 0,0 0.005,-0.002 0.01,-0.002 0.0197,0 0.0418,0.027 0.1106,0.027 0.0811,0 0.15977,-0.0319 0.15977,-0.11306 0,-0.0197 -0.005,-0.0418 -0.0147,-0.0664 0,0 -0.0123,0.0295 -0.086,0.0295 h -0.21875 l -0.0442,0.032 c -0.0467,-0.0467 -0.15976,-0.0688 -0.23349,-0.0688 -0.30478,0 -0.5137,0.20892 -0.5137,0.49157 0,0.20401 0.0959,0.33181 0.20646,0.40063 -0.0762,0.0344 -0.17205,0.10323 -0.17205,0.21875 0,0.42767 0.80127,0.10815 0.80127,0.40555 0,0.14747 -0.17697,0.24578 -0.36377,0.24578 -0.1573,0 -0.30231,-0.0516 -0.30231,-0.17696 0,-0.0221 0.005,-0.0442 0.0123,-0.0688 -0.0246,-0.0369 -0.0664,-0.059 -0.10078,-0.059 -0.0958,0 -0.13272,0.0811 -0.13272,0.13272 0,0.17943 0.24824,0.27774 0.51123,0.27774 0.28511,0 0.58743,-0.14501 0.58743,-0.408 0,-0.46208 -0.78405,-0.19909 -0.84059,-0.38834 z"
             inkscape:connector-curvature="0" />
          <path
             id="path74"
             d="m 148.64038,187.83253 c -0.0442,-0.20891 -0.0197,-0.85041 -0.0246,-0.95364 -0.005,-0.14993 -0.12289,-0.29249 -0.29494,-0.29249 -0.23104,0 -0.37605,0.14256 -0.45225,0.25808 -0.0221,-0.13764 -0.13518,-0.25808 -0.29248,-0.25808 -0.24087,0 -0.39817,0.1573 -0.47191,0.2802 0.007,-0.0467 0.0123,-0.0688 0.0123,-0.0688 0.007,-0.11306 -0.007,-0.20646 -0.12535,-0.20646 -0.10077,0 -0.17451,0.0344 -0.21875,0.0614 v 0.0443 c 0,0 0.13027,0.01 0.12535,0.2974 l -0.01,0.82829 v 0.01 h 0.24579 c -0.01,-0.0467 -0.0197,-0.1106 -0.0197,-0.18433 -0.005,-0.26054 -0.005,-0.59972 -0.005,-0.70049 0.0541,-0.0639 0.16713,-0.16714 0.34655,-0.16714 0.15731,0.002 0.20155,0.10815 0.19909,0.3441 l -0.005,0.58989 c -0.002,0.0442 0,0.0836 0.005,0.11797 h 0.24087 c -0.0418,-0.18679 -0.027,-0.76193 -0.0246,-0.91186 0.0565,-0.059 0.16468,-0.1401 0.32935,-0.1401 0.15731,0.002 0.20155,0.10815 0.19909,0.3441 l -0.005,0.58989 c -0.002,0.0442 0,0.0836 0.005,0.11797 z"
             inkscape:connector-curvature="0" />
          <path
             id="path76"
             d="m 149.60294,187.56954 c -0.0246,0.0516 -0.13764,0.11798 -0.26053,0.11798 -0.13519,0 -0.19172,-0.0983 -0.19172,-0.18188 0,-0.23841 0.45716,-0.24333 0.45962,-0.24333 0,0 -0.007,0.25562 -0.007,0.30723 z m 0.26053,0.10078 c -0.0221,-0.0467 -0.0344,-0.16714 -0.0344,-0.25562 0,-0.37359 0.005,-0.42521 0.005,-0.47682 0,-0.25071 -0.17451,-0.35148 -0.44487,-0.35148 -0.18926,0 -0.39326,0.0787 -0.39326,0.22612 0,0.0713 0.0565,0.11061 0.11798,0.11061 0.0295,0 0.059,-0.007 0.0836,-0.0246 0,-0.007 -0.002,-0.0172 -0.002,-0.0246 0,-0.0885 0.0737,-0.17451 0.18926,-0.17451 0.19909,0 0.23104,0.16222 0.23104,0.35639 0,0.0467 -0.002,0.0983 -0.005,0.14747 -0.0614,-0.0147 -0.12289,-0.0246 -0.18434,-0.0246 -0.26545,0 -0.49648,0.13026 -0.49648,0.36867 0,0.15731 0.10568,0.31707 0.33672,0.31707 0.13027,0 0.30478,-0.0909 0.35148,-0.24087 0,0.0369 0.0221,0.24087 0.18679,0.24087 0.0713,0 0.18188,-0.032 0.22858,-0.0614 v -0.0442 c -0.007,0 -0.12289,0.005 -0.16959,-0.0885 z"
             inkscape:connector-curvature="0" />
          <path
             id="path78"
             d="m 151.40712,187.7588 c -0.10815,-0.002 -0.18926,-0.0319 -0.19909,-0.23841 -0.007,-0.15485 -0.0123,-0.4203 -0.0123,-0.70541 0,-0.31706 0.0197,-0.46207 0.0197,-0.61446 0,-0.14993 -0.0295,-0.22367 -0.15485,-0.22367 -0.11798,0 -0.20154,0.0614 -0.20154,0.0614 v 0.0442 c 0.0713,0.01 0.11552,0.0836 0.11552,0.22121 0,0 0.002,0.0492 0.002,0.31706 -0.0639,-0.0197 -0.13764,-0.0344 -0.21629,-0.0344 -0.38588,0 -0.58251,0.36131 -0.58251,0.69312 0,0.42029 0.22858,0.58497 0.45962,0.58497 0.13272,0 0.25808,-0.0713 0.36376,-0.1696 0.0197,0.13764 0.12044,0.1696 0.1868,0.1696 0.0909,0 0.16468,-0.0369 0.21875,-0.0614 z m -0.63904,-0.0565 c -0.20892,0 -0.36131,-0.16222 -0.36131,-0.46454 0,-0.18925 0.0516,-0.51615 0.3269,-0.51615 0.0909,0 0.17942,0.0148 0.24578,0.0344 v 0.37114 c 0,0.0664 -0.002,0.39817 -0.002,0.45962 v 0.0369 c -0.0565,0.0418 -0.11797,0.0787 -0.20891,0.0787 z"
             inkscape:connector-curvature="0" />
          <path
             id="path80"
             d="m 152.50736,187.14188 c 0,0 0,-0.0295 0,-0.0565 0,-0.12044 -0.0197,-0.49895 -0.44488,-0.49895 -0.31214,0 -0.51615,0.2974 -0.51615,0.69312 0.007,0.41292 0.24333,0.58497 0.50386,0.58497 0.2335,0 0.47929,-0.15485 0.47929,-0.3441 0,-0.0295 -0.01,-0.059 -0.01,-0.059 -0.0885,0.13518 -0.24332,0.21629 -0.38342,0.21629 -0.20892,0 -0.36131,-0.14993 -0.36131,-0.41538 0,-0.0344 0,-0.0614 -0.002,-0.0983 l 0.59234,0.007 c 0.0516,0 0.0959,-0.002 0.14256,-0.0295 z m -0.47929,-0.41784 c 0.18188,0 0.26299,0.17451 0.26299,0.33181 l -0.52598,0.01 c 0.0442,-0.19171 0.10078,-0.34164 0.26299,-0.34164 z"
             inkscape:connector-curvature="0" />
          <path
             id="path82"
             d="m 154.48036,187.14188 c 0,0 0,-0.0295 0,-0.0565 0,-0.12044 -0.0197,-0.49895 -0.44487,-0.49895 -0.31215,0 -0.51615,0.2974 -0.51615,0.69312 0.007,0.41292 0.24333,0.58497 0.50386,0.58497 0.2335,0 0.47928,-0.15485 0.47928,-0.3441 0,-0.0295 -0.01,-0.059 -0.01,-0.059 -0.0885,0.13518 -0.24333,0.21629 -0.38343,0.21629 -0.20891,0 -0.3613,-0.14993 -0.3613,-0.41538 0,-0.0344 0,-0.0614 -0.002,-0.0983 l 0.59235,0.007 c 0.0516,0 0.0959,-0.002 0.14255,-0.0295 z m -0.47928,-0.41784 c 0.18188,0 0.26299,0.17451 0.26299,0.33181 l -0.52598,0.01 c 0.0442,-0.19171 0.10077,-0.34164 0.26299,-0.34164 z"
             inkscape:connector-curvature="0" />
          <path
             id="path84"
             d="m 155.37794,187.56954 c -0.0246,0.0516 -0.13764,0.11798 -0.26054,0.11798 -0.13518,0 -0.19171,-0.0983 -0.19171,-0.18188 0,-0.23841 0.45716,-0.24333 0.45962,-0.24333 0,0 -0.007,0.25562 -0.007,0.30723 z m 0.26053,0.10078 c -0.0221,-0.0467 -0.0344,-0.16714 -0.0344,-0.25562 0,-0.37359 0.005,-0.42521 0.005,-0.47682 0,-0.25071 -0.17451,-0.35148 -0.44488,-0.35148 -0.18925,0 -0.39325,0.0787 -0.39325,0.22612 0,0.0713 0.0565,0.11061 0.11797,0.11061 0.0295,0 0.059,-0.007 0.0836,-0.0246 0,-0.007 -0.002,-0.0172 -0.002,-0.0246 0,-0.0885 0.0737,-0.17451 0.18926,-0.17451 0.19908,0 0.23104,0.16222 0.23104,0.35639 0,0.0467 -0.002,0.0983 -0.005,0.14747 -0.0615,-0.0147 -0.12289,-0.0246 -0.18434,-0.0246 -0.26545,0 -0.49648,0.13026 -0.49648,0.36867 0,0.15731 0.10568,0.31707 0.33672,0.31707 0.13027,0 0.30478,-0.0909 0.35147,-0.24087 0,0.0369 0.0221,0.24087 0.1868,0.24087 0.0713,0 0.18188,-0.032 0.22858,-0.0614 v -0.0442 c -0.007,0 -0.12289,0.005 -0.16959,-0.0885 z"
             inkscape:connector-curvature="0" />
          <path
             id="path86"
             d="m 156.33908,186.70438 c 0.0909,0 0.21874,0.0393 0.27282,0.20646 l 0.0442,0.01 c 0.059,-0.059 0.0565,-0.19171 0.0393,-0.24824 -0.0614,-0.0369 -0.14501,-0.086 -0.33672,-0.086 -0.2335,0 -0.41046,0.16468 -0.41046,0.36131 0,0.37359 0.61938,0.38588 0.61938,0.59971 0,0.13027 -0.12044,0.17451 -0.23596,0.17451 -0.1401,0 -0.33181,-0.10323 -0.35147,-0.19663 -0.0172,0.0295 -0.0246,0.059 -0.0246,0.086 0,0.13764 0.1868,0.25316 0.37359,0.25316 0.26299,0 0.43996,-0.15485 0.43996,-0.3736 0,-0.40554 -0.63658,-0.36868 -0.63658,-0.63167 0,-0.0811 0.0762,-0.15484 0.20646,-0.15484 z"
             inkscape:connector-curvature="0" />
          <path
             id="path88"
             d="m 157.33454,187.83253 c -0.01,-0.0467 -0.0147,-0.11306 -0.0147,-0.18433 0,-0.55794 0.0147,-0.85042 0.0147,-0.85042 0.007,-0.11306 -0.005,-0.20646 -0.12289,-0.20646 -0.10077,0 -0.17451,0.0344 -0.21875,0.0614 v 0.0443 c 0,0 0.12781,0.01 0.11798,0.2974 l -0.0197,0.82829 v 0.01 z m -0.2679,-1.57548 c 0,0.0688 0.059,0.13272 0.13272,0.13272 0.0688,0 0.13027,-0.0639 0.13027,-0.13272 0,-0.0688 -0.0615,-0.12781 -0.13027,-0.12781 -0.0737,0 -0.13272,0.059 -0.13272,0.12781 z"
             inkscape:connector-curvature="0" />
          <path
             id="path90"
             d="m 158.62319,187.14188 c 0,0 0,-0.0295 0,-0.0565 0,-0.12044 -0.0197,-0.49895 -0.44487,-0.49895 -0.31215,0 -0.51615,0.2974 -0.51615,0.69312 0.007,0.41292 0.24333,0.58497 0.50386,0.58497 0.2335,0 0.47928,-0.15485 0.47928,-0.3441 0,-0.0295 -0.01,-0.059 -0.01,-0.059 -0.0885,0.13518 -0.24333,0.21629 -0.38343,0.21629 -0.20891,0 -0.3613,-0.14993 -0.3613,-0.41538 0,-0.0344 0,-0.0614 -0.002,-0.0983 l 0.59234,0.007 c 0.0516,0 0.0959,-0.002 0.14256,-0.0295 z m -0.47928,-0.41784 c 0.18188,0 0.26299,0.17451 0.26299,0.33181 l -0.52598,0.01 c 0.0442,-0.19171 0.10077,-0.34164 0.26299,-0.34164 z"
             inkscape:connector-curvature="0" />
          <path
             id="path92"
             d="m 159.24057,187.83253 c -0.0246,-0.086 -0.0246,-0.43504 -0.0246,-0.52106 0,-0.16713 0.0565,-0.54073 0.2507,-0.54073 0.0369,0 0.086,0.0148 0.11306,0.0836 0.0172,0.005 0.0319,0.005 0.0467,0.005 0.0836,0 0.12535,-0.0664 0.12535,-0.12535 0,-0.0811 -0.059,-0.14747 -0.16959,-0.14747 -0.22613,0 -0.3736,0.30232 -0.38097,0.31952 l 0.0123,-0.10814 c 0.005,-0.0246 0.007,-0.0467 0.007,-0.0664 0,-0.0811 -0.0197,-0.1401 -0.11798,-0.1401 -0.10077,0 -0.1745,0.0344 -0.21875,0.0614 v 0.0443 c 0.0148,0 0.12044,0.01 0.12044,0.2974 0,0.34164 -0.01,0.69065 -0.01,0.83812 z"
             inkscape:connector-curvature="0" />
          <path
             id="path94"
             d="m 159.91034,187.73176 c 0,-0.0713 -0.059,-0.13026 -0.13027,-0.13026 -0.0737,0 -0.13272,0.059 -0.13272,0.13026 0,0.0737 0.059,0.13273 0.13272,0.13273 0.0713,0 0.13027,-0.059 0.13027,-0.13273 z"
             inkscape:connector-curvature="0" />
        </g>
        <g
           transform="translate(2.4880367,2.2878699)"
           id="g1120">
          <g
             id="g1107">
            <path
               inkscape:connector-curvature="0"
               d="m 40.862469,11.910786 q 0.273474,-0.223092 0.532553,-0.554145 0.259067,-0.33104 0.46058,-0.698067 0.201501,-0.367027 0.323843,-0.7484487 0.122279,-0.3814217 0.122279,-0.7124619 0,-0.2662767 -0.12954,-0.4461851 -0.122405,-0.1871185 -0.453382,-0.1871185 -0.280672,0 -0.618909,0.1295396 -0.338238,0.1295397 -0.683685,0.3598297 -0.345435,0.2230925 -0.676475,0.5397507 -0.323843,0.3094481 -0.575725,0.6764752 -0.251882,0.367027 -0.410211,0.770041 -0.151132,0.403013 -0.151132,0.813212 0,0.352645 0.08642,0.611711 0.08642,0.251882 0.251882,0.453395 0.165514,0.194304 0.395804,0.35983 0.237487,0.165514 0.53975,0.345435 -0.906777,0.381422 -1.669608,0.942752 -0.755646,0.554145 -1.302594,1.201831 -0.546935,0.647698 -0.856396,1.338581 -0.302251,0.683672 -0.302251,1.316976 0,0.223092 0.10796,0.395816 0.10796,0.165514 0.338238,0.165514 0.302251,0 0.676475,-0.165514 0.374224,-0.165526 0.777238,-0.431803 0.403014,-0.266277 0.806027,-0.597317 0.410199,-0.33104 0.762831,-0.662093 0.35983,-0.338237 0.640501,-0.640488 0.280671,-0.302264 0.446185,-0.510962 0.431803,0.345435 0.748449,0.618909 0.316658,0.266277 0.590132,0.48937 -0.122406,0.165513 -0.410211,0.46058 -0.280672,0.295066 -0.676488,0.633303 -0.388606,0.338238 -0.856396,0.69087 -0.46058,0.345435 -0.942752,0.626106 -0.474974,0.280672 -0.942752,0.46058 -0.467777,0.179921 -0.856396,0.179921 -0.33825,0 -0.676488,-0.115183 -0.33104,-0.115183 -0.633303,-0.309461 -0.302251,-0.187105 -0.56133,-0.438987 -0.251882,-0.244685 -0.438988,-0.510962 -0.194316,-0.266276 -0.309461,-0.532553 -0.115183,-0.266264 -0.122279,-0.496567 v -0.172711 q 0,-0.755646 0.266277,-1.424936 0.266276,-0.669278 0.726856,-1.230621 0.467777,-0.568527 1.086686,-1.02191 0.626107,-0.46058 1.338569,-0.79883 -0.12954,-0.129539 -0.25908,-0.280659 -0.122279,-0.151131 -0.223092,-0.33825 -0.09352,-0.194303 -0.151132,-0.43179 -0.05753,-0.237487 -0.05753,-0.532554 0,-0.503764 0.179908,-0.985935 0.179921,-0.482172 0.482172,-0.9067655 0.302264,-0.4246058 0.705277,-0.777238 0.410199,-0.3526323 0.863594,-0.6045143 0.453382,-0.2590793 0.928357,-0.4030137 0.474975,-0.1439344 0.921172,-0.1439344 0.741252,0 1.036305,0.1511317 0.244685,0.1295397 0.525356,0.3742244 0.287856,0.2446846 0.532541,0.5397507 0.244684,0.2878561 0.410211,0.5901195 0.165526,0.2950661 0.165526,0.5325534 0,0.4101982 -0.136737,0.8563962 -0.136737,0.446185 -0.359829,0.870778 -0.223093,0.417409 -0.510962,0.791633 -0.287868,0.367027 -0.582922,0.618909 z"
               id="path98"
               style="fill:#fcd198;stroke-width:1.26713955" />
            <path
               inkscape:connector-curvature="0"
               d="m 43.641623,18.409324 c 0.07679,0 0.179946,-0.03358 0.30946,-0.100737 0.13433,-0.06716 0.438988,-0.251882 0.438988,-0.251882 l 0.48937,0.410198 c 0,0 -0.391014,0.299856 -0.582923,0.424606 -0.187118,0.124686 -0.362237,0.225487 -0.525356,0.30225 -0.163119,0.07679 -0.299856,0.115183 -0.410198,0.115183 -0.148724,0 -0.344738,0.0076 -0.5064,-0.04308 -0.180592,-0.05652 -0.3466,-0.162131 -0.49203,-0.283206 -0.145176,-0.120885 -0.283877,-0.262184 -0.367027,-0.431803 -0.07844,-0.159926 -0.09542,-0.45095 -0.109861,-0.522911 -0.01014,-0.02876 -0.01445,-0.06234 -0.01445,-0.100737 v -0.136737 c 0,-0.239882 0.03117,-0.542146 0.09352,-0.906778 0.490129,-2.56834 4.218408,-8.0205367 5.275114,-8.4200151 0.09744,-0.036874 0.250298,0.049672 0.273474,0.1511317 0.19405,0.8495663 -3.384073,4.7918024 -3.92945,8.4992244 -0.04587,0.312008 -0.0792,0.717277 -0.0792,0.942764 0,0.148724 0.0114,0.244685 0.03599,0.287856 0.02395,0.04321 0.05753,0.06475 0.100738,0.06475 z"
               id="path100"
               style="fill:#fcd198;stroke-width:1.26713955" />
            <path
               inkscape:connector-curvature="0"
               d="m 46.128701,19.308904 c -0.07197,0 -0.163132,-0.02636 -0.273474,-0.0792 -0.110368,-0.04802 -0.215883,-0.110368 -0.316646,-0.187106 -0.100737,-0.07197 -0.187106,-0.153539 -0.259079,-0.244684 -0.07197,-0.09111 -0.10796,-0.179921 -0.10796,-0.266277 0.04802,-0.211105 0.112775,-0.453395 0.194303,-0.726856 0.0816,-0.273475 0.170367,-0.551738 0.266276,-0.834805 0.09111,-0.283066 0.189514,-0.558948 0.295066,-0.827619 0.100738,-0.273462 0.191909,-0.515751 0.273462,-0.726857 0.08642,-0.211092 0.160737,-0.381421 0.223105,-0.510961 0.06234,-0.12954 0.103145,-0.194303 0.122406,-0.194303 0.02876,0 0.100737,0.03117 0.215895,0.09352 0.115183,0.06234 0.235092,0.139106 0.35983,0.23029 0.129539,0.08642 0.244684,0.179921 0.345435,0.280671 0.100737,0.09592 0.151131,0.179921 0.151131,0.251882 0,0.01432 -0.0025,0.03358 -0.0076,0.05753 -0.0051,0.01913 -0.01267,0.04562 -0.02154,0.0792 -0.03839,0.119998 -0.0887,0.261475 -0.151132,0.424593 -0.05766,0.163119 -0.119998,0.333448 -0.187106,0.510962 -0.06716,0.172724 -0.134316,0.347842 -0.2015,0.525356 -0.06716,0.172724 -0.127132,0.335842 -0.179921,0.489369 -0.05284,0.153527 -0.09592,0.287869 -0.12954,0.403014 -0.03358,0.115183 -0.05043,0.199105 -0.05043,0.251882 0,0.02876 0.01445,0.04321 0.04321,0.04321 0.05284,0 0.13196,-0.03117 0.237488,-0.09352 0.105552,-0.06234 0.359829,-0.244684 0.359829,-0.244684 l 0.316659,0.453382 c 0,0 -0.388619,0.299856 -0.575738,0.424606 -0.187106,0.124687 -0.362212,0.225487 -0.525343,0.302251 -0.163119,0.07679 -0.302251,0.115183 -0.417409,0.115183 z m 2.84986,-6.793603 c -0.0051,0.01913 -0.0242,0.06716 -0.05753,0.143934 -0.02876,0.07197 -0.06475,0.158329 -0.107961,0.259079 -0.04321,0.09592 -0.09351,0.199106 -0.151131,0.309449 -0.05284,0.105552 -0.105553,0.203908 -0.158317,0.295066 -0.05284,0.09111 -0.103145,0.167921 -0.151132,0.23029 -0.04802,0.05765 -0.08642,0.08642 -0.115182,0.08642 -0.08642,-0.0051 -0.191909,-0.03143 -0.316659,-0.0792 -0.119998,-0.04802 -0.237474,-0.100737 -0.352632,-0.158329 -0.110368,-0.06234 -0.20629,-0.122279 -0.287856,-0.179908 -0.07679,-0.05765 -0.115183,-0.09846 -0.115183,-0.122406 0,-0.100737 0.02876,-0.23029 0.08642,-0.388619 0.05766,-0.163119 0.124813,-0.319053 0.2015,-0.467777 0.07679,-0.153539 0.153552,-0.285474 0.23029,-0.395816 0.08148,-0.110368 0.143897,-0.165527 0.187119,-0.165527 0.08642,0 0.191908,0.02876 0.316645,0.08642 0.124814,0.05284 0.244698,0.115183 0.35983,0.187118 0.119998,0.07197 0.22071,0.143935 0.302263,0.215896 0.08642,0.06716 0.12954,0.115183 0.12954,0.143934 z"
               id="path102"
               style="fill:#fcd198;stroke-width:1.26713955" />
            <path
               inkscape:connector-curvature="0"
               d="m 50.576664,15.437122 c -0.05765,0.148724 -0.115183,0.30225 -0.172723,0.46058 -0.05766,0.158329 -0.112776,0.319053 -0.165514,0.482171 0.302251,-0.359829 0.551738,-0.647685 0.748449,-0.863593 0.2015,-0.215895 0.367026,-0.383817 0.496566,-0.503751 0.13433,-0.119999 0.244685,-0.203909 0.33104,-0.251882 0.08642,-0.04803 0.165527,-0.08401 0.237488,-0.107961 0.04321,0 0.115183,0.02395 0.215895,0.07197 0.105553,0.04802 0.215895,0.10796 0.33104,0.179908 0.119998,0.06716 0.232698,0.139132 0.33825,0.215908 0.105553,0.07197 0.179909,0.131947 0.223093,0.179909 0.03839,0.03839 0.04321,0.09352 0.01444,0.165526 -0.05765,0.153527 -0.115183,0.309448 -0.172724,0.467777 -0.05284,0.153527 -0.105552,0.311856 -0.158329,0.474975 0.321461,-0.369422 0.590133,-0.664488 0.806028,-0.885186 0.215895,-0.225487 0.391014,-0.398211 0.525356,-0.518146 0.139132,-0.119998 0.247079,-0.199105 0.323843,-0.237487 0.07679,-0.03839 0.136762,-0.05753 0.179908,-0.05753 0.06234,0 0.155896,0.03117 0.280672,0.09352 0.124813,0.06234 0.249487,0.139106 0.374224,0.23029 0.12954,0.09111 0.239895,0.184711 0.33104,0.280671 0.09592,0.09592 0.143934,0.179921 0.143934,0.251882 0,0.01432 -0.0025,0.03358 -0.0076,0.05753 -0.0051,0.01913 -0.01267,0.04562 -0.02154,0.0792 -0.03839,0.119998 -0.0887,0.261475 -0.151119,0.424593 -0.05766,0.163119 -0.119998,0.333448 -0.187118,0.510962 -0.06716,0.172724 -0.13433,0.347842 -0.201501,0.525356 -0.06716,0.172724 -0.127132,0.335843 -0.179921,0.489369 -0.05284,0.153527 -0.09592,0.287869 -0.12954,0.403014 -0.03358,0.115183 -0.0503,0.199105 -0.0503,0.251882 0,0.02876 0.01444,0.04321 0.04321,0.04321 0.05284,0 0.13196,-0.03117 0.2375,-0.09352 0.105553,-0.06234 0.35983,-0.244684 0.35983,-0.244684 l -0.259079,0.877988 c 0,0 -0.362238,0.225488 -0.525356,0.302251 -0.163119,0.07679 -0.302264,0.115183 -0.417409,0.115183 -0.07197,0 -0.163131,-0.02636 -0.273461,-0.0792 -0.110368,-0.04802 -0.215908,-0.110368 -0.316658,-0.187106 -0.100738,-0.07197 -0.187119,-0.15354 -0.25908,-0.244685 -0.07197,-0.09111 -0.10796,-0.179921 -0.10796,-0.266277 0.04321,-0.19671 0.100738,-0.419803 0.172724,-0.66929 0.07197,-0.249487 0.151131,-0.503764 0.237487,-0.762831 0.08642,-0.263881 0.175119,-0.522961 0.266277,-0.777238 0.09592,-0.254277 0.187106,-0.489369 0.273461,-0.705264 -0.09592,0.115183 -0.22308,0.254277 -0.381409,0.417396 -0.158329,0.163118 -0.338237,0.379026 -0.539751,0.647698 -0.201513,0.263882 -0.417408,0.592527 -0.647698,0.985936 -0.23029,0.393409 -0.46058,0.873186 -0.69087,1.439318 -0.02876,0.09592 -0.09833,0.143935 -0.208698,0.143935 -0.05765,0 -0.129577,-0.0114 -0.215908,-0.03599 -0.0816,-0.01913 -0.170354,-0.05271 -0.266264,-0.100738 -0.09111,-0.04321 -0.187118,-0.09833 -0.287868,-0.165526 -0.09592,-0.06716 -0.187119,-0.148724 -0.273474,-0.244685 0,-0.03358 0.01685,-0.134291 0.05043,-0.302251 0.03839,-0.172723 0.09111,-0.391013 0.158316,-0.654895 0.07197,-0.263869 0.155934,-0.558923 0.251882,-0.885173 0.09592,-0.326251 0.203908,-0.662093 0.323856,-1.007528 -0.115183,0.124686 -0.25908,0.285461 -0.431803,0.482172 -0.172724,0.191908 -0.357435,0.426988 -0.554133,0.705264 -0.196711,0.273474 -0.398211,0.592527 -0.604514,0.957147 -0.206303,0.364632 -0.400619,0.777238 -0.582935,1.237818 -0.02876,0.100737 -0.09592,0.151131 -0.201501,0.151131 -0.08148,0 -0.172673,-0.02395 -0.273474,-0.07197 -0.105553,-0.04321 -0.211093,-0.103145 -0.316645,-0.179909 -0.110368,-0.07197 -0.218303,-0.153539 -0.323843,-0.244684 -0.110368,-0.09111 -0.208711,-0.182316 -0.295066,-0.273474 0,-0.02876 0.01444,-0.110368 0.04321,-0.244685 0.02395,-0.134329 0.05994,-0.302251 0.10796,-0.503764 0.04803,-0.206303 0.107961,-0.438988 0.179909,-0.698067 0.06716,-0.263882 0.146316,-0.539751 0.237487,-0.827607 0.09111,-0.287869 0.191908,-0.580527 0.302264,-0.877988 0.110367,-0.302251 0.227895,-0.592515 0.352632,-0.870791 0.201513,0.09592 0.424606,0.2135 0.66929,0.352632 0.249475,0.139132 0.47737,0.302251 0.683673,0.489369 z"
               id="path104"
               style="fill:#fcd198;stroke-width:1.26713955" />
            <path
               inkscape:connector-curvature="0"
               d="m 60.104933,18.279784 c 0,0.02876 0.01444,0.04321 0.04321,0.04321 0.05284,0 0.13196,-0.03117 0.237487,-0.09352 0.110368,-0.06234 0.374225,-0.237487 0.374225,-0.237487 l 0.316645,0.474974 c 0,0 -0.398224,0.292671 -0.590119,0.417409 -0.191921,0.119998 -0.37183,0.218302 -0.539751,0.295066 -0.167921,0.07679 -0.307053,0.115183 -0.417396,0.115183 -0.08148,0 -0.172686,-0.02636 -0.273474,-0.0792 -0.100738,-0.04802 -0.196711,-0.112776 -0.287869,-0.194304 -0.08642,-0.07679 -0.160724,-0.163144 -0.223092,-0.259079 -0.05766,-0.09592 -0.08642,-0.187118 -0.08642,-0.273474 0,-0.07679 0.02876,-0.223118 0.08642,-0.438988 0.05765,-0.215908 0.12717,-0.46779 0.208698,-0.755646 -0.215896,0.292659 -0.427001,0.551738 -0.633304,0.777238 -0.206303,0.220698 -0.395816,0.410199 -0.568528,0.568528 -0.172723,0.158329 -0.323855,0.285461 -0.453382,0.381421 -0.129552,0.100738 -0.2255,0.172724 -0.287869,0.215896 -0.03839,0.02395 -0.08388,0.0408 -0.136737,0.05043 -0.05284,0.01432 -0.100737,0.02154 -0.143934,0.02154 -0.09111,0 -0.191908,-0.02876 -0.302251,-0.08642 -0.110368,-0.05284 -0.211105,-0.119998 -0.302263,-0.2015 -0.09592,-0.0816 -0.175119,-0.172762 -0.237488,-0.273474 -0.06716,-0.100738 -0.100737,-0.196711 -0.100737,-0.287869 0,-0.105553 0.03599,-0.280659 0.10796,-0.525343 0.06716,-0.244685 0.160711,-0.537344 0.280671,-0.877989 0.115183,-0.340645 0.251882,-0.722067 0.410211,-1.144265 0.158317,-0.422198 0.328633,-0.865988 0.510949,-1.331371 0.01014,-0.02395 0.01685,-0.03358 0.02154,-0.02876 h 0.04321 c 0.09111,0.01432 0.215895,0.05271 0.374224,0.115183 0.158317,0.05766 0.311843,0.122406 0.46058,0.194316 0.153527,0.07197 0.285461,0.14154 0.395816,0.208698 0.110368,0.06234 0.165527,0.105553 0.165527,0.12954 -0.01432,0.03358 -0.05271,0.112775 -0.115183,0.237487 -0.05766,0.124813 -0.127183,0.275869 -0.208698,0.453383 -0.07679,0.172723 -0.160749,0.362237 -0.251882,0.56854 -0.08642,0.2015 -0.167921,0.395803 -0.244685,0.582922 -0.07197,0.187118 -0.131947,0.357435 -0.179908,0.510961 -0.04803,0.148724 -0.07197,0.25908 -0.07197,0.33104 0,0.01913 0.01014,0.02876 0.02876,0.02876 0.0384,0 0.122279,-0.05043 0.251882,-0.151131 0.129527,-0.105553 0.287857,-0.268672 0.474975,-0.48937 0.191908,-0.220697 0.407804,-0.503763 0.647698,-0.849198 0.239883,-0.350238 0.48937,-0.770041 0.748449,-1.25941 l 0.201501,-0.568528 c 0.01432,-0.03839 0.04549,-0.05753 0.09351,-0.05753 0.03358,0 0.105553,0.03358 0.215908,0.100738 0.115183,0.06234 0.23508,0.136711 0.35983,0.223092 0.129527,0.0816 0.244672,0.165565 0.345435,0.251882 0.100737,0.0816 0.155921,0.13917 0.165514,0.172711 0,0.01432 -0.0025,0.0408 -0.0076,0.0792 -0.0051,0.03358 -0.01267,0.06234 -0.02154,0.08642 -0.04802,0.12954 -0.103145,0.283067 -0.165526,0.46058 -0.06234,0.172724 -0.127119,0.35504 -0.194303,0.546948 -0.06234,0.187119 -0.124687,0.37662 -0.187119,0.568528 -0.06234,0.191908 -0.119871,0.371829 -0.172711,0.539751 -0.04802,0.163119 -0.0887,0.309448 -0.122279,0.438987 -0.02876,0.124687 -0.04321,0.215908 -0.04321,0.273474 z"
               id="path106"
               style="fill:#fcd198;stroke-width:1.26713955" />
          </g>
          <g
             id="g1100"
             transform="translate(-2.4943533,0.028725)">
            <path
               inkscape:connector-curvature="0"
               d="m 76.62368,10.111638 c 0,0.249488 -0.02154,0.544541 -0.06475,0.885173 -0.04321,0.335843 -0.117464,0.724462 -0.223093,1.165857 -0.100737,0.436593 -0.239894,0.925963 -0.417408,1.468108 -0.172724,0.542146 -0.388619,1.144253 -0.647698,1.806346 -0.283067,0.719659 -0.57333,1.357765 -0.870791,1.914305 -0.292659,0.551738 -0.568528,1.019515 -0.827607,1.403332 -0.254277,0.383817 -0.47737,0.681278 -0.669278,0.892383 -0.191908,0.211093 -0.32625,0.335843 -0.403014,0.374224 -0.124686,0.05766 -0.261474,0.08642 -0.410211,0.08642 -0.124686,0 -0.251882,-0.01913 -0.381421,-0.05753 -0.12954,-0.03839 -0.239882,-0.09833 -0.33104,-0.179908 -0.05766,-0.04803 -0.153565,-0.170329 -0.287857,-0.367027 -0.129539,-0.196711 -0.268684,-0.474975 -0.417408,-0.834805 -0.148724,-0.364632 -0.292658,-0.818014 -0.431803,-1.36016 -0.139132,-0.542145 -0.242277,-1.187436 -0.309448,-1.935885 -0.206303,0.268672 -0.431803,0.556528 -0.676488,0.863594 -0.244685,0.307053 -0.494159,0.614106 -0.748436,0.92116 -0.254277,0.30225 -0.508566,0.599711 -0.762843,0.892383 -0.249487,0.287856 -0.484567,0.551737 -0.705265,0.79162 -0.220697,0.239882 -0.417408,0.446185 -0.590132,0.618909 -0.172724,0.177513 -0.307053,0.304658 -0.403001,0.381421 -0.05284,-0.04802 -0.112775,-0.105553 -0.179921,-0.172711 -0.07197,-0.06716 -0.143935,-0.139132 -0.215895,-0.215908 -0.07679,-0.07197 -0.14875,-0.146342 -0.215896,-0.223092 -0.07197,-0.07679 -0.134342,-0.14875 -0.187118,-0.215896 0.700475,-0.614119 1.410542,-1.480107 2.130201,-2.597978 0.719659,-1.11787 2.058227,-4.044494 2.058227,-4.044494 l 0.503739,-1.388949 c 0,0 0.05994,-0.9835286 0.09351,-1.3817398 0.03358,-0.4030137 0.06475,-0.7484486 0.09352,-1.0363174 0.03358,-0.2878561 0.06475,-0.5325407 0.09351,-0.7340539 0.02876,-0.2015005 0.05284,-0.3646194 0.07197,-0.4893693 0.02395,-0.1295396 0.04321,-0.2326848 0.05753,-0.3094481 0.04802,0.043209 0.119998,0.1127754 0.215895,0.2086979 0.09592,0.091107 0.203908,0.1943031 0.323843,0.3094481 0.119998,0.115183 0.244685,0.2375 0.374225,0.3670396 0.134329,0.1246866 0.259079,0.2446847 0.374224,0.3598296 0.119998,0.115183 0.223105,0.2182902 0.309461,0.3094482 0.09111,0.091107 0.153514,0.1583291 0.187105,0.2015005 -0.06234,0.2398822 -0.134304,0.5205536 -0.215895,0.8420142 -0.07679,0.3166455 -0.151157,0.6908694 -0.223092,1.1226604 -0.06716,0.427001 -0.124687,0.91637 -0.172724,1.468108 -0.04802,0.55175 -0.07197,1.180251 -0.07197,1.885516 0.0051,0.657291 0.02902,1.292989 0.07197,1.907096 0.01913,0.263881 0.0408,0.537355 0.06475,0.820422 0.02876,0.278264 0.06234,0.554132 0.100737,0.827607 0.04321,0.268671 0.09351,0.52775 0.151119,0.777238 0.05765,0.249487 0.122406,0.472579 0.194316,0.669277 0.599712,-0.988331 1.077081,-1.945477 1.432121,-2.871439 0.35983,-0.925962 0.635699,-1.83274 0.827607,-2.720321 0.191908,-0.88758 0.316658,-1.760766 0.374224,-2.61957 0.05765,-0.863593 0.08642,-1.7247794 0.08642,-2.5835832 V 7.8160252 c 0.249487,0.1919083 0.486975,0.4054086 0.712462,0.640501 0.225488,0.2350924 0.424593,0.458185 0.597317,0.6692904 0.201501,0.2446847 0.388606,0.4917642 0.56133,0.7412513 z"
               id="path108"
               style="fill:#fcd198;stroke-width:1.26713955" />
            <path
               inkscape:connector-curvature="0"
               d="m 79.577255,18.279784 c 0,0.02876 0.01445,0.04321 0.04321,0.04321 0.04321,0 0.115183,-0.03117 0.215908,-0.09352 0.100737,-0.06234 0.345435,-0.237487 0.345435,-0.237487 l 0.280658,0.496566 c 0,0 -0.388606,0.299856 -0.575724,0.424606 -0.187119,0.124687 -0.364633,0.225488 -0.532554,0.302251 -0.167909,0.08148 -0.314238,0.122279 -0.438988,0.122279 -0.08642,0 -0.182316,-0.01673 -0.287868,-0.05031 -0.100738,-0.03358 -0.194304,-0.0816 -0.280659,-0.143934 -0.08642,-0.05765 -0.158329,-0.127183 -0.215908,-0.208698 -0.05765,-0.08148 -0.08642,-0.172673 -0.08642,-0.273474 0,-0.03839 -0.0025,-0.08388 -0.0076,-0.136737 0,-0.05766 0.0051,-0.129578 0.01445,-0.215895 0.01014,-0.09111 0.02876,-0.199106 0.05753,-0.323856 0.02876,-0.129539 0.07197,-0.287856 0.129539,-0.474974 -0.158329,0.167921 -0.345435,0.34304 -0.561342,0.525356 -0.211093,0.182316 -0.434186,0.35504 -0.669278,0.518158 -0.235093,0.163119 -0.47258,0.309449 -0.712475,0.438988 -0.235092,0.13433 -0.453382,0.235093 -0.654883,0.302264 -0.02395,0.01014 -0.04321,0.01445 -0.05753,0.01445 h -0.04321 c -0.04802,0 -0.110368,-0.02395 -0.187119,-0.07197 -0.0816,-0.04803 -0.160762,-0.112776 -0.237487,-0.194304 -0.07679,-0.07679 -0.141552,-0.165551 -0.194303,-0.266276 -0.05765,-0.100738 -0.08642,-0.201513 -0.08642,-0.302264 0,-0.02876 0.01444,-0.124813 0.04321,-0.287856 0.02876,-0.163119 0.09833,-0.369422 0.208698,-0.618909 0.105553,-0.254277 0.263882,-0.537343 0.474975,-0.849199 0.211105,-0.316645 0.498974,-0.640501 0.863593,-0.971541 0.187119,-0.167921 0.388619,-0.32625 0.604515,-0.474987 0.182316,-0.124687 0.391013,-0.251869 0.626106,-0.381409 0.235092,-0.12954 0.471528,-0.309575 0.741251,-0.309461 0.269723,1.14e-4 0.573621,0.270281 0.705227,0.359792 0.131605,0.08946 0.122405,0.10796 0.122405,0.10796 l -0.552815,0.435085 c 0,0 -0.435579,0.260587 -0.584303,0.385337 -0.172724,0.148724 -0.333448,0.295054 -0.482172,0.438988 -0.350237,0.345435 -0.592527,0.645303 -0.726857,0.89958 -0.134342,0.249487 -0.201513,0.429396 -0.201513,0.539738 0,0.0816 0.03358,0.122406 0.100738,0.122406 0.06716,0 0.151119,-0.02636 0.251869,-0.0792 0.105553,-0.05765 0.223105,-0.131973 0.352645,-0.223093 0.12954,-0.09592 0.271067,-0.206303 0.424593,-0.331053 0.158329,-0.129539 0.321448,-0.263869 0.489369,-0.403001 0.148725,-0.119998 0.292659,-0.249487 0.431804,-0.388619 0.119998,-0.115183 -0.05842,-0.964305 -0.05842,-0.964305 l 0.557402,-0.433337 c 0,0 0.205011,0.111762 0.746346,1.325618 0.04321,0.09592 0.06475,0.170329 0.06475,0.223105 -0.110367,0.225488 -0.19671,0.431791 -0.259079,0.618909 -0.05765,0.182304 -0.103145,0.343028 -0.136737,0.482172 -0.02876,0.139132 -0.04802,0.25908 -0.05753,0.35983 -0.0051,0.09592 -0.0076,0.170316 -0.0076,0.223092 z"
               id="path110"
               style="fill:#fcd198;stroke-width:1.26713955" />
            <path
               inkscape:connector-curvature="0"
               d="m 82.181138,15.026911 c 0.05753,-0.840532 2.404816,-1.17009 2.404816,-1.17009 l 0.206391,0.28811 c 0,0 -0.430498,0.241073 -0.6266,0.389468 -0.157366,0.119111 -0.344966,0.224588 -0.437404,0.398933 -0.09427,0.177742 -0.08021,0.396235 -0.08642,0.597317 -0.0051,0.175626 0.01951,0.352632 0.04321,0.525356 0.02876,0.172724 0.05765,0.357435 0.08642,0.554146 0.03358,0.191908 0.05043,0.415001 0.05043,0.669277 0,0.153527 -0.02636,0.331041 -0.0792,0.532554 -0.04802,0.196698 -0.105679,0.535442 -0.236853,0.76961 -0.145506,0.259687 -0.296334,0.468233 -0.590753,0.669708 -0.147153,0.100738 -0.362238,0.100738 -0.525356,0.100738 -0.139132,0 -0.292659,-0.03358 -0.46058,-0.100738 -0.167922,-0.06716 -0.326251,-0.148724 -0.474975,-0.244684 -0.148724,-0.09592 -0.278264,-0.196711 -0.388619,-0.302264 -0.110368,-0.105553 -0.175119,-0.194303 -0.194303,-0.266264 0,-0.01014 0.01014,-0.02876 0.02876,-0.05753 0.01913,-0.03358 0.04321,-0.06716 0.07197,-0.100738 0.02395,-0.03358 0.05043,-0.06247 0.0792,-0.08642 0.02395,-0.02876 0.04321,-0.04321 0.05753,-0.04321 0.02876,0 0.08642,0.02154 0.172711,0.06475 0.08642,0.04321 0.23029,0.06475 0.431803,0.06475 0.110368,0 0.203896,-0.02876 0.280671,-0.08642 0.08148,-0.05765 0.148687,-0.13438 0.201501,-0.23029 0.05284,-0.09592 0.09123,-0.206303 0.115183,-0.331053 0.02395,-0.124687 0.03599,-0.256672 0.03599,-0.395816 0,-0.201501 -0.01014,-0.395804 -0.02876,-0.582923 -0.01913,-0.191908 -0.06475,-0.554132 -0.06475,-0.554132 0,0 -0.127905,-0.71838 -0.07197,-1.07219 z"
               id="path112"
               style="fill:#fcd198;stroke-width:1.26713955" />
            <path
               inkscape:connector-curvature="0"
               d="m 85.328624,19.308904 c -0.07197,0 -0.163131,-0.02636 -0.273474,-0.0792 -0.110368,-0.04802 -0.215908,-0.110368 -0.316658,-0.187106 -0.100738,-0.07197 -0.187106,-0.153539 -0.259079,-0.244684 -0.07197,-0.09111 -0.107961,-0.179921 -0.107961,-0.266277 0.04802,-0.211105 0.112776,-0.453395 0.194316,-0.726856 0.0816,-0.273475 0.170354,-0.551738 0.266277,-0.834805 0.09111,-0.283066 0.189501,-0.558948 0.295053,-0.827619 0.100738,-0.273462 0.191909,-0.515751 0.273474,-0.726857 0.08629,-0.211092 0.160724,-0.381421 0.223093,-0.510961 0.06234,-0.12954 0.103145,-0.194303 0.122406,-0.194303 0.02876,0 0.100737,0.03117 0.215895,0.09352 0.115183,0.06234 0.235092,0.139106 0.359829,0.23029 0.12954,0.08642 0.244685,0.179921 0.345448,0.280671 0.100738,0.09592 0.151119,0.179921 0.151119,0.251882 0,0.01432 -0.0025,0.03358 -0.0076,0.05753 -0.0051,0.01913 -0.01267,0.04562 -0.02154,0.0792 -0.03839,0.119998 -0.0887,0.261475 -0.151132,0.424593 -0.05765,0.163119 -0.119998,0.333448 -0.187118,0.510962 -0.06716,0.172724 -0.13433,0.347842 -0.201501,0.525356 -0.06716,0.172724 -0.127132,0.335842 -0.179921,0.489369 -0.05284,0.153527 -0.09592,0.287869 -0.129527,0.403014 -0.03358,0.115183 -0.05043,0.199105 -0.05043,0.251882 0,0.02876 0.01444,0.04321 0.04321,0.04321 0.05284,0 0.13196,-0.03117 0.237488,-0.09352 0.105552,-0.06234 0.359829,-0.244684 0.359829,-0.244684 l 0.316646,0.453382 c 0,0 -0.388619,0.299856 -0.575725,0.424606 -0.187119,0.124687 -0.362237,0.225487 -0.525356,0.302251 -0.163132,0.07679 -0.302264,0.115183 -0.417396,0.115183 z m 2.849848,-6.793603 c -0.0051,0.01913 -0.0242,0.06716 -0.05753,0.143934 -0.02876,0.07197 -0.06475,0.158329 -0.10796,0.259079 -0.04321,0.09592 -0.09352,0.199106 -0.151132,0.309449 -0.05284,0.105552 -0.105552,0.203908 -0.158329,0.295066 -0.05284,0.09111 -0.103145,0.167921 -0.151131,0.23029 -0.04802,0.05765 -0.08642,0.08642 -0.115183,0.08642 -0.08642,-0.0051 -0.191909,-0.03143 -0.316646,-0.0792 -0.119998,-0.04802 -0.2375,-0.100737 -0.352632,-0.158329 -0.110368,-0.06234 -0.206316,-0.122279 -0.287869,-0.179908 -0.07679,-0.05765 -0.115183,-0.09846 -0.115183,-0.122406 0,-0.100737 0.02876,-0.23029 0.08642,-0.388619 0.05765,-0.163119 0.124813,-0.319053 0.201513,-0.467777 0.07679,-0.153539 0.153552,-0.285474 0.23029,-0.395816 0.0816,-0.110368 0.143973,-0.165527 0.187106,-0.165527 0.08642,0 0.191908,0.02876 0.316658,0.08642 0.124687,0.05284 0.244672,0.115183 0.35983,0.187118 0.119998,0.07197 0.220685,0.143935 0.302251,0.215896 0.08642,0.06716 0.129539,0.115183 0.129539,0.143934 z"
               id="path114"
               style="fill:#fcd198;stroke-width:1.26713955" />
          </g>
        </g>
      </g>
      <g
         id="g945"
         transform="matrix(0.44176289,0,0,0.44176289,7.487302,4.1795839)">
        <path
           sodipodi:nodetypes="cccsccssccsccsccccc"
           style="fill:#fcd198;fill-opacity:1;stroke-width:0.07374825"
           inkscape:connector-curvature="0"
           id="path2-3"
           d="m 12.905606,17.080093 0.471991,0.110622 v 4.306893 c -0.516238,0.309745 -0.884976,0.84811 -0.884976,1.497091 0,0.619484 0.339242,1.135722 0.818601,1.452843 l -1.150473,4.594512 c -0.125367,0.508869 0.154876,1.032476 0.560492,1.032476 h 3.082676 c 0.405616,0 0.685859,-0.523607 0.560485,-1.032476 l -1.150473,-4.594512 c 0.479366,-0.317121 0.818608,-0.833359 0.818608,-1.452843 0,-0.648981 -0.368745,-1.187346 -0.884982,-1.497091 v -3.879157 c 0,0 21.243999,1.55325 28.783944,-0.538358 0.28296,-0.07849 0,-2.323074 0,-2.323074 L 29.889829,8.2459589 c -0.958726,-0.228619 -1.969075,-0.228619 -2.927801,0 L 12.905606,14.749643 c -1.334839,0.324497 -1.334839,2.005953 0,2.33045 z" />
        <rect
           style="opacity:1;fill:none;fill-opacity:1;stroke:none;stroke-width:0.322;stroke-linecap:round;stroke-linejoin:miter;stroke-miterlimit:4;stroke-dasharray:none;stroke-dashoffset:0;stroke-opacity:1;paint-order:stroke fill markers"
           id="rect833"
           width="57.349594"
           height="52.999947"
           x="0"
           y="0" />
        <path
           id="path915"
           d="m 21.99453,39.250519 -6.698031,3.653549 c -0.393055,0.214316 -0.746296,0.477765 -1.074972,0.764932 3.905138,3.292684 8.946239,5.279137 14.454092,5.279137 5.467193,0 10.476104,-1.956805 14.370229,-5.204592 -0.359171,-0.303262 -0.748838,-0.576029 -1.180859,-0.791192 l -7.172408,-3.585781 c -0.926729,-0.463364 -1.512076,-1.410424 -1.512076,-2.446429 v -2.814071 c 0.20161,-0.229564 0.432021,-0.524356 0.678528,-0.872514 0.977555,-1.380776 1.717074,-2.899628 2.229571,-4.493026 0.919952,-0.283779 1.597633,-1.133422 1.597633,-2.143167 v -3.003822 c 0,-0.660739 -0.293944,-1.251168 -0.750532,-1.664554 v -4.342242 c 0,0 0.891998,-6.757328 -8.259239,-6.757328 -9.151237,0 -8.259239,6.757328 -8.259239,6.757328 v 4.342242 c -0.457435,0.413386 -0.750532,1.003815 -0.750532,1.664554 v 3.003822 c 0,0.791193 0.415927,1.48751 1.038547,1.889883 0.750532,3.267271 2.715807,5.618824 2.715807,5.618824 v 2.744609 c -8.47e-4,0.99958 -0.548075,1.920379 -1.426519,2.399838 z"
           style="fill:#fcd198;fill-opacity:1;stroke:#fcd198;stroke-width:0.84710145;stroke-opacity:1"
           inkscape:connector-curvature="0" />
        <g
           id="g919"
           transform="matrix(0.84710144,0,0,0.84710144,6.227431,3.2046593)">
          <path
             id="path917"
             d="M 26.953,1.004 C 12.32,0.754 0.254,12.414 0.004,27.047 -0.138,35.344 3.56,42.801 9.448,47.76 c 0.385,-0.336 0.798,-0.644 1.257,-0.894 l 7.907,-4.313 c 1.037,-0.566 1.683,-1.653 1.683,-2.835 v -3.24 c 0,0 -2.321,-2.776 -3.206,-6.633 -0.734,-0.475 -1.226,-1.296 -1.226,-2.231 v -3.546 c 0,-0.78 0.347,-1.477 0.886,-1.965 v -5.126 c 0,0 -1.053,-7.977 9.75,-7.977 10.803,0 9.75,7.977 9.75,7.977 v 5.126 c 0.54,0.488 0.886,1.185 0.886,1.965 v 3.546 c 0,1.192 -0.8,2.195 -1.886,2.53 -0.605,1.881 -1.478,3.674 -2.632,5.304 -0.291,0.411 -0.563,0.759 -0.801,1.03 V 39.8 c 0,1.223 0.691,2.342 1.785,2.888 l 8.467,4.233 c 0.508,0.254 0.967,0.575 1.39,0.932 5.71,-4.762 9.399,-11.882 9.536,-19.9 C 53.246,13.32 41.587,1.254 26.953,1.004 Z"
             style="fill:none;fill-opacity:1;stroke:#fcd198;stroke-opacity:1"
             inkscape:connector-curvature="0" />
        </g>
      </g>
    </g>
  </g>
</svg>
