<?xml version="1.0" encoding="UTF-8" standalone="no"?>
<svg
   xmlns:dc="http://purl.org/dc/elements/1.1/"
   xmlns:cc="http://creativecommons.org/ns#"
   xmlns:rdf="http://www.w3.org/1999/02/22-rdf-syntax-ns#"
   xmlns:svg="http://www.w3.org/2000/svg"
   xmlns="http://www.w3.org/2000/svg"
   xmlns:sodipodi="http://sodipodi.sourceforge.net/DTD/sodipodi-0.dtd"
   xmlns:inkscape="http://www.inkscape.org/namespaces/inkscape"
   viewBox="0 0 57.349594 52.999947"
   version="1.1"
   id="svg4"
   sodipodi:docname="tachometer.svg"
   width="57.349594"
   height="52.999947"
   inkscape:version="0.92.4 (5da689c313, 2019-01-14)">
  <metadata
     id="metadata10">
    <rdf:RDF>
      <cc:Work
         rdf:about="">
        <dc:format>image/svg+xml</dc:format>
        <dc:type
           rdf:resource="http://purl.org/dc/dcmitype/StillImage" />
        <dc:title></dc:title>
      </cc:Work>
    </rdf:RDF>
  </metadata>
  <defs
     id="defs8" />
  <sodipodi:namedview
     pagecolor="#ffffff"
     bordercolor="#666666"
     borderopacity="1"
     objecttolerance="10"
     gridtolerance="10"
     guidetolerance="10"
     inkscape:pageopacity="0"
     inkscape:pageshadow="2"
     inkscape:window-width="1366"
     inkscape:window-height="706"
     id="namedview6"
     showgrid="false"
     fit-margin-top="0"
     fit-margin-left="0"
     fit-margin-right="0"
     fit-margin-bottom="0"
     inkscape:zoom="5.2149125"
     inkscape:cx="0.12983966"
     inkscape:cy="34.789101"
     inkscape:window-x="0"
     inkscape:window-y="344"
     inkscape:window-maximized="1"
     inkscape:current-layer="svg4" />
  <path
     d="m 28.674797,6.8044022 c -13.985613,0 -25.322876,11.3372618 -25.322876,25.3228768 0,4.642527 1.2529548,8.99138 3.4344151,12.731779 0.493268,0.845856 1.4332048,1.336486 2.4127075,1.336486 H 48.15055 c 0.979503,0 1.91944,-0.49063 2.412708,-1.336486 2.18146,-3.740399 3.434415,-8.089252 3.434415,-12.731779 0,-13.985615 -11.337263,-25.3228768 -25.322876,-25.3228768 z m 0,5.6273068 c 1.293401,0 2.337091,0.890696 2.665936,2.079465 -0.0976,0.198714 -0.232126,0.371929 -0.303347,0.58647 l -0.810684,2.43293 c -0.451064,0.306864 -0.964556,0.52844 -1.551026,0.52844 -1.553663,0 -2.813653,-1.25999 -2.813653,-2.813653 0,-1.553664 1.259111,-2.813652 2.812774,-2.813652 z M 11.792879,37.754585 c -1.553663,0 -2.8136524,-1.259988 -2.8136524,-2.813653 0,-1.553665 1.2599894,-2.813653 2.8136524,-2.813653 1.553665,0 2.813653,1.259988 2.813653,2.813653 0,1.553665 -1.259988,2.813653 -2.813653,2.813653 z m 4.22048,-14.068265 c -1.553663,0 -2.813653,-1.25999 -2.813653,-2.813653 0,-1.553664 1.25999,-2.813653 2.813653,-2.813653 1.553664,0 2.813653,1.259989 2.813653,2.813653 0,1.553663 -1.259989,2.813653 -2.813653,2.813653 z m 21.69766,-6.366769 -5.392541,16.178505 c 1.203715,1.032258 1.983625,2.545476 1.983625,4.256529 0,1.0305 -0.297192,1.982746 -0.780788,2.813653 h -9.693036 c -0.483595,-0.830907 -0.780788,-1.783153 -0.780788,-2.813653 0,-2.98423 2.330056,-5.401335 5.266807,-5.591257 l 5.393421,-16.179384 c 0.366653,-1.104358 1.55894,-1.710172 2.669452,-1.333847 1.105238,0.368413 1.701382,1.564216 1.333848,2.669454 z m 1.289006,5.029405 1.364621,-4.092986 c 0.305105,-0.11343 0.626917,-0.196077 0.971589,-0.196077 1.553665,0 2.813653,1.259988 2.813653,2.813653 0,1.553665 -1.259988,2.813653 -2.813653,2.813653 -1.000605,-8.79e-4 -1.836788,-0.552179 -2.33621,-1.338243 z m 6.55669,15.405629 c -1.553665,0 -2.813653,-1.259988 -2.813653,-2.813653 0,-1.553665 1.259988,-2.813653 2.813653,-2.813653 1.553664,0 2.813653,1.259988 2.813653,2.813653 0,1.553665 -1.259989,2.813653 -2.813653,2.813653 z"
     id="path2"
     inkscape:connector-curvature="0"
     style="stroke-width:0.08792666;fill:#fcd198;fill-opacity:1" />
  <rect
     y="0"
     x="0"
     height="52.999947"
     width="57.349594"
     id="rect833"
     style="opacity:1;fill:none;fill-opacity:1;stroke:none;stroke-width:0.322;stroke-linecap:round;stroke-linejoin:miter;stroke-miterlimit:4;stroke-dasharray:none;stroke-dashoffset:0;stroke-opacity:1;paint-order:stroke fill markers" />
</svg>
