<?xml version="1.0" encoding="UTF-8" standalone="no"?>
<svg
   xmlns:dc="http://purl.org/dc/elements/1.1/"
   xmlns:cc="http://creativecommons.org/ns#"
   xmlns:rdf="http://www.w3.org/1999/02/22-rdf-syntax-ns#"
   xmlns:svg="http://www.w3.org/2000/svg"
   xmlns="http://www.w3.org/2000/svg"
   xmlns:sodipodi="http://sodipodi.sourceforge.net/DTD/sodipodi-0.dtd"
   xmlns:inkscape="http://www.inkscape.org/namespaces/inkscape"
   viewBox="0 0 57.349594 52.999947"
   version="1.1"
   id="svg4"
   sodipodi:docname="users.svg"
   inkscape:version="0.92.4 (5da689c313, 2019-01-14)"
   width="57.349594"
   height="52.999947">
  <metadata
     id="metadata10">
    <rdf:RDF>
      <cc:Work
         rdf:about="">
        <dc:format>image/svg+xml</dc:format>
        <dc:type
           rdf:resource="http://purl.org/dc/dcmitype/StillImage" />
        <dc:title></dc:title>
      </cc:Work>
    </rdf:RDF>
  </metadata>
  <defs
     id="defs8" />
  <sodipodi:namedview
     pagecolor="#ffffff"
     bordercolor="#666666"
     borderopacity="1"
     objecttolerance="10"
     gridtolerance="10"
     guidetolerance="10"
     inkscape:pageopacity="0"
     inkscape:pageshadow="2"
     inkscape:window-width="1366"
     inkscape:window-height="706"
     id="namedview6"
     showgrid="false"
     inkscape:zoom="5.2149125"
     inkscape:cx="47.935935"
     inkscape:cy="27.715585"
     inkscape:window-x="0"
     inkscape:window-y="344"
     inkscape:window-maximized="1"
     inkscape:current-layer="svg4"
     fit-margin-top="0"
     fit-margin-left="0"
     fit-margin-right="0"
     fit-margin-bottom="0" />
  <g
     id="g835">
    <path
       inkscape:connector-curvature="0"
       style="fill:#1a133b;fill-opacity:1;stroke-width:0.06241257"
       id="path2"
       d="m 14.694382,24.502769 c 2.203162,0 3.994402,-1.79124 3.994402,-3.994402 0,-2.203166 -1.79124,-3.994407 -3.994402,-3.994407 -2.203166,0 -3.994407,1.791241 -3.994407,3.994407 0,2.203162 1.791241,3.994402 3.994407,3.994402 z m 27.96083,0 c 2.203166,0 3.994407,-1.79124 3.994407,-3.994402 0,-2.203166 -1.791241,-3.994407 -3.994407,-3.994407 -2.203162,0 -3.994402,1.791241 -3.994402,3.994407 0,2.203162 1.79124,3.994402 3.994402,3.994402 z m 1.997203,1.997204 h -3.994402 c -1.098463,0 -2.090825,0.44313 -2.814811,1.160871 2.515226,1.379319 4.300227,3.869582 4.687184,6.827938 h 4.119233 c 1.104703,0 1.997203,-0.8925 1.997203,-1.997203 V 30.49438 c 0,-2.203167 -1.791245,-3.994407 -3.994407,-3.994407 z m -15.977618,0 c 3.863336,0 6.990207,-3.126871 6.990207,-6.990207 0,-3.863337 -3.126871,-6.990208 -6.990207,-6.990208 -3.863336,0 -6.990207,3.126871 -6.990207,6.990208 0,3.863336 3.126871,6.990207 6.990207,6.990207 z m 4.793285,1.997203 H 32.95006 c -1.298182,0.624125 -2.739914,0.998602 -4.275263,0.998602 -1.535349,0 -2.970836,-0.374477 -4.275263,-0.998602 h -0.518022 c -3.969438,0 -7.189931,3.220488 -7.189931,7.189926 v 1.797485 c 0,1.65393 1.34187,2.995801 2.995805,2.995801 h 17.974822 c 1.653935,0 2.995805,-1.341871 2.995805,-2.995801 v -1.797485 c 0,-3.969438 -3.220493,-7.189926 -7.189931,-7.189926 z m -13.96169,-0.836332 c -0.723986,-0.717741 -1.716348,-1.160871 -2.814811,-1.160871 h -3.994402 c -2.203162,0 -3.9944069,1.79124 -3.9944069,3.994407 v 1.997199 c 0,1.104703 0.8925002,1.997203 1.9972029,1.997203 h 4.112988 c 0.393202,-2.958356 2.178203,-5.448619 4.693429,-6.827938 z" />
    <rect
       style="opacity:1;fill:none;fill-opacity:1;stroke:none;stroke-width:0.322;stroke-linecap:round;stroke-linejoin:miter;stroke-miterlimit:4;stroke-dasharray:none;stroke-dashoffset:0;stroke-opacity:1;paint-order:stroke fill markers"
       id="rect833"
       width="57.349594"
       height="52.999947"
       x="-3.2855225e-09"
       y="-6.2210086e-09" />
  </g>
</svg>
