<svg enable-background="new 0 0 53 53" height="53.316341" viewBox="0 0 52.997959 53.316341" width="52.997959" xmlns="http://www.w3.org/2000/svg" xmlns:xlink="http://www.w3.org/1999/xlink"><linearGradient id="a"><stop offset="0" stop-color="#071e25"/><stop offset=".13518035" stop-color="#051722"/><stop offset=".28478894" stop-color="#04111b"/><stop offset=".46850538" stop-color="#061317"/><stop offset=".69160116" stop-color="#040e16"/><stop offset=".90158319" stop-color="#030c14"/><stop offset="1" stop-color="#030a16"/></linearGradient><linearGradient id="b" gradientTransform="matrix(.40679018 0 0 .1288262 -30.268062 25.773377)" gradientUnits="userSpaceOnUse" x1="75.444054" x2="203.65359" xlink:href="#a" y1="183.36145" y2="183.36145"/><linearGradient id="c" gradientUnits="userSpaceOnUse" x1=".000051" x2="52.998009" xlink:href="#a" y1="23.426527" y2="23.426527"/><linearGradient id="d" gradientUnits="userSpaceOnUse" x1="9.437" x2="43.464001" xlink:href="#a" y1="49.875687" y2="49.875687"/><g transform="translate(-.000051 -.000054)"><path d="m18.613 41.552-7.907 4.313c-.464.253-.881.564-1.269.903 4.61 3.887 10.561 6.232 17.063 6.232 6.454 0 12.367-2.31 16.964-6.144-.424-.358-.884-.68-1.394-.934l-8.467-4.233c-1.094-.547-1.785-1.665-1.785-2.888v-3.322c.238-.271.51-.619.801-1.03 1.154-1.63 2.027-3.423 2.632-5.304 1.086-.335 1.886-1.338 1.886-2.53v-3.546c0-.78-.347-1.477-.886-1.965v-5.126s1.053-7.977-9.75-7.977-9.75 7.977-9.75 7.977v5.126c-.54.488-.886 1.185-.886 1.965v3.546c0 .934.491 1.756 1.226 2.231.886 3.857 3.206 6.633 3.206 6.633v3.24c-.001 1.18-.647 2.267-1.684 2.833z" fill="#fcd198"/><path d="m9.437 46.768 16.902731-.354034 17.124269.442034s-3.324571 3.039166-7.973196 4.767983c-3.493816 1.299345-8.024005 1.435446-10.852552 1.331823-2.556589-.09366-6.134657-.745747-9.12568-2.166392-3.405126-1.61733-6.075572-4.021414-6.075572-4.021414z" fill="url(#d)"/><path d="m26.953.004c-14.633-.25-26.699 11.41-26.949 26.043-.142 8.297 3.556 15.754 9.444 20.713.385-.336 33.557.346 34.016.096l-24.852-5.303c1.037-.566 1.683-1.653 1.683-2.835v-3.24s-2.321-2.776-3.206-6.633c-.734-.475-1.226-1.296-1.226-2.231v-3.546c0-.78.347-1.477.886-1.965v-5.126s-1.053-7.977 9.75-7.977 9.75 7.977 9.75 7.977v5.126c.54.488.886 1.185.886 1.965v3.546c0 1.192-.8 2.195-1.886 2.53-.605 1.881-1.478 3.674-2.632 5.304-.291.411-.563.759-.801 1.03v3.322c0 1.223.691 2.342 1.785 2.888l-24.153 5.072c.508.254 33.587-.264 34.01.093 5.71-4.762 9.399-11.882 9.536-19.9.252-14.633-11.407-26.699-26.041-26.949z" fill="url(#c)"/><path d="m.42183943 45.473877h52.15438157v7.842519h-52.15438157z" fill="url(#b)" stroke-width="1.215317"/><g fill="#fcd198"><g transform="matrix(.01844363169 0 0 .01844363169 12.89346731134 45.12543106663)"><path d="m439.5 92h-8.622c-.015-15.242-.026-24.509-.026-24.509-.005-4.139-3.361-7.491-7.5-7.491-110.843 0-176.933 25.047-191.78 31.337-14.861-6.287-81.05-31.337-192.072-31.337-4.139 0-7.495 3.353-7.5 7.491 0 0-.01 9.267-.026 24.509h-8.474c-12.958 0-23.5 10.542-23.5 23.5v264c0 12.958 10.542 23.5 23.5 23.5h416c12.958 0 23.5-10.542 23.5-23.5v-264c0-12.958-10.542-23.5-23.5-23.5zm-23.568 264.038c-93.47.951-153.82 19.652-176.932 28.346v-279.858c16.004-6.445 77.69-28.42 176.86-29.486.1 90.975.219 246.033.072 280.998zm-191.932-251.569v279.864c-23.245-8.716-83.637-27.35-177.08-28.296-.134-31.924-.047-163.943.046-255.91.017-.207.032-.415.032-.627 0-.203-.015-.403-.03-.602.008-8.321.017-16.313.025-23.858 99.042 1.06 160.756 22.911 177.007 29.429zm-209 275.031v-264c0-4.687 3.813-8.5 8.5-8.5h8.459c-.027 28.295-.062 68.323-.084 108.371-.021 36.981-.031 73.975-.016 101.742.008 13.89.022 25.473.044 33.593.012 4.073.025 7.277.041 9.469.034 4.673.046 6.421 2.249 8.625 1.407 1.408 3.316 2.2 5.307 2.2 64.093 0 113.209 8.753 145.26 17h-161.26c-4.687 0-8.5-3.813-8.5-8.5zm433 0c0 4.687-3.813 8.5-8.5 8.5h-161.181c32.002-8.247 81.041-17 145.033-17 1.991 0 3.9-.792 5.307-2.2 2.202-2.204 2.215-3.952 2.249-8.625.016-2.191.029-5.396.041-9.469.023-8.12.037-19.703.045-33.593.016-27.768.005-64.76-.016-101.742-.023-40.048-.057-80.076-.085-108.371h8.608c4.687 0 8.5 3.813 8.5 8.5v264z" stroke-width="2.520375"/><path d="m201.594 288.271c-15.129-4.423-31.535-8.241-48.763-11.349-4.079-.734-7.978 1.974-8.712 6.05-.735 4.076 1.973 7.977 6.049 8.712 16.709 3.014 32.595 6.709 47.217 10.983.703.206 1.411.304 2.108.304 3.246 0 6.238-2.125 7.195-5.397 1.162-3.975-1.119-8.14-5.094-9.303z"/><path d="m71.158 282.992c16.106.739 32.065 2.065 47.434 3.939.308.038.615.057.917.057 3.737 0 6.972-2.789 7.436-6.593.501-4.111-2.425-7.852-6.537-8.353-15.741-1.921-32.08-3.278-48.563-4.035-4.123-.155-7.646 3.011-7.836 7.148-.189 4.139 3.011 7.647 7.149 7.837z"/><path d="m201.593 320.271c-24.64-7.201-51.954-12.661-81.184-16.228-4.113-.509-7.851 2.425-8.353 6.536-.501 4.111 2.425 7.852 6.537 8.353 28.423 3.469 54.933 8.763 78.792 15.737.703.205 1.411.303 2.107.303 3.246 0 6.239-2.125 7.195-5.397 1.163-3.977-1.118-8.142-5.094-9.304z"/><path d="m71.158 314.992c5.275.242 10.599.551 15.823.916.178.013.355.019.532.019 3.903 0 7.197-3.022 7.474-6.977.29-4.132-2.826-7.716-6.958-8.005-5.343-.374-10.788-.689-16.182-.938-4.124-.147-7.646 3.011-7.836 7.148-.191 4.139 3.009 7.647 7.147 7.837z"/><path d="m197.385 270.669c.702.205 1.411.303 2.107.303 3.246 0 6.239-2.124 7.195-5.397 1.162-3.976-1.119-8.141-5.095-9.304-5.233-1.529-10.708-3.01-16.271-4.4-4.014-1.003-8.09 1.439-9.095 5.458-1.004 4.019 1.439 8.091 5.458 9.095 5.374 1.342 10.656 2.77 15.701 4.245z"/><path d="m71.158 250.992c27.421 1.258 54.004 4.183 79.011 8.692.45.081.898.12 1.34.12 3.559 0 6.718-2.544 7.372-6.17.735-4.076-1.973-7.977-6.05-8.712-25.656-4.627-52.904-7.627-80.985-8.915-4.123-.164-7.646 3.011-7.836 7.148-.19 4.139 3.011 7.648 7.148 7.837z"/><path d="m263.497 142.972c.696 0 1.405-.098 2.107-.303 21.573-6.306 45.426-11.258 70.896-14.719 4.104-.558 6.979-4.337 6.422-8.441-.558-4.104-4.334-6.979-8.441-6.422-26.208 3.562-50.797 8.67-73.084 15.184-3.976 1.162-6.257 5.327-5.095 9.304.956 3.273 3.948 5.397 7.195 5.397z"/><path d="m367.479 124.538c.207 0 .416-.008.626-.025 7.802-.645 15.785-1.156 23.727-1.521 4.138-.189 7.338-3.698 7.148-7.836s-3.695-7.322-7.836-7.148c-8.124.373-16.291.896-24.275 1.556-4.128.341-7.198 3.964-6.857 8.092.324 3.918 3.604 6.882 7.467 6.882z"/><path d="m263.497 206.972c.697 0 1.405-.098 2.108-.303 14.623-4.275 30.509-7.971 47.217-10.984 4.076-.735 6.785-4.636 6.049-8.712-.735-4.077-4.636-6.783-8.712-6.05-17.227 3.107-33.633 6.926-48.763 11.348-3.976 1.163-6.256 5.328-5.094 9.304.956 3.273 3.948 5.397 7.195 5.397z"/><path d="m391.144 172.008c-16.483.757-32.822 2.114-48.563 4.035-4.112.501-7.038 4.241-6.537 8.353.464 3.804 3.698 6.593 7.436 6.593.303 0 .609-.019.917-.057 15.368-1.874 31.327-3.2 47.434-3.939 4.138-.19 7.338-3.698 7.148-7.836-.189-4.139-3.712-7.33-7.835-7.149z"/><path d="m263.497 174.972c.697 0 1.405-.098 2.107-.303 5.042-1.475 10.324-2.902 15.7-4.246 4.019-1.005 6.462-5.076 5.458-9.095s-5.08-6.464-9.095-5.458c-5.566 1.392-11.041 2.872-16.271 4.4-3.976 1.163-6.257 5.328-5.095 9.304.957 3.274 3.949 5.398 7.196 5.398z"/><path d="m391.144 140.008c-28.081 1.288-55.329 4.288-80.986 8.915-4.077.735-6.785 4.636-6.05 8.712.654 3.627 3.813 6.17 7.372 6.17.442 0 .89-.039 1.34-.12 25.007-4.51 51.59-7.435 79.011-8.692 4.138-.189 7.338-3.698 7.148-7.836-.189-4.138-3.694-7.335-7.835-7.149z"/><path d="m263.497 238.972c.697 0 1.405-.098 2.108-.303 23.858-6.975 50.37-12.27 78.799-15.738 4.112-.501 7.038-4.241 6.537-8.353s-4.243-7.044-8.353-6.536c-29.236 3.566-56.553 9.027-81.191 16.229-3.976 1.163-6.256 5.328-5.094 9.304.955 3.273 3.947 5.397 7.194 5.397z"/><path d="m391.144 204.008c-5.417.249-10.858.563-16.173.937-4.132.289-7.247 3.874-6.957 8.006.277 3.953 3.57 6.976 7.474 6.976.176 0 .354-.006.532-.019 5.195-.364 10.515-.672 15.813-.915 4.138-.19 7.338-3.698 7.148-7.836-.191-4.139-3.712-7.335-7.837-7.149z"/><path d="m256.301 297.574c.957 3.273 3.949 5.397 7.195 5.397.697 0 1.405-.098 2.108-.303 14.623-4.275 30.509-7.971 47.217-10.984 4.076-.735 6.785-4.636 6.049-8.712-.735-4.077-4.636-6.782-8.712-6.05-17.227 3.107-33.633 6.926-48.763 11.348-3.975 1.164-6.256 5.329-5.094 9.304z"/><path d="m391.144 268.008c-16.483.757-32.822 2.114-48.563 4.035-4.112.501-7.038 4.241-6.537 8.353.464 3.804 3.698 6.593 7.436 6.593.303 0 .609-.019.917-.057 15.368-1.874 31.327-3.2 47.434-3.939 4.138-.19 7.338-3.698 7.148-7.836-.189-4.138-3.712-7.315-7.835-7.149z"/><path d="m342.58 304.043c-29.23 3.566-56.544 9.026-81.184 16.228-3.976 1.162-6.257 5.327-5.095 9.304.957 3.273 3.949 5.397 7.195 5.397.697 0 1.405-.098 2.107-.303 23.86-6.975 50.369-12.269 78.792-15.737 4.112-.501 7.038-4.241 6.537-8.353s-4.244-7.047-8.352-6.536z"/><path d="m391.144 300.008c-5.394.248-10.838.563-16.183.938-4.132.289-7.247 3.873-6.958 8.005.277 3.954 3.57 6.977 7.474 6.977.176 0 .354-.006.532-.019 5.226-.365 10.549-.674 15.823-.916 4.138-.19 7.338-3.698 7.148-7.836s-3.713-7.31-7.836-7.149z"/><path d="m263.497 270.972c.697 0 1.405-.098 2.107-.303 5.042-1.475 10.324-2.902 15.7-4.246 4.019-1.005 6.462-5.076 5.458-9.095s-5.08-6.461-9.095-5.458c-5.566 1.392-11.041 2.872-16.271 4.4-3.976 1.163-6.257 5.328-5.095 9.304.957 3.274 3.949 5.398 7.196 5.398z"/><path d="m391.144 236.008c-28.081 1.288-55.329 4.288-80.986 8.915-4.077.735-6.785 4.636-6.05 8.712.654 3.627 3.813 6.17 7.372 6.17.442 0 .89-.039 1.34-.12 25.007-4.51 51.59-7.435 79.011-8.692 4.138-.189 7.338-3.698 7.148-7.836-.189-4.138-3.694-7.32-7.835-7.149z"/><path d="m200.94935 242.59976c.702.205 1.411.303 2.107.303 3.246 0 6.239-2.124 7.195-5.397 1.162-3.976-1.119-8.141-5.095-9.304-5.233-1.529-10.708-3.01-16.271-4.4-4.014-1.003-8.09 1.439-9.095 5.458-1.004 4.019 1.439 8.091 5.458 9.095 5.374 1.342 10.656 2.77 15.701 4.245z"/><path d="m79.177783 223.28917c16.106.739 32.064997 2.065 47.433997 3.939.308.038.615.057.917.057 3.737 0 6.972-2.789 7.436-6.593.501-4.111-2.425-7.852-6.537-8.353-15.741-1.921-32.079997-3.278-48.562997-4.035-4.123-.155-7.646 3.011-7.836 7.148-.189 4.139 3.011 7.647 7.149 7.837z"/></g><g transform="matrix(.04260516661 .01141602018 -.01141602018 .04260516661 11.06464891466 43.88421762709)"><path d="m126.38276 47.673927c-.62177-1.07766-1.90538-1.055079-3.84953.06736-2.41289 1.393023-5.192 4.153207-8.3374 8.280453-3.15904 4.103891-5.28753 7.909536-6.38556 11.416991-.65821 2.160275-1.00858 4.096022-1.05125 5.807251-.0574 1.688274.18466 3.00098.72553 3.937922.54097.936991 1.27884 1.619734 2.21371 2.04822 1.67421.844884 4.14363.496624 7.40827-1.044672.36553-.179783.92258-.486552 1.67096-.918487.7494-.432671.66287-.420487 2.90415-2.191824 2.2409-1.771197 7.99023-1.762121-2.93875 4.227232-2.9047 1.676934-5.6941 2.14736-8.368 1.411115-1.75993-.451733-3.1741-1.602926-4.24251-3.453628-.92009-1.592766-1.40128-3.375925-1.44449-5.349188-.17329-4.89744 1.36824-10.206951 4.62454-15.928497 1.91741-3.387059 3.87325-6.031125 5.86782-7.932264 1.31339-1.133209 2.63778-2.085205 3.97305-2.855956 1.33527-.770913 2.67054-1.136317 4.0057-1.096316 1.42251.08448 2.49222.747428 3.20908 1.988973.46029.796386.73284 1.810088.81932 3.040694.0162.363304-.0379.487636-.15813.372563-.12184-.115938-.20902-.346353-.2648-.690373-.0325-.385776-.16029-.76604-.38447-1.138538zm-4.07941 12.896445c.23502.08296.38556.183249.45217.300596.0585.09238.0937.181516.11534.263448-.0325.267942-.29296.387508-.77788.355938-1.13437-.125794-2.57995.318412-4.33695 1.332736-2.17869 1.257829-4.1648 2.794938-5.95836 4.611324-.76532.78508-1.32303 1.278942-1.67426 1.481978-.53881.311101-1.03116.267888-1.47964-.129422-.0379-.0092-.0671-.03899-.10235-.0841-.14837-.257762-.10505-.689751.1408-1.299.24206-.60809.91613-1.387803 2.02272-2.339117.66585-.634023 1.48972-1.234792 2.47306-1.802529.98371-.568001 2.09057-1.113216 3.31911-1.635384 2.61206-1.102077 4.54803-1.454599 5.80798-1.057505z"/><path d="m124.66105 72.535888q-.0596.274549-.15108.294206-.0861.01841-.13538-.2087-.28484-1.317915 2.33838-8.545087 2.61839-7.249878 3.63286-9.157997.18737-1.990938.81499-2.721264.13429-.147888.45379-.216986.34007-.0737 1.13198.06444.81428.133158.90266.542182.0433.181624-.11264.3574-.83643 1.084663-.88803 3.593312-.0542 2.508682.48411 4.985436.63878 2.953943 1.67914 4.465293.41101-2.610108 2.51956-8.917254 2.12659-6.334819 2.5128-6.418337.0217-.0046.19928-.06709.68442-.243519.72877-.03899.0162.09135-.0801.39796-1.66414 3.523316-3.29388 8.085741-1.62975 4.562403-2.2512 7.408309.6163.65165 1.29423.814299.30216.07744.5524.02329.25072-.05426.36661-.174801.12184-.09715.17166-.08421.0541.03574.0666.104405.0162.06753-.0162.122707-.43971.499386-.87087.592646-1.36337.294802-2.59781-.793998-1.23937-1.111537-2.13916-2.962499-.89945-1.851021-1.27776-3.600676-.42238-1.954164-.41372-4.001572-1.71877 3.820543-3.42108 8.707861-1.70713 4.864564-2.19287 7.348131z"/></g><g stroke-width=".237626" transform="matrix(1.97785521824 0 0 1.97785521824 -118.26466222164 -1142.99938506603)"><path d="m71.629455 602.53348q.05703.0513.125467.10265.07034.0494.138773.10076.07034.0513.127368.10455.129268.11977.129268.26424 0 .1787-.136872.29846-.134972.11976-.35739.11976-.222418 0-.342181-.10075-.119764-.10075-.119764-.23953 0-.10265.06083-.16538.06083-.0646.157783-.0646.02661 0 .05133.008-.05893.0893-.05893.192 0 .10075.07034.17299.07034.0722.211012.0722.100754 0 .178695-.0608.07984-.0627.07984-.173 0-.0722-.04752-.14067-.04753-.0703-.117862-.12357-.07034-.0532-.153982-.11786-.08364-.0665-.153982-.12737-.07034-.0608-.117862-.14827-.04752-.0875-.04752-.1825 0-.1806.121664-.28515.123566-.10646.355489-.10646.188199 0 .294656.10075.108357.0989.108357.20721 0 .10646-.05893.1749-.05703.0684-.157784.0684-.03422 0-.06654-.008.09315-.0988.09315-.20911 0-.11026-.06844-.16539-.06844-.057-.174892-.057-.104556 0-.178695.0608-.07414.0608-.07414.1844 0 .12357.129268.24333z"/><path d="m72.401086 602.09054q0-.0418.01331-.0817.199606.0247.456242.0247.256636 0 .52848-.0494-.02661.17679-.220517.192-.100753.01-.203408.0152-.0019.0741-.06463.51327-.06083.43913-.06083.60452 0 .16349.02661.22622-.117862-.0418-.167289-.11216-.04752-.0722-.04752-.17109 0-.10075.04943-.46385.05133-.36499.05893-.58741-.165388.006-.285152.006-.08364 0-.08364-.11597z"/><path d="m74.579582 602.02021q.01901.0342.02471.0665.0057.0304.0057.10646 0 .076-.06273.50567-.06273.42962-.06273.60262 0 .17109.02661.23382-.117862-.0418-.167288-.11216-.04752-.0722-.04752-.192 0-.0589.0038-.095-.161586.3783-.477153.3783-.157784 0-.237626-.10836-.07984-.11026-.07984-.34788 0-.13497.04182-.48666.04372-.35169.04372-.45624 0-.10646-.02091-.16349.11406.0418.163486.10836.04943.0665.04943.1844 0 .11596-.04182.3764-.03992.25853-.03992.42582 0 .16729.05323.23953.05323.0722.152081.0722.102654 0 .201507-.0874.125466-.11216.201507-.36499.04372-.14448.06654-.33078 0-.006.0038-.006.0057 0 .02471.0247.02091.0247.02471.0247l-.01711.11977q-.04372.23762-.112159.39731.0076-.076.03612-.27185.07034-.48855.07034-.7566 0-.057-.0076-.15588.144477.008.180596.0684zm-.148279.59121-.0019.008q.0019 0 .0019-.008z"/><path d="m75.562135 601.95177q.262339 0 .412519.20721.15018.20721.15018.52088 0 .31937-.172992.5627-.08365.11976-.22622.192-.140675.0703-.292755.0703-.15018 0-.266141-.0323-.114061-.0323-.165388-.0646l-.05323-.0323q.0019-.0152.04182-.28325.08364-.5589.08364-1.01324 0-.15018-.02661-.21291.157784.0532.197705.16728.16919-.0817.317468-.0817zm-.393508 1.39154q.08364.0285.203407.0285.119764 0 .231923-.0608.11216-.0627.180596-.16539.140675-.20721.140675-.46764 0-.26044-.115962-.42013-.115961-.15968-.311765-.15968-.13117 0-.228121.0437 0 .11786-.05133.59312-.04943.47525-.04943.60832z"/><path d="m76.981742 602.83004-.169189-.002q-.09315 0-.142576.004-.03042.26994-.03042.48475.439133 0 .634937-.057-.01331.11026-.07604.1711-.06083.0608-.153981.0608-.02662 0-.165388-.0133-.136873-.0114-.266141-.0114-.129269 0-.258537.0247.01521-.0627.07224-.10836-.0019-.0114-.0019-.0722 0-.0608.05513-.45054-.05323.0133-.09125.0285-.0038-.0342-.0038-.0551 0-.11596.117862-.14448.04372-.31937.04753-.50947-.04943-.004-.07034-.0247-.01901-.0209-.01901-.0741 0-.0551.01521-.0969.195804.0266.425826.0266.230022 0 .439133-.0418-.01141.0722-.05323.11786-.03992.0437-.129269.0627-.08935.019-.148279.0228-.106456.01-.262339.01-.0019.0684-.05893.49997.117863.004.171091.004.167289 0 .237626-.0551.0038.0304.0038.0494 0 .15018-.119764.15018z"/><path d="m77.772294 603.3281q0 .0589.0076.15778-.197705 0-.197705-.11976 0-.019.07224-.51707.07414-.49807.07414-.69197l-.01141-.0171q-.03422-.0513-.06653-.0741-.03042-.0228-.05703-.038-.02661-.0171-.03042-.0209.07794-.0551.15208-.0551.133071 0 .209111.11406.108358.16539.366895.69767.167288.34408.256636.47525.0038-.11786.05323-.50947.04943-.3916.04943-.62163 0-.0589-.0076-.15398.195804 0 .195804.11596 0 .0209-.07224.53038-.07224.50947-.07224.70528 0 .0703.0038.10265.01521.0133.04943.0323-.09885.076-.182496.076-.08365 0-.148279-.11216-.03232-.0475-.123565-.22052-.321271-.61402-.427727-.80032-.0038.0456-.04943.38971-.04372.34408-.04372.55509z"/><path d="m79.073178 602.09054q0-.0418.01331-.0817.199605.0247.456241.0247.256637 0 .528481-.0494-.02661.17679-.220517.192-.100754.01-.203408.0152-.0019.0741-.06463.51327-.06083.43913-.06083.60452 0 .16349.02661.22622-.117862-.0418-.167288-.11216-.04752-.0722-.04752-.17109 0-.10075.04943-.46385.05133-.36499.05893-.58741-.165388.006-.285151.006-.08364 0-.08364-.11597z"/></g></g></g></svg>