<?xml version="1.0" encoding="UTF-8" standalone="no"?>
<!-- Created with Inkscape (http://www.inkscape.org/) -->

<svg
   xmlns:dc="http://purl.org/dc/elements/1.1/"
   xmlns:cc="http://creativecommons.org/ns#"
   xmlns:rdf="http://www.w3.org/1999/02/22-rdf-syntax-ns#"
   xmlns:svg="http://www.w3.org/2000/svg"
   xmlns="http://www.w3.org/2000/svg"
   xmlns:sodipodi="http://sodipodi.sourceforge.net/DTD/sodipodi-0.dtd"
   xmlns:inkscape="http://www.inkscape.org/namespaces/inkscape"
   width="114.70153"
   height="114.70153"
   viewBox="0 0 30.348114 30.348114"
   version="1.1"
   id="svg8"
   inkscape:version="0.92.4 (5da689c313, 2019-01-14)"
   sodipodi:docname="elimu_nasi icon.svg">
  <defs
     id="defs2" />
  <sodipodi:namedview
     id="base"
     pagecolor="#ffffff"
     bordercolor="#666666"
     borderopacity="1.0"
     inkscape:pageopacity="0.0"
     inkscape:pageshadow="2"
     inkscape:zoom="5.6568544"
     inkscape:cx="99.75836"
     inkscape:cy="55.594661"
     inkscape:document-units="px"
     inkscape:current-layer="layer1"
     showgrid="false"
     units="px"
     inkscape:pagecheckerboard="true"
     inkscape:window-width="1920"
     inkscape:window-height="1050"
     inkscape:window-x="1366"
     inkscape:window-y="0"
     inkscape:window-maximized="1"
     inkscape:snap-bbox="true"
     inkscape:bbox-paths="true"
     inkscape:bbox-nodes="true"
     inkscape:snap-bbox-edge-midpoints="true"
     inkscape:snap-bbox-midpoints="true"
     inkscape:snap-page="true"
     inkscape:snap-global="false"
     inkscape:object-paths="true"
     inkscape:snap-intersection-paths="true"
     inkscape:snap-smooth-nodes="true"
     inkscape:measure-start="0,0"
     inkscape:measure-end="0,0"
     fit-margin-top="0"
     fit-margin-left="0"
     fit-margin-right="0"
     fit-margin-bottom="0"
     showguides="true"
     inkscape:guide-bbox="true" />
  <metadata
     id="metadata5">
    <rdf:RDF>
      <cc:Work
         rdf:about="">
        <dc:format>image/svg+xml</dc:format>
        <dc:type
           rdf:resource="http://purl.org/dc/dcmitype/StillImage" />
        <dc:title></dc:title>
      </cc:Work>
    </rdf:RDF>
  </metadata>
  <g
     inkscape:label="Layer 1"
     inkscape:groupmode="layer"
     id="layer1"
     transform="translate(14.342495,-210.00285)">
    <g
       transform="matrix(1.0266611,0,0,1.0266611,9.810578,14.401716)"
       inkscape:export-ydpi="879.89136"
       inkscape:export-xdpi="879.89136"
       id="g1162">
      <circle
         r="14.780005"
         cy="205.30162"
         cx="-8.7458429"
         id="path1262"
         style="opacity:1;fill:#e34e03;fill-opacity:1;stroke:none;stroke-width:0.21166667;stroke-linecap:round;stroke-linejoin:round;stroke-miterlimit:4;stroke-dasharray:none;stroke-dashoffset:0;stroke-opacity:1" />
      <g
         style="fill:#ffffff;fill-opacity:1"
         transform="translate(-148.29466,107.87116)"
         id="g1143">
        <g
           style="fill:#ffffff;fill-opacity:1"
           id="g1135"
           transform="matrix(0.05248889,0,0,0.05248889,127.39764,85.279278)">
          <g
             style="fill:#ffffff;fill-opacity:1"
             id="g1103">
            <path
               inkscape:connector-curvature="0"
               d="m 439.5,92 h -8.622 C 430.863,76.758 430.852,67.491 430.852,67.491 430.847,63.352 427.491,60 423.352,60 312.509,60 246.419,85.047 231.572,91.337 216.711,85.05 150.522,60 39.5,60 c -4.139,0 -7.495,3.353 -7.5,7.491 0,0 -0.01,9.267 -0.026,24.509 H 23.5 C 10.542,92 0,102.542 0,115.5 v 264 C 0,392.458 10.542,403 23.5,403 h 416 c 12.958,0 23.5,-10.542 23.5,-23.5 v -264 C 463,102.542 452.458,92 439.5,92 Z M 415.932,356.038 C 322.462,356.989 262.112,375.69 239,384.384 V 104.526 c 16.004,-6.445 77.69,-28.42 176.86,-29.486 0.1,90.975 0.219,246.033 0.072,280.998 z M 224,104.469 v 279.864 c -23.245,-8.716 -83.637,-27.35 -177.08,-28.296 -0.134,-31.924 -0.047,-163.943 0.046,-255.91 0.017,-0.207 0.032,-0.415 0.032,-0.627 0,-0.203 -0.015,-0.403 -0.03,-0.602 C 46.976,90.577 46.985,82.585 46.993,75.04 146.035,76.1 207.749,97.951 224,104.469 Z M 15,379.5 v -264 c 0,-4.687 3.813,-8.5 8.5,-8.5 h 8.459 c -0.027,28.295 -0.062,68.323 -0.084,108.371 -0.021,36.981 -0.031,73.975 -0.016,101.742 0.008,13.89 0.022,25.473 0.044,33.593 0.012,4.073 0.025,7.277 0.041,9.469 0.034,4.673 0.046,6.421 2.249,8.625 1.407,1.408 3.316,2.2 5.307,2.2 64.093,0 113.209,8.753 145.26,17 H 23.5 c -4.687,0 -8.5,-3.813 -8.5,-8.5 z m 433,0 c 0,4.687 -3.813,8.5 -8.5,8.5 H 278.319 c 32.002,-8.247 81.041,-17 145.033,-17 1.991,0 3.9,-0.792 5.307,-2.2 2.202,-2.204 2.215,-3.952 2.249,-8.625 0.016,-2.191 0.029,-5.396 0.041,-9.469 0.023,-8.12 0.037,-19.703 0.045,-33.593 0.016,-27.768 0.005,-64.76 -0.016,-101.742 -0.023,-40.048 -0.057,-80.076 -0.085,-108.371 h 8.608 c 4.687,0 8.5,3.813 8.5,8.5 v 264 z"
               style="fill:#ffffff;fill-opacity:1;stroke-width:2.52037477;stroke-miterlimit:4;stroke-dasharray:none"
               id="path1057" />
            <path
               style="fill:#ffffff;fill-opacity:1"
               id="path1059"
               d="m 201.594,288.271 c -15.129,-4.423 -31.535,-8.241 -48.763,-11.349 -4.079,-0.734 -7.978,1.974 -8.712,6.05 -0.735,4.076 1.973,7.977 6.049,8.712 16.709,3.014 32.595,6.709 47.217,10.983 0.703,0.206 1.411,0.304 2.108,0.304 3.246,0 6.238,-2.125 7.195,-5.397 1.162,-3.975 -1.119,-8.14 -5.094,-9.303 z"
               inkscape:connector-curvature="0" />
            <path
               style="fill:#ffffff;fill-opacity:1"
               id="path1061"
               d="m 71.158,282.992 c 16.106,0.739 32.065,2.065 47.434,3.939 0.308,0.038 0.615,0.057 0.917,0.057 3.737,0 6.972,-2.789 7.436,-6.593 0.501,-4.111 -2.425,-7.852 -6.537,-8.353 -15.741,-1.921 -32.08,-3.278 -48.563,-4.035 -4.123,-0.155 -7.646,3.011 -7.836,7.148 -0.189,4.139 3.011,7.647 7.149,7.837 z"
               inkscape:connector-curvature="0" />
            <path
               style="fill:#ffffff;fill-opacity:1"
               id="path1063"
               d="m 201.593,320.271 c -24.64,-7.201 -51.954,-12.661 -81.184,-16.228 -4.113,-0.509 -7.851,2.425 -8.353,6.536 -0.501,4.111 2.425,7.852 6.537,8.353 28.423,3.469 54.933,8.763 78.792,15.737 0.703,0.205 1.411,0.303 2.107,0.303 3.246,0 6.239,-2.125 7.195,-5.397 1.163,-3.977 -1.118,-8.142 -5.094,-9.304 z"
               inkscape:connector-curvature="0" />
            <path
               style="fill:#ffffff;fill-opacity:1"
               id="path1065"
               d="m 71.158,314.992 c 5.275,0.242 10.599,0.551 15.823,0.916 0.178,0.013 0.355,0.019 0.532,0.019 3.903,0 7.197,-3.022 7.474,-6.977 0.29,-4.132 -2.826,-7.716 -6.958,-8.005 -5.343,-0.374 -10.788,-0.689 -16.182,-0.938 -4.124,-0.147 -7.646,3.011 -7.836,7.148 -0.191,4.139 3.009,7.647 7.147,7.837 z"
               inkscape:connector-curvature="0" />
            <path
               style="fill:#ffffff;fill-opacity:1"
               id="path1067"
               d="m 197.385,270.669 c 0.702,0.205 1.411,0.303 2.107,0.303 3.246,0 6.239,-2.124 7.195,-5.397 1.162,-3.976 -1.119,-8.141 -5.095,-9.304 -5.233,-1.529 -10.708,-3.01 -16.271,-4.4 -4.014,-1.003 -8.09,1.439 -9.095,5.458 -1.004,4.019 1.439,8.091 5.458,9.095 5.374,1.342 10.656,2.77 15.701,4.245 z"
               inkscape:connector-curvature="0" />
            <path
               style="fill:#ffffff;fill-opacity:1"
               id="path1069"
               d="m 71.158,250.992 c 27.421,1.258 54.004,4.183 79.011,8.692 0.45,0.081 0.898,0.12 1.34,0.12 3.559,0 6.718,-2.544 7.372,-6.17 0.735,-4.076 -1.973,-7.977 -6.05,-8.712 -25.656,-4.627 -52.904,-7.627 -80.985,-8.915 -4.123,-0.164 -7.646,3.011 -7.836,7.148 -0.19,4.139 3.011,7.648 7.148,7.837 z"
               inkscape:connector-curvature="0" />
            <path
               style="fill:#ffffff;fill-opacity:1"
               id="path1071"
               d="m 263.497,142.972 c 0.696,0 1.405,-0.098 2.107,-0.303 21.573,-6.306 45.426,-11.258 70.896,-14.719 4.104,-0.558 6.979,-4.337 6.422,-8.441 -0.558,-4.104 -4.334,-6.979 -8.441,-6.422 -26.208,3.562 -50.797,8.67 -73.084,15.184 -3.976,1.162 -6.257,5.327 -5.095,9.304 0.956,3.273 3.948,5.397 7.195,5.397 z"
               inkscape:connector-curvature="0" />
            <path
               style="fill:#ffffff;fill-opacity:1"
               id="path1073"
               d="m 367.479,124.538 c 0.207,0 0.416,-0.008 0.626,-0.025 7.802,-0.645 15.785,-1.156 23.727,-1.521 4.138,-0.189 7.338,-3.698 7.148,-7.836 -0.19,-4.138 -3.695,-7.322 -7.836,-7.148 -8.124,0.373 -16.291,0.896 -24.275,1.556 -4.128,0.341 -7.198,3.964 -6.857,8.092 0.324,3.918 3.604,6.882 7.467,6.882 z"
               inkscape:connector-curvature="0" />
            <path
               style="fill:#ffffff;fill-opacity:1"
               id="path1075"
               d="m 263.497,206.972 c 0.697,0 1.405,-0.098 2.108,-0.303 14.623,-4.275 30.509,-7.971 47.217,-10.984 4.076,-0.735 6.785,-4.636 6.049,-8.712 -0.735,-4.077 -4.636,-6.783 -8.712,-6.05 -17.227,3.107 -33.633,6.926 -48.763,11.348 -3.976,1.163 -6.256,5.328 -5.094,9.304 0.956,3.273 3.948,5.397 7.195,5.397 z"
               inkscape:connector-curvature="0" />
            <path
               style="fill:#ffffff;fill-opacity:1"
               id="path1077"
               d="m 391.144,172.008 c -16.483,0.757 -32.822,2.114 -48.563,4.035 -4.112,0.501 -7.038,4.241 -6.537,8.353 0.464,3.804 3.698,6.593 7.436,6.593 0.303,0 0.609,-0.019 0.917,-0.057 15.368,-1.874 31.327,-3.2 47.434,-3.939 4.138,-0.19 7.338,-3.698 7.148,-7.836 -0.189,-4.139 -3.712,-7.33 -7.835,-7.149 z"
               inkscape:connector-curvature="0" />
            <path
               style="fill:#ffffff;fill-opacity:1"
               id="path1079"
               d="m 263.497,174.972 c 0.697,0 1.405,-0.098 2.107,-0.303 5.042,-1.475 10.324,-2.902 15.7,-4.246 4.019,-1.005 6.462,-5.076 5.458,-9.095 -1.004,-4.019 -5.08,-6.464 -9.095,-5.458 -5.566,1.392 -11.041,2.872 -16.271,4.4 -3.976,1.163 -6.257,5.328 -5.095,9.304 0.957,3.274 3.949,5.398 7.196,5.398 z"
               inkscape:connector-curvature="0" />
            <path
               style="fill:#ffffff;fill-opacity:1"
               id="path1081"
               d="m 391.144,140.008 c -28.081,1.288 -55.329,4.288 -80.986,8.915 -4.077,0.735 -6.785,4.636 -6.05,8.712 0.654,3.627 3.813,6.17 7.372,6.17 0.442,0 0.89,-0.039 1.34,-0.12 25.007,-4.51 51.59,-7.435 79.011,-8.692 4.138,-0.189 7.338,-3.698 7.148,-7.836 -0.189,-4.138 -3.694,-7.335 -7.835,-7.149 z"
               inkscape:connector-curvature="0" />
            <path
               style="fill:#ffffff;fill-opacity:1"
               id="path1083"
               d="m 263.497,238.972 c 0.697,0 1.405,-0.098 2.108,-0.303 23.858,-6.975 50.37,-12.27 78.799,-15.738 4.112,-0.501 7.038,-4.241 6.537,-8.353 -0.501,-4.112 -4.243,-7.044 -8.353,-6.536 -29.236,3.566 -56.553,9.027 -81.191,16.229 -3.976,1.163 -6.256,5.328 -5.094,9.304 0.955,3.273 3.947,5.397 7.194,5.397 z"
               inkscape:connector-curvature="0" />
            <path
               style="fill:#ffffff;fill-opacity:1"
               id="path1085"
               d="m 391.144,204.008 c -5.417,0.249 -10.858,0.563 -16.173,0.937 -4.132,0.289 -7.247,3.874 -6.957,8.006 0.277,3.953 3.57,6.976 7.474,6.976 0.176,0 0.354,-0.006 0.532,-0.019 5.195,-0.364 10.515,-0.672 15.813,-0.915 4.138,-0.19 7.338,-3.698 7.148,-7.836 -0.191,-4.139 -3.712,-7.335 -7.837,-7.149 z"
               inkscape:connector-curvature="0" />
            <path
               style="fill:#ffffff;fill-opacity:1"
               id="path1087"
               d="m 256.301,297.574 c 0.957,3.273 3.949,5.397 7.195,5.397 0.697,0 1.405,-0.098 2.108,-0.303 14.623,-4.275 30.509,-7.971 47.217,-10.984 4.076,-0.735 6.785,-4.636 6.049,-8.712 -0.735,-4.077 -4.636,-6.782 -8.712,-6.05 -17.227,3.107 -33.633,6.926 -48.763,11.348 -3.975,1.164 -6.256,5.329 -5.094,9.304 z"
               inkscape:connector-curvature="0" />
            <path
               style="fill:#ffffff;fill-opacity:1"
               id="path1089"
               d="m 391.144,268.008 c -16.483,0.757 -32.822,2.114 -48.563,4.035 -4.112,0.501 -7.038,4.241 -6.537,8.353 0.464,3.804 3.698,6.593 7.436,6.593 0.303,0 0.609,-0.019 0.917,-0.057 15.368,-1.874 31.327,-3.2 47.434,-3.939 4.138,-0.19 7.338,-3.698 7.148,-7.836 -0.189,-4.138 -3.712,-7.315 -7.835,-7.149 z"
               inkscape:connector-curvature="0" />
            <path
               style="fill:#ffffff;fill-opacity:1"
               id="path1091"
               d="m 342.58,304.043 c -29.23,3.566 -56.544,9.026 -81.184,16.228 -3.976,1.162 -6.257,5.327 -5.095,9.304 0.957,3.273 3.949,5.397 7.195,5.397 0.697,0 1.405,-0.098 2.107,-0.303 23.86,-6.975 50.369,-12.269 78.792,-15.737 4.112,-0.501 7.038,-4.241 6.537,-8.353 -0.501,-4.112 -4.244,-7.047 -8.352,-6.536 z"
               inkscape:connector-curvature="0" />
            <path
               style="fill:#ffffff;fill-opacity:1"
               id="path1093"
               d="m 391.144,300.008 c -5.394,0.248 -10.838,0.563 -16.183,0.938 -4.132,0.289 -7.247,3.873 -6.958,8.005 0.277,3.954 3.57,6.977 7.474,6.977 0.176,0 0.354,-0.006 0.532,-0.019 5.226,-0.365 10.549,-0.674 15.823,-0.916 4.138,-0.19 7.338,-3.698 7.148,-7.836 -0.19,-4.138 -3.713,-7.31 -7.836,-7.149 z"
               inkscape:connector-curvature="0" />
            <path
               style="fill:#ffffff;fill-opacity:1"
               id="path1095"
               d="m 263.497,270.972 c 0.697,0 1.405,-0.098 2.107,-0.303 5.042,-1.475 10.324,-2.902 15.7,-4.246 4.019,-1.005 6.462,-5.076 5.458,-9.095 -1.004,-4.019 -5.08,-6.461 -9.095,-5.458 -5.566,1.392 -11.041,2.872 -16.271,4.4 -3.976,1.163 -6.257,5.328 -5.095,9.304 0.957,3.274 3.949,5.398 7.196,5.398 z"
               inkscape:connector-curvature="0" />
            <path
               style="fill:#ffffff;fill-opacity:1"
               id="path1097"
               d="m 391.144,236.008 c -28.081,1.288 -55.329,4.288 -80.986,8.915 -4.077,0.735 -6.785,4.636 -6.05,8.712 0.654,3.627 3.813,6.17 7.372,6.17 0.442,0 0.89,-0.039 1.34,-0.12 25.007,-4.51 51.59,-7.435 79.011,-8.692 4.138,-0.189 7.338,-3.698 7.148,-7.836 -0.189,-4.138 -3.694,-7.32 -7.835,-7.149 z"
               inkscape:connector-curvature="0" />
            <path
               inkscape:connector-curvature="0"
               d="m 200.94935,242.59976 c 0.702,0.205 1.411,0.303 2.107,0.303 3.246,0 6.239,-2.124 7.195,-5.397 1.162,-3.976 -1.119,-8.141 -5.095,-9.304 -5.233,-1.529 -10.708,-3.01 -16.271,-4.4 -4.014,-1.003 -8.09,1.439 -9.095,5.458 -1.004,4.019 1.439,8.091 5.458,9.095 5.374,1.342 10.656,2.77 15.701,4.245 z"
               id="path1099"
               style="fill:#ffffff;fill-opacity:1" />
            <path
               inkscape:connector-curvature="0"
               d="m 79.177783,223.28917 c 16.106,0.739 32.064997,2.065 47.433997,3.939 0.308,0.038 0.615,0.057 0.917,0.057 3.737,0 6.972,-2.789 7.436,-6.593 0.501,-4.111 -2.425,-7.852 -6.537,-8.353 -15.741,-1.921 -32.079997,-3.278 -48.562997,-4.035 -4.123,-0.155 -7.646,3.011 -7.836,7.148 -0.189,4.139 3.011,7.647 7.149,7.837 z"
               id="path1101"
               style="fill:#ffffff;fill-opacity:1" />
          </g>
          <g
             style="fill:#ffffff;fill-opacity:1"
             id="g1105" />
          <g
             style="fill:#ffffff;fill-opacity:1"
             id="g1107" />
          <g
             style="fill:#ffffff;fill-opacity:1"
             id="g1109" />
          <g
             style="fill:#ffffff;fill-opacity:1"
             id="g1111" />
          <g
             style="fill:#ffffff;fill-opacity:1"
             id="g1113" />
          <g
             style="fill:#ffffff;fill-opacity:1"
             id="g1115" />
          <g
             style="fill:#ffffff;fill-opacity:1"
             id="g1117" />
          <g
             style="fill:#ffffff;fill-opacity:1"
             id="g1119" />
          <g
             style="fill:#ffffff;fill-opacity:1"
             id="g1121" />
          <g
             style="fill:#ffffff;fill-opacity:1"
             id="g1123" />
          <g
             style="fill:#ffffff;fill-opacity:1"
             id="g1125" />
          <g
             style="fill:#ffffff;fill-opacity:1"
             id="g1127" />
          <g
             style="fill:#ffffff;fill-opacity:1"
             id="g1129" />
          <g
             style="fill:#ffffff;fill-opacity:1"
             id="g1131" />
          <g
             style="fill:#ffffff;fill-opacity:1"
             id="g1133" />
        </g>
        <g
           style="fill:#ffffff;fill-opacity:1"
           transform="matrix(0.12125041,0.03248895,-0.03248895,0.12125041,122.19299,81.746898)"
           id="g1141">
          <path
             sodipodi:nodetypes="ccccccccczccccccccccccccccccccccccccccc"
             d="m 126.38276,47.673927 c -0.62177,-1.07766 -1.90538,-1.055079 -3.84953,0.06736 -2.41289,1.393023 -5.192,4.153207 -8.3374,8.280453 -3.15904,4.103891 -5.28753,7.909536 -6.38556,11.416991 -0.65821,2.160275 -1.00858,4.096022 -1.05125,5.807251 -0.0574,1.688274 0.18466,3.00098 0.72553,3.937922 0.54097,0.936991 1.27884,1.619734 2.21371,2.04822 1.67421,0.844884 4.14363,0.496624 7.40827,-1.044672 0.36553,-0.179783 0.92258,-0.486552 1.67096,-0.918487 0.7494,-0.432671 0.66287,-0.420487 2.90415,-2.191824 2.2409,-1.771197 7.99023,-1.762121 -2.93875,4.227232 -2.9047,1.676934 -5.6941,2.14736 -8.368,1.411115 -1.75993,-0.451733 -3.1741,-1.602926 -4.24251,-3.453628 -0.92009,-1.592766 -1.40128,-3.375925 -1.44449,-5.349188 -0.17329,-4.89744 1.36824,-10.206951 4.62454,-15.928497 1.91741,-3.387059 3.87325,-6.031125 5.86782,-7.932264 1.31339,-1.133209 2.63778,-2.085205 3.97305,-2.855956 1.33527,-0.770913 2.67054,-1.136317 4.0057,-1.096316 1.42251,0.08448 2.49222,0.747428 3.20908,1.988973 0.46029,0.796386 0.73284,1.810088 0.81932,3.040694 0.0162,0.363304 -0.0379,0.487636 -0.15813,0.372563 -0.12184,-0.115938 -0.20902,-0.346353 -0.2648,-0.690373 -0.0325,-0.385776 -0.16029,-0.76604 -0.38447,-1.138538 z m -4.07941,12.896445 c 0.23502,0.08296 0.38556,0.183249 0.45217,0.300596 0.0585,0.09238 0.0937,0.181516 0.11534,0.263448 -0.0325,0.267942 -0.29296,0.387508 -0.77788,0.355938 -1.13437,-0.125794 -2.57995,0.318412 -4.33695,1.332736 -2.17869,1.257829 -4.1648,2.794938 -5.95836,4.611324 -0.76532,0.78508 -1.32303,1.278942 -1.67426,1.481978 -0.53881,0.311101 -1.03116,0.267888 -1.47964,-0.129422 -0.0379,-0.0092 -0.0671,-0.03899 -0.10235,-0.0841 -0.14837,-0.257762 -0.10505,-0.689751 0.1408,-1.299 0.24206,-0.60809 0.91613,-1.387803 2.02272,-2.339117 0.66585,-0.634023 1.48972,-1.234792 2.47306,-1.802529 0.98371,-0.568001 2.09057,-1.113216 3.31911,-1.635384 2.61206,-1.102077 4.54803,-1.454599 5.80798,-1.057505 z"
             style="font-style:normal;font-variant:normal;font-weight:normal;font-stretch:normal;font-size:medium;line-height:1.25;font-family:Arizonia;-inkscape-font-specification:Arizonia;letter-spacing:0px;word-spacing:0px;fill:#ffffff;fill-opacity:1;stroke:none;stroke-width:5.07165527"
             id="path1137"
             inkscape:connector-curvature="0" />
          <path
             d="m 124.66105,72.535888 q -0.0596,0.274549 -0.15108,0.294206 -0.0861,0.01841 -0.13538,-0.2087 -0.28484,-1.317915 2.33838,-8.545087 2.61839,-7.249878 3.63286,-9.157997 0.18737,-1.990938 0.81499,-2.721264 0.13429,-0.147888 0.45379,-0.216986 0.34007,-0.0737 1.13198,0.06444 0.81428,0.133158 0.90266,0.542182 0.0433,0.181624 -0.11264,0.3574 -0.83643,1.084663 -0.88803,3.593312 -0.0542,2.508682 0.48411,4.985436 0.63878,2.953943 1.67914,4.465293 0.41101,-2.610108 2.51956,-8.917254 2.12659,-6.334819 2.5128,-6.418337 0.0217,-0.0046 0.19928,-0.06709 0.68442,-0.243519 0.72877,-0.03899 0.0162,0.09135 -0.0801,0.39796 -1.66414,3.523316 -3.29388,8.085741 -1.62975,4.562403 -2.2512,7.408309 0.6163,0.65165 1.29423,0.814299 0.30216,0.07744 0.5524,0.02329 0.25072,-0.05426 0.36661,-0.174801 0.12184,-0.09715 0.17166,-0.08421 0.0541,0.03574 0.0666,0.104405 0.0162,0.06753 -0.0162,0.122707 -0.43971,0.499386 -0.87087,0.592646 -1.36337,0.294802 -2.59781,-0.793998 -1.23937,-1.111537 -2.13916,-2.962499 -0.89945,-1.851021 -1.27776,-3.600676 -0.42238,-1.954164 -0.41372,-4.001572 -1.71877,3.820543 -3.42108,8.707861 -1.70713,4.864564 -2.19287,7.348131 z"
             style="font-style:normal;font-variant:normal;font-weight:normal;font-stretch:normal;font-size:medium;line-height:1.25;font-family:Arizonia;-inkscape-font-specification:Arizonia;letter-spacing:0px;word-spacing:0px;fill:#ffffff;fill-opacity:1;stroke:none;stroke-width:2.90598917"
             id="path1139"
             inkscape:connector-curvature="0" />
        </g>
      </g>
    </g>
  </g>
</svg>
