<svg height="100" viewBox="0 0 100 100" width="100" xmlns="http://www.w3.org/2000/svg" xmlns:xlink="http://www.w3.org/1999/xlink"><clipPath id="a"><path d="m319.88333 189.94289a23.185968 23.185968 0 0 1 -11.59299 20.07963 23.185968 23.185968 0 0 1 -23.18597 0 23.185968 23.185968 0 0 1 -11.59298-20.07963"/></clipPath><g transform="matrix(1.7428651 0 0 1.7428651 0 65.1427)"><circle cx="28.688391" cy="-8.688397" fill="none" r="25.790255" stroke="#fcd198" stroke-width=".914925"/><g fill="#fcd198" transform="matrix(.91492455 0 0 .91492455 -240.62262 -185.71746)"><path clip-path="url(#a)" d="m283.11481 207.01529h29.37001v6.48934h-29.37001z" stroke="#fcd198" stroke-width=".436242" transform="matrix(1.1923412 0 0 1.1923412 -59.398399 -32.556121)"/><path d="m308.47794 198.04857 2.0833-5.45666c.34867-.91525-.32252-1.89152-1.30751-1.89152h-5.09927c.95884-1.64746 1.55157-3.53899 1.55157-5.5787v-.0262c3.41695-.6799 5.57869-1.66489 5.57869-2.76319 0-1.15932-2.37966-2.1879-6.11041-2.87651-.80193-2.85908-2.35351-5.7356-3.53898-7.21744-.82809-1.03729-2.25763-1.3598-3.4431-.76707l-2.40581 1.20291c-.7845.39225-1.70848.39225-2.49298 0l-2.40581-1.20291c-1.18547-.59273-2.61501-.27022-3.4431.76707-1.17675 1.48184-2.73705 4.35836-3.53898 7.21744-3.72204.68861-6.1017 1.71719-6.1017 2.87651 0 1.0983 2.16175 2.08329 5.5787 2.76319v.0262c0 2.03971.59273 3.93124 1.55157 5.5787h-5.01211c-1.00242 0-1.67361 1.01985-1.28135 1.94382l2.24891 5.24746c-3.4954 2.03099-5.87506 5.77046-5.87506 10.10266v3.90509c0 2.15302 1.75205 3.90508 3.90508 3.90508h31.24068c2.15303 0 3.90508-1.75206 3.90508-3.90508v-3.90509c0-4.21888-2.24891-7.8799-5.58741-9.94576zm-18.12203 14.96659-3.62615-16.73608 4.32349 2.78935 2.09201 3.48668zm8.36804 0-2.78935-10.46005 2.09201-3.48668 4.32349-2.78935zm3.63487-26.01937c-.33996 1.03728-.61017 2.14431-1.43826 2.91138-.88039.81065-4.18402 1.95254-5.57869-2.17918-.24407-.7322-1.34238-.7322-1.59516 0-1.48184 4.37579-4.88136 2.82421-5.57869 2.17918-.82809-.76707-1.10702-1.8741-1.43826-2.91138-.0697-.21792-.54915-.49686-.54915-.50557v-.94141c2.46683.3138 5.31719.50557 8.36804.50557 3.05084 0 5.90121-.18305 8.36804-.50557v.94141c-.009.009-.48814.27893-.55787.50557z" stroke-width=".087167"/></g><path d="m0-37.376789h57.376789v57.376789h-57.376789z" fill="none"/></g></svg>