<svg height="100" viewBox="0 0 26.458334 26.458336" width="100" xmlns="http://www.w3.org/2000/svg" xmlns:xlink="http://www.w3.org/1999/xlink"><linearGradient id="a" gradientUnits="userSpaceOnUse" x1="1.03600160271" x2="12.12099317337" y1="7.14961072339" y2="7.14961072339"><stop offset="0" stop-color="#071e25"/><stop offset=".46850538" stop-color="#061317"/><stop offset=".69160116" stop-color="#040e16"/><stop offset=".90158319" stop-color="#030c14"/><stop offset="1" stop-color="#030a16"/></linearGradient><g transform="scale(2)"><path d="m0 0h13.229167v13.229167h-13.229167z" fill="none" stroke-width=".239955"/><g transform="translate(.036085 -.535027)"><circle cx="6.578499" cy="7.149611" fill="url(#a)" r="5.31308" stroke="#fcd198" stroke-width=".229417"/><path d="m3.3711477 6.6914173c.5054438 0 .9163861-.4109415.9163861-.9163853 0-.5054446-.4109423-.916387-.9163861-.916387-.5054447 0-.9163862.4109424-.9163862.916387 0 .5054438.4109415.9163853.9163862.9163853zm6.4147019 0c.5054444 0 .9163874-.4109415.9163874-.9163853 0-.5054446-.410943-.916387-.9163874-.916387-.5054438 0-.9163852.4109424-.9163852.916387 0 .5054438.4109414.9163853.9163852.9163853zm.4581934.4581935h-.9163851c-.2520066 0-.4796722.1016619-.6457667.2663239.5770368.31644.9865467.8877496 1.075321 1.5664483h.9450248c.253438 0 .458193-.2047554.458193-.4581935v-.4581917c0-.5054456-.410943-.916387-.916387-.916387zm-3.6655444 0c.8863172 0 1.603676-.7173588 1.603676-1.6036751 0-.8863172-.7173588-1.6036759-1.603676-1.6036759-.8863163 0-1.603675.7173587-1.603675 1.6036759 0 .8863163.7173587 1.6036751 1.603675 1.6036751zm1.0996637.4581935h-.1188433c-.2978261.143185-.6285843.2290963-.9808204.2290963-.3522351 0-.6815609-.085911-.9808195-.2290963h-.1188433c-.9106581 0-1.6494955.7388356-1.6494955 1.6494938v.4123747c0 .3794402.307848.6872892.6872898.6872892h4.1237379c.379441 0 .6872899-.307849.6872899-.6872892v-.4123747c0-.9106582-.7388375-1.6494938-1.6494956-1.6494938zm-3.2030554-.1918696c-.1660953-.164662-.3937601-.2663239-.6457666-.2663239h-.9163853c-.5054438 0-.916387.4109414-.916387.916387v.4581917c0 .2534381.2047554.4581935.4581935.4581935h.9435911c.0902076-.6786987.4997175-1.2500083 1.0767543-1.5664483z" fill="#fcd198" stroke-width=".014318"/></g></g></svg>