<svg height="100" viewBox="0 0 26.458334 26.458336" width="100" xmlns="http://www.w3.org/2000/svg" xmlns:xlink="http://www.w3.org/1999/xlink"><linearGradient id="a" gradientUnits="userSpaceOnUse" x1="-20.193609" x2="-8.176391" y1="10.298163" y2="10.298163"><stop offset="0" stop-color="#071e25"/><stop offset=".46850538" stop-color="#061317"/><stop offset=".69160116" stop-color="#040e16"/><stop offset=".90158319" stop-color="#030c14"/><stop offset="1" stop-color="#030a16"/></linearGradient><g transform="matrix(.50000001 0 0 .50000001 0 13.229168)"><path d="m0-26.458335h52.916672v52.916672h-52.916672z" fill="none" opacity="0"/><g stroke="#fcd198" transform="matrix(3.7493948 0 0 3.7493948 79.643498 -38.50776)"><circle cx="-14.184999" cy="10.298163" fill="url(#a)" r="5.82043" stroke-linecap="round" stroke-width=".376357"/><g transform="translate(-1.068442 -1.661051)"><path d="m-14.884045 15.332796-1.772187.966669c-.103996.0567-.197458.126408-.28442.202388 1.033235.871189 2.367026 1.396771 3.824312 1.396771 1.446528 0 2.771803-.517738 3.8021232-1.377048-.095031-.08024-.19813-.152408-.3124356-.209336l-1.8976996-.948738c-.245197-.122598-.40007-.373175-.40007-.647284v-.744557c.05334-.06074.114305-.138736.179527-.230852.258645-.365331.454309-.767194.589907-1.18878.243404-.07508.422707-.299885.422707-.567046v-.794762c0-.17482-.07777-.331038-.198578-.440413v-1.1488848s.236008-1.7878765-2.185257-1.7878765-2.185257 1.7878765-2.185257 1.7878765v1.1488848c-.12103.109375-.198578.265593-.198578.440413v.794762c0 .209336.110047.39357.274782.500031.198578.864466.718557 1.486647.718557 1.486647v.726178c-.000224.264472-.145011.5081-.377433.634957zm-2.404778-5.865925.124881.029269v1.139532c-.136588.08195-.23415.224396-.23415.396105 0 .163905.08976.300493.216589.384398l-.304396 1.215632c-.03317.134638.04098.273175.148296.273175h.815625c.107319 0 .181467-.138537.148295-.273175l-.304396-1.215632c.126832-.08391.21659-.220493.21659-.384398 0-.171709-.09756-.314152-.234151-.396105v-1.0263605s5.620808.4109645 7.6157517-.1424405c.074867-.020767 0-.6146467 0-.6146467l-3.7151917-1.7227181c-.253663-.060489-.520985-.060489-.774648 0l-3.719095 1.7207665c-.353176.085857-.353176.5307418 0 .6165983z" fill="#fcd198" stroke-width=".224129"/><path d="m26.953 1.004c-14.633-.25-26.699 11.41-26.949 26.043-.142 8.297 3.556 15.754 9.444 20.713.385-.336.798-.644 1.257-.894l7.907-4.313c1.037-.566 1.683-1.653 1.683-2.835v-3.24s-2.321-2.776-3.206-6.633c-.734-.475-1.226-1.296-1.226-2.231v-3.546c0-.78.347-1.477.886-1.965v-5.126s-1.053-7.977 9.75-7.977 9.75 7.977 9.75 7.977v5.126c.54.488.886 1.185.886 1.965v3.546c0 1.192-.8 2.195-1.886 2.53-.605 1.881-1.478 3.674-2.632 5.304-.291.411-.563.759-.801 1.03v3.322c0 1.223.691 2.342 1.785 2.888l8.467 4.233c.508.254.967.575 1.39.932 5.71-4.762 9.399-11.882 9.536-19.9.252-14.633-11.407-26.699-26.041-26.949z" fill="none" transform="matrix(.22412893 0 0 .22412893 -19.055757 5.795662)"/></g></g></g></svg>