<?xml version="1.0" encoding="UTF-8" standalone="no"?>
<svg
   xmlns:dc="http://purl.org/dc/elements/1.1/"
   xmlns:cc="http://creativecommons.org/ns#"
   xmlns:rdf="http://www.w3.org/1999/02/22-rdf-syntax-ns#"
   xmlns:svg="http://www.w3.org/2000/svg"
   xmlns="http://www.w3.org/2000/svg"
   xmlns:sodipodi="http://sodipodi.sourceforge.net/DTD/sodipodi-0.dtd"
   xmlns:inkscape="http://www.inkscape.org/namespaces/inkscape"
   viewBox="0 0 57.349594 52.999947"
   version="1.1"
   id="svg4"
   sodipodi:docname="cubes.svg"
   width="57.349594"
   height="52.999947"
   inkscape:version="0.92.4 (5da689c313, 2019-01-14)">
  <metadata
     id="metadata10">
    <rdf:RDF>
      <cc:Work
         rdf:about="">
        <dc:format>image/svg+xml</dc:format>
        <dc:type
           rdf:resource="http://purl.org/dc/dcmitype/StillImage" />
        <dc:title></dc:title>
      </cc:Work>
    </rdf:RDF>
  </metadata>
  <defs
     id="defs8" />
  <sodipodi:namedview
     pagecolor="#ffffff"
     bordercolor="#666666"
     borderopacity="1"
     objecttolerance="10"
     gridtolerance="10"
     guidetolerance="10"
     inkscape:pageopacity="0"
     inkscape:pageshadow="2"
     inkscape:window-width="1366"
     inkscape:window-height="706"
     id="namedview6"
     showgrid="false"
     fit-margin-top="0"
     fit-margin-left="0"
     fit-margin-right="0"
     fit-margin-bottom="0"
     inkscape:zoom="5.2149125"
     inkscape:cx="12.667384"
     inkscape:cy="14.638952"
     inkscape:window-x="0"
     inkscape:window-y="344"
     inkscape:window-maximized="1"
     inkscape:current-layer="svg4" />
  <g
     id="g856"
     transform="translate(-0.4087491,3.2246156)">
    <path
       sodipodi:nodetypes="cccccccccccccccccccccccccccccccccccccccccccccccccccccccccc"
       style="fill:#fcd198;fill-opacity:1;stroke:none;stroke-width:0.08182356;stroke-opacity:1"
       inkscape:connector-curvature="0"
       id="path2"
       d="M 48.11571,22.862148 40.211545,19.900133 V 11.022278 L 38.296879,8.2648229 30.11452,5.1964413 h -2.07013 l -8.18236,3.0683816 -1.914667,2.7574551 v 8.877855 l -7.904155,2.962015 -1.9064927,2.757454 v 9.008774 l 1.6282891,2.634717 8.1823586,4.091181 h 2.634713 l 8.50147,-4.254828 8.50147,4.254828 h 2.634713 l 8.18236,-4.091181 1.628288,-2.634717 v -9.008774 z m -10.686157,-2.896553 -6.955006,2.610171 v -5.580368 l 6.955006,-3.027471 z m -16.692014,-9.057871 8.346007,-3.1256598 8.346007,3.1256598 v 0.04909 l -8.346007,3.387498 -8.346007,-3.387498 z m 6.873183,23.818842 -6.955006,3.4775 v -6.472243 l 6.955006,-3.174754 z m 0,-9.164239 -8.346007,3.387495 -8.345998,-3.387495 v -0.0491 l 8.345998,-3.125658 8.346007,3.125658 z m 19.637653,9.164239 -6.954997,3.4775 v -6.472243 l 6.954997,-3.174754 z m 0,-9.164239 -8.345998,3.387495 -8.346007,-3.387495 v -0.0491 l 8.346007,-3.125658 8.345998,3.125658 z" />
    <rect
       style="opacity:1;fill:none;fill-opacity:1;stroke:none;stroke-width:0.322;stroke-linecap:round;stroke-linejoin:miter;stroke-miterlimit:4;stroke-dasharray:none;stroke-dashoffset:0;stroke-opacity:1;paint-order:stroke fill markers"
       id="rect833"
       width="57.349594"
       height="52.999947"
       x="0.4087491"
       y="-3.2246156" />
  </g>
</svg>
