<?xml version="1.0" encoding="UTF-8" standalone="no"?>
<!-- Created with Inkscape (http://www.inkscape.org/) -->

<svg
   xmlns:dc="http://purl.org/dc/elements/1.1/"
   xmlns:cc="http://creativecommons.org/ns#"
   xmlns:rdf="http://www.w3.org/1999/02/22-rdf-syntax-ns#"
   xmlns:svg="http://www.w3.org/2000/svg"
   xmlns="http://www.w3.org/2000/svg"
   xmlns:sodipodi="http://sodipodi.sourceforge.net/DTD/sodipodi-0.dtd"
   xmlns:inkscape="http://www.inkscape.org/namespaces/inkscape"
   width="114.70153"
   height="114.70153"
   viewBox="0 0 30.348114 30.348114"
   version="1.1"
   id="svg8"
   inkscape:version="0.92.4 (5da689c313, 2019-01-14)"
   sodipodi:docname="elimu_nasi icon.svg">
  <defs
     id="defs2" />
  <sodipodi:namedview
     id="base"
     pagecolor="#ffffff"
     bordercolor="#666666"
     borderopacity="1.0"
     inkscape:pageopacity="0.0"
     inkscape:pageshadow="2"
     inkscape:zoom="5.6568544"
     inkscape:cx="30.461898"
     inkscape:cy="55.594661"
     inkscape:document-units="px"
     inkscape:current-layer="layer1"
     showgrid="false"
     units="px"
     inkscape:pagecheckerboard="true"
     inkscape:window-width="1920"
     inkscape:window-height="1050"
     inkscape:window-x="1366"
     inkscape:window-y="0"
     inkscape:window-maximized="1"
     inkscape:snap-bbox="true"
     inkscape:bbox-paths="true"
     inkscape:bbox-nodes="true"
     inkscape:snap-bbox-edge-midpoints="true"
     inkscape:snap-bbox-midpoints="true"
     inkscape:snap-page="true"
     inkscape:snap-global="false"
     inkscape:object-paths="true"
     inkscape:snap-intersection-paths="true"
     inkscape:snap-smooth-nodes="true"
     inkscape:measure-start="0,0"
     inkscape:measure-end="0,0"
     fit-margin-top="0"
     fit-margin-left="0"
     fit-margin-right="0"
     fit-margin-bottom="0"
     showguides="true"
     inkscape:guide-bbox="true" />
  <metadata
     id="metadata5">
    <rdf:RDF>
      <cc:Work
         rdf:about="">
        <dc:format>image/svg+xml</dc:format>
        <dc:type
           rdf:resource="http://purl.org/dc/dcmitype/StillImage" />
        <dc:title />
      </cc:Work>
    </rdf:RDF>
  </metadata>
  <g
     inkscape:label="Layer 1"
     inkscape:groupmode="layer"
     id="layer1"
     transform="translate(14.342495,-210.00285)">
    <g
       transform="matrix(1.0266611,0,0,1.0266611,9.810578,14.401716)"
       inkscape:export-ydpi="879.89136"
       inkscape:export-xdpi="879.89136"
       id="g1162"
       style="fill:#fcd198;fill-opacity:1">
      <g
         style="fill:#fcd198;fill-opacity:1"
         transform="translate(-148.29466,107.87116)"
         id="g1143">
        <g
           style="fill:#fcd198;fill-opacity:1"
           id="g1135"
           transform="matrix(0.05248889,0,0,0.05248889,127.39764,85.279278)">
          <g
             style="fill:#fcd198;fill-opacity:1"
             id="g1103">
            <path
               inkscape:connector-curvature="0"
               d="m 439.5,92 h -8.622 C 430.863,76.758 430.852,67.491 430.852,67.491 430.847,63.352 427.491,60 423.352,60 312.509,60 246.419,85.047 231.572,91.337 216.711,85.05 150.522,60 39.5,60 c -4.139,0 -7.495,3.353 -7.5,7.491 0,0 -0.01,9.267 -0.026,24.509 H 23.5 C 10.542,92 0,102.542 0,115.5 v 264 C 0,392.458 10.542,403 23.5,403 h 416 c 12.958,0 23.5,-10.542 23.5,-23.5 v -264 C 463,102.542 452.458,92 439.5,92 Z M 415.932,356.038 C 322.462,356.989 262.112,375.69 239,384.384 V 104.526 c 16.004,-6.445 77.69,-28.42 176.86,-29.486 0.1,90.975 0.219,246.033 0.072,280.998 z M 224,104.469 v 279.864 c -23.245,-8.716 -83.637,-27.35 -177.08,-28.296 -0.134,-31.924 -0.047,-163.943 0.046,-255.91 0.017,-0.207 0.032,-0.415 0.032,-0.627 0,-0.203 -0.015,-0.403 -0.03,-0.602 C 46.976,90.577 46.985,82.585 46.993,75.04 146.035,76.1 207.749,97.951 224,104.469 Z M 15,379.5 v -264 c 0,-4.687 3.813,-8.5 8.5,-8.5 h 8.459 c -0.027,28.295 -0.062,68.323 -0.084,108.371 -0.021,36.981 -0.031,73.975 -0.016,101.742 0.008,13.89 0.022,25.473 0.044,33.593 0.012,4.073 0.025,7.277 0.041,9.469 0.034,4.673 0.046,6.421 2.249,8.625 1.407,1.408 3.316,2.2 5.307,2.2 64.093,0 113.209,8.753 145.26,17 H 23.5 c -4.687,0 -8.5,-3.813 -8.5,-8.5 z m 433,0 c 0,4.687 -3.813,8.5 -8.5,8.5 H 278.319 c 32.002,-8.247 81.041,-17 145.033,-17 1.991,0 3.9,-0.792 5.307,-2.2 2.202,-2.204 2.215,-3.952 2.249,-8.625 0.016,-2.191 0.029,-5.396 0.041,-9.469 0.023,-8.12 0.037,-19.703 0.045,-33.593 0.016,-27.768 0.005,-64.76 -0.016,-101.742 -0.023,-40.048 -0.057,-80.076 -0.085,-108.371 h 8.608 c 4.687,0 8.5,3.813 8.5,8.5 v 264 z"
               style="fill:#fcd198;fill-opacity:1;stroke-width:2.52037477;stroke-miterlimit:4;stroke-dasharray:none"
               id="path1057" />
            <path
               style="fill:#fcd198;fill-opacity:1"
               id="path1059"
               d="m 201.594,288.271 c -15.129,-4.423 -31.535,-8.241 -48.763,-11.349 -4.079,-0.734 -7.978,1.974 -8.712,6.05 -0.735,4.076 1.973,7.977 6.049,8.712 16.709,3.014 32.595,6.709 47.217,10.983 0.703,0.206 1.411,0.304 2.108,0.304 3.246,0 6.238,-2.125 7.195,-5.397 1.162,-3.975 -1.119,-8.14 -5.094,-9.303 z"
               inkscape:connector-curvature="0" />
            <path
               style="fill:#fcd198;fill-opacity:1"
               id="path1061"
               d="m 71.158,282.992 c 16.106,0.739 32.065,2.065 47.434,3.939 0.308,0.038 0.615,0.057 0.917,0.057 3.737,0 6.972,-2.789 7.436,-6.593 0.501,-4.111 -2.425,-7.852 -6.537,-8.353 -15.741,-1.921 -32.08,-3.278 -48.563,-4.035 -4.123,-0.155 -7.646,3.011 -7.836,7.148 -0.189,4.139 3.011,7.647 7.149,7.837 z"
               inkscape:connector-curvature="0" />
            <path
               style="fill:#fcd198;fill-opacity:1"
               id="path1063"
               d="m 201.593,320.271 c -24.64,-7.201 -51.954,-12.661 -81.184,-16.228 -4.113,-0.509 -7.851,2.425 -8.353,6.536 -0.501,4.111 2.425,7.852 6.537,8.353 28.423,3.469 54.933,8.763 78.792,15.737 0.703,0.205 1.411,0.303 2.107,0.303 3.246,0 6.239,-2.125 7.195,-5.397 1.163,-3.977 -1.118,-8.142 -5.094,-9.304 z"
               inkscape:connector-curvature="0" />
            <path
               style="fill:#fcd198;fill-opacity:1"
               id="path1065"
               d="m 71.158,314.992 c 5.275,0.242 10.599,0.551 15.823,0.916 0.178,0.013 0.355,0.019 0.532,0.019 3.903,0 7.197,-3.022 7.474,-6.977 0.29,-4.132 -2.826,-7.716 -6.958,-8.005 -5.343,-0.374 -10.788,-0.689 -16.182,-0.938 -4.124,-0.147 -7.646,3.011 -7.836,7.148 -0.191,4.139 3.009,7.647 7.147,7.837 z"
               inkscape:connector-curvature="0" />
            <path
               style="fill:#fcd198;fill-opacity:1"
               id="path1067"
               d="m 197.385,270.669 c 0.702,0.205 1.411,0.303 2.107,0.303 3.246,0 6.239,-2.124 7.195,-5.397 1.162,-3.976 -1.119,-8.141 -5.095,-9.304 -5.233,-1.529 -10.708,-3.01 -16.271,-4.4 -4.014,-1.003 -8.09,1.439 -9.095,5.458 -1.004,4.019 1.439,8.091 5.458,9.095 5.374,1.342 10.656,2.77 15.701,4.245 z"
               inkscape:connector-curvature="0" />
            <path
               style="fill:#fcd198;fill-opacity:1"
               id="path1069"
               d="m 71.158,250.992 c 27.421,1.258 54.004,4.183 79.011,8.692 0.45,0.081 0.898,0.12 1.34,0.12 3.559,0 6.718,-2.544 7.372,-6.17 0.735,-4.076 -1.973,-7.977 -6.05,-8.712 -25.656,-4.627 -52.904,-7.627 -80.985,-8.915 -4.123,-0.164 -7.646,3.011 -7.836,7.148 -0.19,4.139 3.011,7.648 7.148,7.837 z"
               inkscape:connector-curvature="0" />
            <path
               style="fill:#fcd198;fill-opacity:1"
               id="path1071"
               d="m 263.497,142.972 c 0.696,0 1.405,-0.098 2.107,-0.303 21.573,-6.306 45.426,-11.258 70.896,-14.719 4.104,-0.558 6.979,-4.337 6.422,-8.441 -0.558,-4.104 -4.334,-6.979 -8.441,-6.422 -26.208,3.562 -50.797,8.67 -73.084,15.184 -3.976,1.162 -6.257,5.327 -5.095,9.304 0.956,3.273 3.948,5.397 7.195,5.397 z"
               inkscape:connector-curvature="0" />
            <path
               style="fill:#fcd198;fill-opacity:1"
               id="path1073"
               d="m 367.479,124.538 c 0.207,0 0.416,-0.008 0.626,-0.025 7.802,-0.645 15.785,-1.156 23.727,-1.521 4.138,-0.189 7.338,-3.698 7.148,-7.836 -0.19,-4.138 -3.695,-7.322 -7.836,-7.148 -8.124,0.373 -16.291,0.896 -24.275,1.556 -4.128,0.341 -7.198,3.964 -6.857,8.092 0.324,3.918 3.604,6.882 7.467,6.882 z"
               inkscape:connector-curvature="0" />
            <path
               style="fill:#fcd198;fill-opacity:1"
               id="path1075"
               d="m 263.497,206.972 c 0.697,0 1.405,-0.098 2.108,-0.303 14.623,-4.275 30.509,-7.971 47.217,-10.984 4.076,-0.735 6.785,-4.636 6.049,-8.712 -0.735,-4.077 -4.636,-6.783 -8.712,-6.05 -17.227,3.107 -33.633,6.926 -48.763,11.348 -3.976,1.163 -6.256,5.328 -5.094,9.304 0.956,3.273 3.948,5.397 7.195,5.397 z"
               inkscape:connector-curvature="0" />
            <path
               style="fill:#fcd198;fill-opacity:1"
               id="path1077"
               d="m 391.144,172.008 c -16.483,0.757 -32.822,2.114 -48.563,4.035 -4.112,0.501 -7.038,4.241 -6.537,8.353 0.464,3.804 3.698,6.593 7.436,6.593 0.303,0 0.609,-0.019 0.917,-0.057 15.368,-1.874 31.327,-3.2 47.434,-3.939 4.138,-0.19 7.338,-3.698 7.148,-7.836 -0.189,-4.139 -3.712,-7.33 -7.835,-7.149 z"
               inkscape:connector-curvature="0" />
            <path
               style="fill:#fcd198;fill-opacity:1"
               id="path1079"
               d="m 263.497,174.972 c 0.697,0 1.405,-0.098 2.107,-0.303 5.042,-1.475 10.324,-2.902 15.7,-4.246 4.019,-1.005 6.462,-5.076 5.458,-9.095 -1.004,-4.019 -5.08,-6.464 -9.095,-5.458 -5.566,1.392 -11.041,2.872 -16.271,4.4 -3.976,1.163 -6.257,5.328 -5.095,9.304 0.957,3.274 3.949,5.398 7.196,5.398 z"
               inkscape:connector-curvature="0" />
            <path
               style="fill:#fcd198;fill-opacity:1"
               id="path1081"
               d="m 391.144,140.008 c -28.081,1.288 -55.329,4.288 -80.986,8.915 -4.077,0.735 -6.785,4.636 -6.05,8.712 0.654,3.627 3.813,6.17 7.372,6.17 0.442,0 0.89,-0.039 1.34,-0.12 25.007,-4.51 51.59,-7.435 79.011,-8.692 4.138,-0.189 7.338,-3.698 7.148,-7.836 -0.189,-4.138 -3.694,-7.335 -7.835,-7.149 z"
               inkscape:connector-curvature="0" />
            <path
               style="fill:#fcd198;fill-opacity:1"
               id="path1083"
               d="m 263.497,238.972 c 0.697,0 1.405,-0.098 2.108,-0.303 23.858,-6.975 50.37,-12.27 78.799,-15.738 4.112,-0.501 7.038,-4.241 6.537,-8.353 -0.501,-4.112 -4.243,-7.044 -8.353,-6.536 -29.236,3.566 -56.553,9.027 -81.191,16.229 -3.976,1.163 -6.256,5.328 -5.094,9.304 0.955,3.273 3.947,5.397 7.194,5.397 z"
               inkscape:connector-curvature="0" />
            <path
               style="fill:#fcd198;fill-opacity:1"
               id="path1085"
               d="m 391.144,204.008 c -5.417,0.249 -10.858,0.563 -16.173,0.937 -4.132,0.289 -7.247,3.874 -6.957,8.006 0.277,3.953 3.57,6.976 7.474,6.976 0.176,0 0.354,-0.006 0.532,-0.019 5.195,-0.364 10.515,-0.672 15.813,-0.915 4.138,-0.19 7.338,-3.698 7.148,-7.836 -0.191,-4.139 -3.712,-7.335 -7.837,-7.149 z"
               inkscape:connector-curvature="0" />
            <path
               style="fill:#fcd198;fill-opacity:1"
               id="path1087"
               d="m 256.301,297.574 c 0.957,3.273 3.949,5.397 7.195,5.397 0.697,0 1.405,-0.098 2.108,-0.303 14.623,-4.275 30.509,-7.971 47.217,-10.984 4.076,-0.735 6.785,-4.636 6.049,-8.712 -0.735,-4.077 -4.636,-6.782 -8.712,-6.05 -17.227,3.107 -33.633,6.926 -48.763,11.348 -3.975,1.164 -6.256,5.329 -5.094,9.304 z"
               inkscape:connector-curvature="0" />
            <path
               style="fill:#fcd198;fill-opacity:1"
               id="path1089"
               d="m 391.144,268.008 c -16.483,0.757 -32.822,2.114 -48.563,4.035 -4.112,0.501 -7.038,4.241 -6.537,8.353 0.464,3.804 3.698,6.593 7.436,6.593 0.303,0 0.609,-0.019 0.917,-0.057 15.368,-1.874 31.327,-3.2 47.434,-3.939 4.138,-0.19 7.338,-3.698 7.148,-7.836 -0.189,-4.138 -3.712,-7.315 -7.835,-7.149 z"
               inkscape:connector-curvature="0" />
            <path
               style="fill:#fcd198;fill-opacity:1"
               id="path1091"
               d="m 342.58,304.043 c -29.23,3.566 -56.544,9.026 -81.184,16.228 -3.976,1.162 -6.257,5.327 -5.095,9.304 0.957,3.273 3.949,5.397 7.195,5.397 0.697,0 1.405,-0.098 2.107,-0.303 23.86,-6.975 50.369,-12.269 78.792,-15.737 4.112,-0.501 7.038,-4.241 6.537,-8.353 -0.501,-4.112 -4.244,-7.047 -8.352,-6.536 z"
               inkscape:connector-curvature="0" />
            <path
               style="fill:#fcd198;fill-opacity:1"
               id="path1093"
               d="m 391.144,300.008 c -5.394,0.248 -10.838,0.563 -16.183,0.938 -4.132,0.289 -7.247,3.873 -6.958,8.005 0.277,3.954 3.57,6.977 7.474,6.977 0.176,0 0.354,-0.006 0.532,-0.019 5.226,-0.365 10.549,-0.674 15.823,-0.916 4.138,-0.19 7.338,-3.698 7.148,-7.836 -0.19,-4.138 -3.713,-7.31 -7.836,-7.149 z"
               inkscape:connector-curvature="0" />
            <path
               style="fill:#fcd198;fill-opacity:1"
               id="path1095"
               d="m 263.497,270.972 c 0.697,0 1.405,-0.098 2.107,-0.303 5.042,-1.475 10.324,-2.902 15.7,-4.246 4.019,-1.005 6.462,-5.076 5.458,-9.095 -1.004,-4.019 -5.08,-6.461 -9.095,-5.458 -5.566,1.392 -11.041,2.872 -16.271,4.4 -3.976,1.163 -6.257,5.328 -5.095,9.304 0.957,3.274 3.949,5.398 7.196,5.398 z"
               inkscape:connector-curvature="0" />
            <path
               style="fill:#fcd198;fill-opacity:1"
               id="path1097"
               d="m 391.144,236.008 c -28.081,1.288 -55.329,4.288 -80.986,8.915 -4.077,0.735 -6.785,4.636 -6.05,8.712 0.654,3.627 3.813,6.17 7.372,6.17 0.442,0 0.89,-0.039 1.34,-0.12 25.007,-4.51 51.59,-7.435 79.011,-8.692 4.138,-0.189 7.338,-3.698 7.148,-7.836 -0.189,-4.138 -3.694,-7.32 -7.835,-7.149 z"
               inkscape:connector-curvature="0" />
            <path
               inkscape:connector-curvature="0"
               d="m 200.94935,242.59976 c 0.702,0.205 1.411,0.303 2.107,0.303 3.246,0 6.239,-2.124 7.195,-5.397 1.162,-3.976 -1.119,-8.141 -5.095,-9.304 -5.233,-1.529 -10.708,-3.01 -16.271,-4.4 -4.014,-1.003 -8.09,1.439 -9.095,5.458 -1.004,4.019 1.439,8.091 5.458,9.095 5.374,1.342 10.656,2.77 15.701,4.245 z"
               id="path1099"
               style="fill:#fcd198;fill-opacity:1" />
            <path
               inkscape:connector-curvature="0"
               d="m 79.177783,223.28917 c 16.106,0.739 32.064997,2.065 47.433997,3.939 0.308,0.038 0.615,0.057 0.917,0.057 3.737,0 6.972,-2.789 7.436,-6.593 0.501,-4.111 -2.425,-7.852 -6.537,-8.353 -15.741,-1.921 -32.079997,-3.278 -48.562997,-4.035 -4.123,-0.155 -7.646,3.011 -7.836,7.148 -0.189,4.139 3.011,7.647 7.149,7.837 z"
               id="path1101"
               style="fill:#fcd198;fill-opacity:1" />
          </g>
          <g
             style="fill:#fcd198;fill-opacity:1"
             id="g1105" />
          <g
             style="fill:#fcd198;fill-opacity:1"
             id="g1107" />
          <g
             style="fill:#fcd198;fill-opacity:1"
             id="g1109" />
          <g
             style="fill:#fcd198;fill-opacity:1"
             id="g1111" />
          <g
             style="fill:#fcd198;fill-opacity:1"
             id="g1113" />
          <g
             style="fill:#fcd198;fill-opacity:1"
             id="g1115" />
          <g
             style="fill:#fcd198;fill-opacity:1"
             id="g1117" />
          <g
             style="fill:#fcd198;fill-opacity:1"
             id="g1119" />
          <g
             style="fill:#fcd198;fill-opacity:1"
             id="g1121" />
          <g
             style="fill:#fcd198;fill-opacity:1"
             id="g1123" />
          <g
             style="fill:#fcd198;fill-opacity:1"
             id="g1125" />
          <g
             style="fill:#fcd198;fill-opacity:1"
             id="g1127" />
          <g
             style="fill:#fcd198;fill-opacity:1"
             id="g1129" />
          <g
             style="fill:#fcd198;fill-opacity:1"
             id="g1131" />
          <g
             style="fill:#fcd198;fill-opacity:1"
             id="g1133" />
        </g>
        <g
           style="fill:#fcd198;fill-opacity:1"
           transform="matrix(0.12125041,0.03248895,-0.03248895,0.12125041,122.19299,81.746898)"
           id="g1141" />
      </g>
    </g>
  </g>
</svg>
