<svg height="100" viewBox="0 0 100 100" width="100" xmlns="http://www.w3.org/2000/svg"><path d="m50.000004 2.2471614c-26.373241 0-47.7528402 21.3795996-47.7528402 47.7528406 0 26.373238 21.3795992 47.752837 47.7528402 47.752837 26.373238 0 47.752835-21.379599 47.752835-47.752837 0-26.373241-21.379597-47.7528406-47.752835-47.7528406zm33.445473 23.0212976-12.207593 12.207589c-2.115565-3.57357-5.135354-6.595287-8.713927-8.71393l12.20759-12.207589a42.052538 42.052538 0 0 1 8.71393 8.71393zm-33.445473 43.21651c-10.208905 0-18.484971-8.276066-18.484971-18.484967 0-10.208905 8.276066-18.484971 18.484971-18.484971 10.208901 0 18.484967 8.276066 18.484967 18.484971 0 10.208901-8.276066 18.484967-18.484967 18.484967zm-24.731543-51.93044 12.20759 12.207589c-3.573571 2.115565-6.595288 5.135357-8.713931 8.71393l-12.207589-12.207589a42.047918 42.047918 0 0 1 8.71393-8.71393zm-8.71393 58.177017 12.207589-12.207591c2.115564 3.573567 5.135356 6.595284 8.713931 8.713927l-12.20759 12.207593a42.052538 42.052538 0 0 1 -8.71393-8.713929zm58.177016 8.713929-12.20759-12.207593c3.573567-2.115564 6.595283-5.135354 8.713927-8.713927l12.207593 12.207591a42.053883 42.053883 0 0 1 -8.71393 8.713929z" fill="#fcd198" stroke-width=".192552"/><path d="m0 0h100v100h-100z" opacity="0"/></svg>