<svg height="100" viewBox="0 0 100 100" width="100" xmlns="http://www.w3.org/2000/svg" xmlns:xlink="http://www.w3.org/1999/xlink"><linearGradient id="a" gradientTransform="matrix(.1488611 0 0 .10826262 384.37917 513.73699)" gradientUnits="userSpaceOnUse" x1="122.58108" x2="122.58108" y1="89.117897" y2="276.73453"><stop offset="0" stop-color="#fcd198"/><stop offset="1" stop-color="#fbb259"/></linearGradient><path d="m.00001-.000001h99.999992v99.999969h-99.999992z" opacity="0"/><path d="m.0000113-.00000089h99.9999887v99.99996989h-99.9999887z" fill="none" opacity="0" stroke-width="3.124999"/><g transform="matrix(3.3756173 0 0 3.3756173 -1303.369 -1749.3368)"><g fill-rule="evenodd"><path d="m388.72531 541.55928v-18.43465c0-.41033.33199-.74297.74519-.74297h22.31633c.41155 0 .74518.33286.74518.74297v18.43465z" fill="#fcbe72"/><path d="m387.68846 541.55928v-17.93631c0-.39924.36091-.72289.8101-.72289h24.26021c.4474 0 .81009.32387.81009.72289v17.93631z" fill="#fbb259" stroke-width="1.028454"/><path d="m387.42577 543.69699c-.42058 0-.76152-.33981-.76152-.76224v-18.7874c0-.42096.34055-.76224.76152-.76224h26.40579c.42057 0 .76151.33981.76151.76224v18.7874c0 .42097-.34055.76224-.76151.76224z" fill="url(#a)"/></g><path d="m395.62866 528.54105v1 1 1 3 1 3h10v-3-1-3-1-1-1h-1v.002h-2v-.002zm1 2h8v1h-8zm6 2h2v1h-2zm-6 2h8v1h-8zm6 2h2v1h-2z" fill="#fbb259" stroke="#fcd096" stroke-width=".148121"/></g></svg>