<svg height="100" viewBox="0 0 100 100" width="100" xmlns="http://www.w3.org/2000/svg"><path d="m97.516614 85.620427-19.024257-19.024279c-.858681-.858658-2.022651-1.335703-3.243859-1.335703h-3.1103c5.26651-6.735772 8.395874-15.207968 8.395874-24.424349 0-21.924676-17.7649-39.6895532-39.689554-39.6895532-21.924676 0-39.6895764 17.7648772-39.6895764 39.6895532s17.7649004 39.689554 39.6895764 39.689554c9.216359 0 17.688555-3.129364 24.42435-8.395852v3.110277c0 1.221208.477022 2.385202 1.335703 3.243859l19.024257 19.024281c1.793684 1.793656 4.694057 1.793656 6.468654 0l5.400069-5.40007c1.79366-1.793661 1.79366-4.694056.01803-6.487718zm-56.672096-20.359982c-13.490629 0-24.424349-10.914634-24.424349-24.424349 0-13.490629 10.914634-24.424349 24.424349-24.424349 13.490631 0 24.42435 10.914633 24.42435 24.424349 0 13.49063-10.914634 24.424349-24.42435 24.424349z" fill="#fcd198" stroke-width=".190816"/><path d="m0 0h100v100h-100z" fill="#fbb259" opacity="0" stroke="#fcd096" stroke-width=".5"/></svg>