<?xml version="1.0" encoding="UTF-8" standalone="no"?>
<svg
   xmlns:dc="http://purl.org/dc/elements/1.1/"
   xmlns:cc="http://creativecommons.org/ns#"
   xmlns:rdf="http://www.w3.org/1999/02/22-rdf-syntax-ns#"
   xmlns:svg="http://www.w3.org/2000/svg"
   xmlns="http://www.w3.org/2000/svg"
   xmlns:sodipodi="http://sodipodi.sourceforge.net/DTD/sodipodi-0.dtd"
   xmlns:inkscape="http://www.inkscape.org/namespaces/inkscape"
   viewBox="0 0 57.349594 52.999947"
   version="1.1"
   id="svg4"
   sodipodi:docname="search.svg"
   width="57.349594"
   height="52.999947"
   inkscape:version="0.92.4 (5da689c313, 2019-01-14)">
  <metadata
     id="metadata10">
    <rdf:RDF>
      <cc:Work
         rdf:about="">
        <dc:format>image/svg+xml</dc:format>
        <dc:type
           rdf:resource="http://purl.org/dc/dcmitype/StillImage" />
        <dc:title></dc:title>
      </cc:Work>
    </rdf:RDF>
  </metadata>
  <defs
     id="defs8" />
  <sodipodi:namedview
     pagecolor="#ffffff"
     bordercolor="#666666"
     borderopacity="1"
     objecttolerance="10"
     gridtolerance="10"
     guidetolerance="10"
     inkscape:pageopacity="0"
     inkscape:pageshadow="2"
     inkscape:window-width="1366"
     inkscape:window-height="706"
     id="namedview6"
     showgrid="false"
     fit-margin-top="0"
     fit-margin-left="0"
     fit-margin-right="0"
     fit-margin-bottom="0"
     inkscape:zoom="7.375"
     inkscape:cx="37.468508"
     inkscape:cy="31.223727"
     inkscape:window-x="0"
     inkscape:window-y="344"
     inkscape:window-maximized="1"
     inkscape:current-layer="svg4" />
  <path
     d="m 49.74268,42.33239 -8.44247,-8.44248 c -0.38106,-0.38105 -0.8976,-0.59275 -1.43954,-0.59275 H 38.4804 c 2.33714,-2.98916 3.72587,-6.7489 3.72587,-10.83889 0,-9.7296 -7.8836,-17.61319 -17.61319,-17.61319 -9.7296,0 -17.6132,7.88359 -17.6132,17.61319 0,9.7296 7.8836,17.61319 17.6132,17.61319 4.08998,0 7.84972,-1.38873 10.83889,-3.72586 v 1.38026 c 0,0.54194 0.21169,1.05849 0.59275,1.43954 l 8.44247,8.44248 c 0.79599,0.79598 2.0831,0.79598 2.87062,0 l 2.39641,-2.39641 c 0.79598,-0.79598 0.79598,-2.0831 0.008,-2.87908 z m -25.1496,-9.03523 c -5.98679,0 -10.83889,-4.84363 -10.83889,-10.83889 0,-5.98679 4.84363,-10.83889 10.83889,-10.83889 5.98679,0 10.83889,4.84363 10.83889,10.83889 0,5.98679 -4.84363,10.83889 -10.83889,10.83889 z"
     id="path2"
     inkscape:connector-curvature="0"
     style="stroke-width:0.08467881;fill:#fcd198;fill-opacity:1" />
  <rect
     y="0.024999199"
     x="-0.018752661"
     height="52.999947"
     width="57.349594"
     id="rect833"
     style="opacity:1;fill:none;fill-opacity:1;stroke:none;stroke-width:0.322;stroke-linecap:round;stroke-linejoin:miter;stroke-miterlimit:4;stroke-dasharray:none;stroke-dashoffset:0;stroke-opacity:1;paint-order:stroke fill markers" />
</svg>
