<svg height="100" viewBox="0 0 100 100" width="100" xmlns="http://www.w3.org/2000/svg"><path d="m91.801464 30.016493h-83.6029283c-3.2980232 0-5.9716379-2.937114-5.9716379-6.56018v-13.120359c0-3.6230656 2.6736147-6.5601802 5.9716379-6.5601802h83.6029283c3.298025 0 5.971638 2.9371146 5.971638 6.5601802v13.120359c0 3.623066-2.673613 6.56018-5.971638 6.56018zm-8.957456-18.040494c-2.473565 0-4.478729 2.202784-4.478729 4.920134 0 2.717351 2.005164 4.920135 4.478729 4.920135s4.478728-2.202784 4.478728-4.920135c0-2.71735-2.005163-4.920134-4.478728-4.920134zm-11.943276 0c-2.473565 0-4.478729 2.202784-4.478729 4.920134 0 2.717351 2.005164 4.920135 4.478729 4.920135s4.478729-2.202784 4.478729-4.920135c0-2.71735-2.005164-4.920134-4.478729-4.920134zm20.900732 50.841396h-83.6029283c-3.2980232 0-5.9716379-2.937117-5.9716379-6.560181v-13.12036c0-3.623064 2.6736147-6.560181 5.9716379-6.560181h83.6029283c3.298025 0 5.971638 2.937117 5.971638 6.560181v13.12036c0 3.623064-2.673613 6.560181-5.971638 6.560181zm-8.957456-18.040497c-2.473565 0-4.478729 2.202786-4.478729 4.920136s2.005164 4.920136 4.478729 4.920136 4.478728-2.202786 4.478728-4.920136-2.005163-4.920136-4.478728-4.920136zm-11.943276 0c-2.473565 0-4.478729 2.202786-4.478729 4.920136s2.005164 4.920136 4.478729 4.920136 4.478729-2.202786 4.478729-4.920136-2.005164-4.920136-4.478729-4.920136zm20.900732 50.841396h-83.6029283c-3.2980232 0-5.9716379-2.937114-5.9716379-6.56018v-13.120361c0-3.623064 2.6736147-6.560178 5.9716379-6.560178h83.6029283c3.298025 0 5.971638 2.937114 5.971638 6.560178v13.120361c0 3.623066-2.673613 6.56018-5.971638 6.56018zm-8.957456-18.040494c-2.473565 0-4.478729 2.202783-4.478729 4.920133 0 2.717352 2.005164 4.920136 4.478729 4.920136s4.478728-2.202784 4.478728-4.920136c0-2.71735-2.005163-4.920133-4.478728-4.920133zm-11.943276 0c-2.473565 0-4.478729 2.202783-4.478729 4.920133 0 2.717352 2.005164 4.920136 4.478729 4.920136s4.478729-2.202784 4.478729-4.920136c0-2.71735-2.005164-4.920133-4.478729-4.920133z" fill="#fcd198" stroke-width=".195594"/><path d="m0 0h100v99.697037h-100z" fill="#fbb259" opacity="0" stroke="#fcd096" stroke-width=".499242"/></svg>