<?xml version="1.0" encoding="UTF-8" standalone="no"?>
<svg
   xmlns:dc="http://purl.org/dc/elements/1.1/"
   xmlns:cc="http://creativecommons.org/ns#"
   xmlns:rdf="http://www.w3.org/1999/02/22-rdf-syntax-ns#"
   xmlns:svg="http://www.w3.org/2000/svg"
   xmlns="http://www.w3.org/2000/svg"
   xmlns:xlink="http://www.w3.org/1999/xlink"
   xmlns:sodipodi="http://sodipodi.sourceforge.net/DTD/sodipodi-0.dtd"
   xmlns:inkscape="http://www.inkscape.org/namespaces/inkscape"
   enable-background="new 0 0 53 53"
   height="52.999947"
   viewBox="0 0 57.349594 52.999946"
   width="57.349594"
   version="1.1"
   id="svg102"
   sodipodi:docname="SignIn.svg"
   inkscape:version="0.92.4 (5da689c313, 2019-01-14)">
  <metadata
     id="metadata108">
    <rdf:RDF>
      <cc:Work
         rdf:about="">
        <dc:format>image/svg+xml</dc:format>
        <dc:type
           rdf:resource="http://purl.org/dc/dcmitype/StillImage" />
        <dc:title />
      </cc:Work>
    </rdf:RDF>
  </metadata>
  <defs
     id="defs106" />
  <sodipodi:namedview
     pagecolor="#ffffff"
     bordercolor="#666666"
     borderopacity="1"
     objecttolerance="10"
     gridtolerance="10"
     guidetolerance="10"
     inkscape:pageopacity="0"
     inkscape:pageshadow="2"
     inkscape:window-width="1920"
     inkscape:window-height="1050"
     id="namedview104"
     showgrid="false"
     fit-margin-top="0"
     fit-margin-left="0"
     fit-margin-right="0"
     fit-margin-bottom="0"
     inkscape:zoom="6.055825"
     inkscape:cx="36.843169"
     inkscape:cy="6.9249336"
     inkscape:window-x="1366"
     inkscape:window-y="0"
     inkscape:window-maximized="1"
     inkscape:current-layer="svg102"
     inkscape:snap-bbox="true"
     inkscape:snap-page="true" />
  <linearGradient
     id="a">
    <stop
       offset="0"
       stop-color="#071e25"
       id="stop2" />
    <stop
       offset=".13518035"
       stop-color="#051722"
       id="stop4" />
    <stop
       offset=".28478894"
       stop-color="#04111b"
       id="stop6" />
    <stop
       offset=".46850538"
       stop-color="#061317"
       id="stop8" />
    <stop
       offset=".69160116"
       stop-color="#040e16"
       id="stop10" />
    <stop
       offset=".90158319"
       stop-color="#030c14"
       id="stop12" />
    <stop
       offset="1"
       stop-color="#030a16"
       id="stop14" />
  </linearGradient>
  <linearGradient
     id="b"
     gradientTransform="matrix(0.40160614,0,0,0.18785072,-29.544685,14.950501)"
     gradientUnits="userSpaceOnUse"
     x1="75.444054"
     x2="203.65359"
     xlink:href="#a"
     y1="183.36145"
     y2="183.36145" />
  <linearGradient
     id="c"
     gradientUnits="userSpaceOnUse"
     x1="0"
     x2="52.997959"
     xlink:href="#a"
     y1="23.426474"
     y2="23.426474" />
  <linearGradient
     id="d"
     gradientUnits="userSpaceOnUse"
     x1="9.4369478"
     x2="43.463947"
     xlink:href="#a"
     y1="49.875633"
     y2="49.875633" />
  <g
     id="g855">
    <rect
       y="0"
       x="0"
       height="52.999947"
       width="57.349594"
       id="rect833"
       style="opacity:1;fill:none;fill-opacity:1;stroke:none;stroke-width:0.322;stroke-linecap:round;stroke-linejoin:miter;stroke-miterlimit:4;stroke-dasharray:none;stroke-dashoffset:0;stroke-opacity:1;paint-order:stroke fill markers" />
    <g
       transform="translate(1.8813631,-1.7438609e-6)"
       id="g848">
      <path
         id="path915"
         d="m 20.113167,39.250521 -6.698031,3.653549 c -0.393055,0.214316 -0.746296,0.477765 -1.074972,0.764932 3.905138,3.292684 8.946239,5.279137 14.454092,5.279137 5.467193,0 10.476104,-1.956805 14.370229,-5.204592 -0.359171,-0.303262 -0.748838,-0.576029 -1.180859,-0.791192 L 32.811218,39.366574 C 31.884489,38.90321 31.299142,37.95615 31.299142,36.920145 v -2.814071 c 0.20161,-0.229564 0.432021,-0.524356 0.678528,-0.872514 0.977555,-1.380776 1.717074,-2.899628 2.229571,-4.493026 0.919952,-0.283779 1.597633,-1.133422 1.597633,-2.143167 v -3.003822 c 0,-0.660739 -0.293944,-1.251168 -0.750532,-1.664554 v -4.342242 c 0,0 0.891998,-6.757328 -8.259239,-6.757328 -9.151237,0 -8.259239,6.757328 -8.259239,6.757328 v 4.342242 c -0.457435,0.413386 -0.750532,1.003815 -0.750532,1.664554 v 3.003822 c 0,0.791193 0.415927,1.48751 1.038547,1.889883 0.750532,3.267271 2.715807,5.618824 2.715807,5.618824 v 2.744609 c -8.47e-4,0.99958 -0.548075,1.920379 -1.426519,2.399838 z"
         style="fill:#fcd198;fill-opacity:1;stroke:#fcd198;stroke-width:0.84710145;stroke-opacity:1"
         inkscape:connector-curvature="0" />
      <g
         id="g919"
         transform="matrix(0.84710144,0,0,0.84710144,4.3460679,3.204661)">
        <path
           id="path917"
           d="M 26.953,1.004 C 12.32,0.754 0.254,12.414 0.004,27.047 -0.138,35.344 3.56,42.801 9.448,47.76 c 0.385,-0.336 0.798,-0.644 1.257,-0.894 l 7.907,-4.313 c 1.037,-0.566 1.683,-1.653 1.683,-2.835 v -3.24 c 0,0 -2.321,-2.776 -3.206,-6.633 -0.734,-0.475 -1.226,-1.296 -1.226,-2.231 v -3.546 c 0,-0.78 0.347,-1.477 0.886,-1.965 v -5.126 c 0,0 -1.053,-7.977 9.75,-7.977 10.803,0 9.75,7.977 9.75,7.977 v 5.126 c 0.54,0.488 0.886,1.185 0.886,1.965 v 3.546 c 0,1.192 -0.8,2.195 -1.886,2.53 -0.605,1.881 -1.478,3.674 -2.632,5.304 -0.291,0.411 -0.563,0.759 -0.801,1.03 V 39.8 c 0,1.223 0.691,2.342 1.785,2.888 l 8.467,4.233 c 0.508,0.254 0.967,0.575 1.39,0.932 5.71,-4.762 9.399,-11.882 9.536,-19.9 C 53.246,13.32 41.587,1.254 26.953,1.004 Z"
           style="fill:none;fill-opacity:1;stroke:#fcd198;stroke-opacity:1"
           inkscape:connector-curvature="0" />
      </g>
    </g>
  </g>
</svg>
