<svg height="100" viewBox="0 0 100 100" width="100" xmlns="http://www.w3.org/2000/svg"><g transform="matrix(1.0871227 0 0 1.0871227 .017765 -8.730033)"><path d="m74.687064 87.958293h-15.122217c-1.188174 0-2.160317-.972143-2.160317-2.160316v-7.201056c0-1.188175.972143-2.160316 2.160317-2.160316h15.122217c3.186467 0 5.760844-2.574379 5.760844-5.760845v-34.565066c0-3.186468-2.574377-5.760844-5.760844-5.760844h-15.122217c-1.188174 0-2.160317-.972143-2.160317-2.160317v-7.201056c0-1.188174.972143-2.160316 2.160317-2.160316h15.122217c9.541398 0 17.282533 7.741133 17.282533 17.282533v34.565066c0 9.541398-7.741135 17.282533-17.282533 17.282533zm-8.461241-36.185305-30.244433-30.244431c-2.700396-2.700396-7.381081-.810119-7.381081 3.060448v17.282533h-24.483589c-2.3943509 0-4.32063325 1.926283-4.32063325 4.320634v17.282533c0 2.39435 1.92628235 4.320633 4.32063325 4.320633h24.483589v17.282533c0 3.870567 4.680685 5.760844 7.381081 3.060448l30.244433-30.244433c1.674245-1.692248 1.674245-4.428649 0-6.120898z" fill="#fcd198" stroke-width=".180026"/><path d="m-.203913 8.030405h92.173508v92.173508h-92.173508z" fill="#fbb259" opacity="0" stroke="#fcd096" stroke-width=".092174"/></g></svg>