<svg enable-background="new 0 0 53 53" height="100" viewBox="0 0 100 99.999999" width="100" xmlns="http://www.w3.org/2000/svg"><path d="m0 0h100v99.999999h-100z" fill="none" stroke-width="1.813832"/><g stroke="#fcd198" transform="matrix(2.0971734 0 0 2.0971734 -6.190478 -5.575044)"><path d="m20.113167 39.250521-6.698031 3.653549c-.393055.214316-.746296.477765-1.074972.764932 3.905138 3.292684 8.946239 5.279137 14.454092 5.279137 5.467193 0 10.476104-1.956805 14.370229-5.204592-.359171-.303262-.748838-.576029-1.180859-.791192l-7.172408-3.585781c-.926729-.463364-1.512076-1.410424-1.512076-2.446429v-2.814071c.20161-.229564.432021-.524356.678528-.872514.977555-1.380776 1.717074-2.899628 2.229571-4.493026.919952-.283779 1.597633-1.133422 1.597633-2.143167v-3.003822c0-.660739-.293944-1.251168-.750532-1.664554v-4.342242s.891998-6.757328-8.259239-6.757328-8.259239 6.757328-8.259239 6.757328v4.342242c-.457435.413386-.750532 1.003815-.750532 1.664554v3.003822c0 .791193.415927 1.48751 1.038547 1.889883.750532 3.267271 2.715807 5.618824 2.715807 5.618824v2.744609c-.000847.99958-.548075 1.920379-1.426519 2.399838z" fill="#fcd198" stroke-width=".847101"/><path d="m26.953 1.004c-14.633-.25-26.699 11.41-26.949 26.043-.142 8.297 3.556 15.754 9.444 20.713.385-.336.798-.644 1.257-.894l7.907-4.313c1.037-.566 1.683-1.653 1.683-2.835v-3.24s-2.321-2.776-3.206-6.633c-.734-.475-1.226-1.296-1.226-2.231v-3.546c0-.78.347-1.477.886-1.965v-5.126s-1.053-7.977 9.75-7.977 9.75 7.977 9.75 7.977v5.126c.54.488.886 1.185.886 1.965v3.546c0 1.192-.8 2.195-1.886 2.53-.605 1.881-1.478 3.674-2.632 5.304-.291.411-.563.759-.801 1.03v3.322c0 1.223.691 2.342 1.785 2.888l8.467 4.233c.508.254.967.575 1.39.932 5.71-4.762 9.399-11.882 9.536-19.9.252-14.633-11.407-26.699-26.041-26.949z" fill="none" transform="matrix(.84710144 0 0 .84710144 4.346068 3.204661)"/></g></svg>