<svg height="100" viewBox="0 0 100 100" width="100" xmlns="http://www.w3.org/2000/svg"><path d="m-.292796.31465845h100.292796v100.00000155h-100.292796z" fill="none" stroke-width="1.816486"/><g transform="matrix(1.9409734 0 0 1.9409734 4.098236 -1.938071)"><path d="m9.5929966 24.923685c2.2031624 0 3.9944024-1.79124 3.9944024-3.994402 0-2.203166-1.79124-3.994407-3.9944024-3.994407-2.203166 0-3.994407 1.791241-3.994407 3.994407 0 2.203162 1.791241 3.994402 3.994407 3.994402zm27.9608304 0c2.203166 0 3.994407-1.79124 3.994407-3.994402 0-2.203166-1.791241-3.994407-3.994407-3.994407-2.203162 0-3.994402 1.791241-3.994402 3.994407 0 2.203162 1.79124 3.994402 3.994402 3.994402zm1.997203 1.997204h-3.994402c-1.098463 0-2.090825.44313-2.814811 1.160871 2.515226 1.379319 4.300227 3.869582 4.687184 6.827938h4.119233c1.104703 0 1.997203-.8925 1.997203-1.997203v-1.997199c0-2.203167-1.791245-3.994407-3.994407-3.994407zm-15.977618 0c3.863336 0 6.990207-3.126871 6.990207-6.990207 0-3.863337-3.126871-6.990208-6.990207-6.990208s-6.990207 3.126871-6.990207 6.990208c0 3.863336 3.126871 6.990207 6.990207 6.990207zm4.793285 1.997203h-.518022c-1.298182.624125-2.739914.998602-4.275263.998602s-2.970836-.374477-4.275263-.998602h-.518022c-3.969438 0-7.189931 3.220488-7.189931 7.189926v1.797485c0 1.65393 1.34187 2.995801 2.995805 2.995801h17.974822c1.653935 0 2.995805-1.341871 2.995805-2.995801v-1.797485c0-3.969438-3.220493-7.189926-7.189931-7.189926zm-13.96169-.836332c-.723986-.717741-1.716348-1.160871-2.814811-1.160871h-3.9944024c-2.203162 0-3.9944069 1.79124-3.9944069 3.994407v1.997199c0 1.104703.8925002 1.997203 1.9972029 1.997203h4.112988c.3932024-2.958356 2.1782034-5.448619 4.6934294-6.827938z" fill="#fcd198" stroke-width=".062413"/><circle cx="23.573412" cy="26.920889" fill="none" r="23.159004" stroke="#fcd198" stroke-width="2"/></g></svg>