<?xml version="1.0" encoding="UTF-8" standalone="no"?>
<!-- Generator: Adobe Illustrator 19.0.0, SVG Export Plug-In . SVG Version: 6.00 Build 0)  -->

<svg
   xmlns:dc="http://purl.org/dc/elements/1.1/"
   xmlns:cc="http://creativecommons.org/ns#"
   xmlns:rdf="http://www.w3.org/1999/02/22-rdf-syntax-ns#"
   xmlns:svg="http://www.w3.org/2000/svg"
   xmlns="http://www.w3.org/2000/svg"
   xmlns:sodipodi="http://sodipodi.sourceforge.net/DTD/sodipodi-0.dtd"
   xmlns:inkscape="http://www.inkscape.org/namespaces/inkscape"
   version="1.1"
   id="Capa_1"
   x="0px"
   y="0px"
   viewBox="0 0 57.349594 52.999947"
   xml:space="preserve"
   sodipodi:docname="staff.svg"
   width="57.349594"
   height="52.999947"
   inkscape:version="0.92.4 (5da689c313, 2019-01-14)"><metadata
   id="metadata41"><rdf:RDF><cc:Work
       rdf:about=""><dc:format>image/svg+xml</dc:format><dc:type
         rdf:resource="http://purl.org/dc/dcmitype/StillImage" /><dc:title /></cc:Work></rdf:RDF></metadata><defs
   id="defs39">














</defs><sodipodi:namedview
   pagecolor="#ffffff"
   bordercolor="#666666"
   borderopacity="1"
   objecttolerance="10"
   gridtolerance="10"
   guidetolerance="10"
   inkscape:pageopacity="0"
   inkscape:pageshadow="2"
   inkscape:window-width="1366"
   inkscape:window-height="706"
   id="namedview37"
   showgrid="false"
   fit-margin-top="0"
   fit-margin-left="0"
   fit-margin-right="0"
   fit-margin-bottom="0"
   inkscape:zoom="5.6568543"
   inkscape:cx="10.758006"
   inkscape:cy="32.678932"
   inkscape:window-x="0"
   inkscape:window-y="344"
   inkscape:window-maximized="1"
   inkscape:current-layer="Capa_1" />

















<g
   id="g934"><rect
     style="opacity:1;fill:none;fill-opacity:1;stroke:none;stroke-width:0.322;stroke-linecap:round;stroke-linejoin:miter;stroke-miterlimit:4;stroke-dasharray:none;stroke-dashoffset:0;stroke-opacity:1;paint-order:stroke fill markers"
     id="rect833"
     width="57.349594"
     height="52.999947"
     x="0"
     y="0" /><path
     sodipodi:nodetypes="ccscccc"
     id="path915"
     d="m 15.296499,42.904068 c -0.393055,0.214316 -0.746296,0.477765 -1.074972,0.764932 3.905138,3.292684 8.946239,5.279137 14.454092,5.279137 5.467193,0 10.476104,-1.956805 14.370229,-5.204592 -0.359171,-0.303262 -1.180859,-0.791192 -1.180859,-0.791192 0,0 2.048773,-15.658032 -26.56849,-0.04828 z"
     style="fill:#fcd198;fill-opacity:1;stroke:#fcd198;stroke-width:0.84710145;stroke-opacity:1"
     inkscape:connector-curvature="0" /><path
     sodipodi:nodetypes="cccccccccc"
     inkscape:connector-curvature="0"
     style="fill:none;fill-opacity:1;stroke:#fcd198;stroke-width:0.84710145;stroke-opacity:1"
     d="M 29.059356,4.0551491 C 16.663721,3.8433738 6.4425948,13.720577 6.2308194,26.116212 6.110531,33.144613 9.2431121,39.461448 14.230845,43.662224 c 0.326134,-0.284626 0.675987,-0.545533 1.064807,-0.757309 l 6.698031,-3.653548 12.697203,0.114359 7.172408,3.58578 c 0.430328,0.215164 0.819147,0.487083 1.177471,0.789499 4.83695,-4.033898 7.961907,-10.06526 8.07796,-16.857319 C 51.332194,14.48805 41.455839,4.2669245 29.059356,4.0551491 Z"
     id="path917" /><g
     transform="matrix(0.57994668,0,0,0.57994668,12.094039,8.9748815)"
     id="g890"><path
       sodipodi:nodetypes="csscccssccsccssccsccssacsc"
       inkscape:connector-curvature="0"
       style="fill:#fcd198;fill-opacity:1"
       d="M 39.566,45.283 30.014,40.507 C 28.78,39.89 28,38.628 28,37.248 V 33.5 c 0.268,-0.305 0.576,-0.698 0.904,-1.162 C 30.206,30.5 31.19,28.477 31.873,26.354 33.098,25.977 34,24.845 34,23.5 v -4 c 0,-0.88 -0.391,-1.667 -1,-2.217 V 11.5 c 0,0 1.187,-9 -11,-9 -12.188,0 -11,9 -11,9 v 5.783 c -0.609,0.55 -1,1.337 -1,2.217 v 4 c 0,1.054 0.554,1.981 1.383,2.517 C 12.382,30.369 15,33.5 15,33.5 v 3.655 c 0,1.333 -0.728,2.56 -1.899,3.198 L 4.18,45.22 C 1.603,46.625 0,49.326 0,52.261 c 0,0 -0.53598517,2.30177 0,3.239 3.7797767,6.609362 12.264904,9.883962 19.686743,11.582986 C 27.613262,68.897543 44,65.091399 44,65.091399 V 52.457 c 0,-3.038 -1.717,-5.815 -4.434,-7.174 z"
       id="path832" /><path
       sodipodi:nodetypes="cccsccccccccsscccscscccsccsc"
       inkscape:connector-curvature="0"
       style="fill:#fcd198;fill-opacity:1"
       d="m 54.07,46.444 -9.774,-4.233 c -0.535,-0.267 -0.971,-0.836 -1.277,-1.453 -0.277,-0.557 0.136,-1.212 0.758,-1.212 h 6.883 c 0,0 2.524,0.242 4.471,-0.594 1.14,-0.49 1.533,-1.921 0.82,-2.936 -2.085,-2.969 -6.396,-9.958 -6.535,-17.177 0,0 -0.239,-11.112 -11.202,-11.202 -2.187,0.018 -3.97,0.476 -5.438,1.188 C 33.152,10.324 33,11.5 33,11.5 v 5.783 c 0.609,0.55 1,1.337 1,2.217 v 4 c 0,1.345 -0.902,2.477 -2.127,2.854 -0.683,2.122 -1.667,4.145 -2.969,5.984 C 28.576,32.802 28.268,33.195 28,33.5 v 3.748 c 0,0.853 0.299,1.659 0.818,2.297 h 2.751 c 0.687,0 0.99,0.868 0.451,1.293 -0.186,0.147 -0.364,0.283 -0.53,0.406 l 8.077,4.038 C 42.283,46.642 44,49.419 44,52.457 V 65.091399 C 49.503094,62.777916 53.782094,59.543716 58,55.5 v -2.697 c 0,-2.693 -1.521,-5.155 -3.93,-6.359 z"
       id="path834" /><g
       id="g836">
</g><g
       id="g838">
</g><g
       id="g840">
</g><g
       id="g842">
</g><g
       id="g844">
</g><g
       id="g846">
</g><g
       id="g848">
</g><g
       id="g850">
</g><g
       id="g852">
</g><g
       id="g854">
</g><g
       id="g856">
</g><g
       id="g858">
</g><g
       id="g860">
</g><g
       id="g862">
</g><g
       id="g864">
</g></g></g></svg>