<svg height="100" viewBox="0 0 100 100" width="100" xmlns="http://www.w3.org/2000/svg"><path d="m50 12.136638c-26.886366 0-48.6814647 21.795094-48.6814647 48.681465 0 8.924934 2.4087183 17.2853 6.6024242 24.475957.9482724 1.626099 2.7552365 2.569301 4.6382615 2.569301h74.881557c1.883026 0 3.68999-.943202 4.638263-2.569301 4.193705-7.190657 6.602424-15.551023 6.602424-24.475956 0-26.886372-21.795098-48.681466-48.681465-48.681466zm0 10.818103c2.486473 0 4.492895 1.712301 5.125076 3.997627-.187629.382013-.446246.715007-.583163 1.127447l-1.558483 4.677139c-.86714.589925-1.854292 1.015888-2.98174 1.015888-2.986809 0-5.409052-2.422242-5.409052-5.409051 0-2.98681 2.420553-5.40905 5.407362-5.40905zm-32.454311 48.681465c-2.986809 0-5.40905-2.422239-5.40905-5.409052s2.422241-5.409051 5.40905-5.409051c2.986813 0 5.409052 2.422238 5.409052 5.409051s-2.422239 5.409052-5.409052 5.409052zm8.113578-27.04526c-2.986807 0-5.409051-2.422243-5.409051-5.409052 0-2.98681 2.422244-5.409052 5.409051-5.409052 2.986812 0 5.409052 2.422242 5.409052 5.409052 0 2.986809-2.42224 5.409052-5.409052 5.409052zm41.71224-12.239669-10.366784 31.102048c2.314058 1.984444 3.813381 4.893501 3.813381 8.182881 0 1.981064-.571331 3.811691-1.50101 5.409052h-18.634187c-.929678-1.597361-1.501011-3.427988-1.501011-5.409052 0-5.736975 4.479371-10.38369 10.12507-10.748802l10.368476-31.103739c.704865-2.123051 2.996953-3.287687 5.131835-2.564227 2.124743.708247 3.270789 3.007096 2.56423 5.131839zm2.478025 9.66868 2.623388-7.86848c.586543-.218062 1.205204-.376945 1.867812-.376945 2.986813 0 5.409052 2.42224 5.409052 5.409052 0 2.986813-2.422239 5.409053-5.409052 5.409053-1.923593-.0017-3.531096-1.061526-4.4912-2.57268zm12.60478 29.616249c-2.986814 0-5.409053-2.422239-5.409053-5.409052s2.422239-5.409051 5.409053-5.409051c2.98681 0 5.409052 2.422238 5.409052 5.409051s-2.422242 5.409052-5.409052 5.409052z" fill="#fcd198" stroke-width=".169034"/><path d="m0 0h100v100h-100z" fill="none" stroke-width="1.813832"/></svg>