<svg height="100" viewBox="0 0 26.458334 26.458335" width="100" xmlns="http://www.w3.org/2000/svg"><path d="m.027996 0h26.458334v26.458334h-26.458334z" fill-opacity=".017621" opacity=".269"/><g fill="#fcd198" transform="matrix(.05701598 0 0 .05701598 .057963 .029968)"><path d="m439.5 92h-8.622c-.015-15.242-.026-24.509-.026-24.509-.005-4.139-3.361-7.491-7.5-7.491-110.843 0-176.933 25.047-191.78 31.337-14.861-6.287-81.05-31.337-192.072-31.337-4.139 0-7.495 3.353-7.5 7.491 0 0-.01 9.267-.026 24.509h-8.474c-12.958 0-23.5 10.542-23.5 23.5v264c0 12.958 10.542 23.5 23.5 23.5h416c12.958 0 23.5-10.542 23.5-23.5v-264c0-12.958-10.542-23.5-23.5-23.5zm-23.568 264.038c-93.47.951-153.82 19.652-176.932 28.346v-279.858c16.004-6.445 77.69-28.42 176.86-29.486.1 90.975.219 246.033.072 280.998zm-191.932-251.569v279.864c-23.245-8.716-83.637-27.35-177.08-28.296-.134-31.924-.047-163.943.046-255.91.017-.207.032-.415.032-.627 0-.203-.015-.403-.03-.602.008-8.321.017-16.313.025-23.858 99.042 1.06 160.756 22.911 177.007 29.429zm-209 275.031v-264c0-4.687 3.813-8.5 8.5-8.5h8.459c-.027 28.295-.062 68.323-.084 108.371-.021 36.981-.031 73.975-.016 101.742.008 13.89.022 25.473.044 33.593.012 4.073.025 7.277.041 9.469.034 4.673.046 6.421 2.249 8.625 1.407 1.408 3.316 2.2 5.307 2.2 64.093 0 113.209 8.753 145.26 17h-161.26c-4.687 0-8.5-3.813-8.5-8.5zm433 0c0 4.687-3.813 8.5-8.5 8.5h-161.181c32.002-8.247 81.041-17 145.033-17 1.991 0 3.9-.792 5.307-2.2 2.202-2.204 2.215-3.952 2.249-8.625.016-2.191.029-5.396.041-9.469.023-8.12.037-19.703.045-33.593.016-27.768.005-64.76-.016-101.742-.023-40.048-.057-80.076-.085-108.371h8.608c4.687 0 8.5 3.813 8.5 8.5v264z" stroke-width="2.520375"/><path d="m201.594 288.271c-15.129-4.423-31.535-8.241-48.763-11.349-4.079-.734-7.978 1.974-8.712 6.05-.735 4.076 1.973 7.977 6.049 8.712 16.709 3.014 32.595 6.709 47.217 10.983.703.206 1.411.304 2.108.304 3.246 0 6.238-2.125 7.195-5.397 1.162-3.975-1.119-8.14-5.094-9.303z"/><path d="m71.158 282.992c16.106.739 32.065 2.065 47.434 3.939.308.038.615.057.917.057 3.737 0 6.972-2.789 7.436-6.593.501-4.111-2.425-7.852-6.537-8.353-15.741-1.921-32.08-3.278-48.563-4.035-4.123-.155-7.646 3.011-7.836 7.148-.189 4.139 3.011 7.647 7.149 7.837z"/><path d="m201.593 320.271c-24.64-7.201-51.954-12.661-81.184-16.228-4.113-.509-7.851 2.425-8.353 6.536-.501 4.111 2.425 7.852 6.537 8.353 28.423 3.469 54.933 8.763 78.792 15.737.703.205 1.411.303 2.107.303 3.246 0 6.239-2.125 7.195-5.397 1.163-3.977-1.118-8.142-5.094-9.304z"/><path d="m71.158 314.992c5.275.242 10.599.551 15.823.916.178.013.355.019.532.019 3.903 0 7.197-3.022 7.474-6.977.29-4.132-2.826-7.716-6.958-8.005-5.343-.374-10.788-.689-16.182-.938-4.124-.147-7.646 3.011-7.836 7.148-.191 4.139 3.009 7.647 7.147 7.837z"/><path d="m197.385 270.669c.702.205 1.411.303 2.107.303 3.246 0 6.239-2.124 7.195-5.397 1.162-3.976-1.119-8.141-5.095-9.304-5.233-1.529-10.708-3.01-16.271-4.4-4.014-1.003-8.09 1.439-9.095 5.458-1.004 4.019 1.439 8.091 5.458 9.095 5.374 1.342 10.656 2.77 15.701 4.245z"/><path d="m71.158 250.992c27.421 1.258 54.004 4.183 79.011 8.692.45.081.898.12 1.34.12 3.559 0 6.718-2.544 7.372-6.17.735-4.076-1.973-7.977-6.05-8.712-25.656-4.627-52.904-7.627-80.985-8.915-4.123-.164-7.646 3.011-7.836 7.148-.19 4.139 3.011 7.648 7.148 7.837z"/><path d="m263.497 142.972c.696 0 1.405-.098 2.107-.303 21.573-6.306 45.426-11.258 70.896-14.719 4.104-.558 6.979-4.337 6.422-8.441-.558-4.104-4.334-6.979-8.441-6.422-26.208 3.562-50.797 8.67-73.084 15.184-3.976 1.162-6.257 5.327-5.095 9.304.956 3.273 3.948 5.397 7.195 5.397z"/><path d="m367.479 124.538c.207 0 .416-.008.626-.025 7.802-.645 15.785-1.156 23.727-1.521 4.138-.189 7.338-3.698 7.148-7.836s-3.695-7.322-7.836-7.148c-8.124.373-16.291.896-24.275 1.556-4.128.341-7.198 3.964-6.857 8.092.324 3.918 3.604 6.882 7.467 6.882z"/><path d="m263.497 206.972c.697 0 1.405-.098 2.108-.303 14.623-4.275 30.509-7.971 47.217-10.984 4.076-.735 6.785-4.636 6.049-8.712-.735-4.077-4.636-6.783-8.712-6.05-17.227 3.107-33.633 6.926-48.763 11.348-3.976 1.163-6.256 5.328-5.094 9.304.956 3.273 3.948 5.397 7.195 5.397z"/><path d="m391.144 172.008c-16.483.757-32.822 2.114-48.563 4.035-4.112.501-7.038 4.241-6.537 8.353.464 3.804 3.698 6.593 7.436 6.593.303 0 .609-.019.917-.057 15.368-1.874 31.327-3.2 47.434-3.939 4.138-.19 7.338-3.698 7.148-7.836-.189-4.139-3.712-7.33-7.835-7.149z"/><path d="m263.497 174.972c.697 0 1.405-.098 2.107-.303 5.042-1.475 10.324-2.902 15.7-4.246 4.019-1.005 6.462-5.076 5.458-9.095s-5.08-6.464-9.095-5.458c-5.566 1.392-11.041 2.872-16.271 4.4-3.976 1.163-6.257 5.328-5.095 9.304.957 3.274 3.949 5.398 7.196 5.398z"/><path d="m391.144 140.008c-28.081 1.288-55.329 4.288-80.986 8.915-4.077.735-6.785 4.636-6.05 8.712.654 3.627 3.813 6.17 7.372 6.17.442 0 .89-.039 1.34-.12 25.007-4.51 51.59-7.435 79.011-8.692 4.138-.189 7.338-3.698 7.148-7.836-.189-4.138-3.694-7.335-7.835-7.149z"/><path d="m263.497 238.972c.697 0 1.405-.098 2.108-.303 23.858-6.975 50.37-12.27 78.799-15.738 4.112-.501 7.038-4.241 6.537-8.353s-4.243-7.044-8.353-6.536c-29.236 3.566-56.553 9.027-81.191 16.229-3.976 1.163-6.256 5.328-5.094 9.304.955 3.273 3.947 5.397 7.194 5.397z"/><path d="m391.144 204.008c-5.417.249-10.858.563-16.173.937-4.132.289-7.247 3.874-6.957 8.006.277 3.953 3.57 6.976 7.474 6.976.176 0 .354-.006.532-.019 5.195-.364 10.515-.672 15.813-.915 4.138-.19 7.338-3.698 7.148-7.836-.191-4.139-3.712-7.335-7.837-7.149z"/><path d="m256.301 297.574c.957 3.273 3.949 5.397 7.195 5.397.697 0 1.405-.098 2.108-.303 14.623-4.275 30.509-7.971 47.217-10.984 4.076-.735 6.785-4.636 6.049-8.712-.735-4.077-4.636-6.782-8.712-6.05-17.227 3.107-33.633 6.926-48.763 11.348-3.975 1.164-6.256 5.329-5.094 9.304z"/><path d="m391.144 268.008c-16.483.757-32.822 2.114-48.563 4.035-4.112.501-7.038 4.241-6.537 8.353.464 3.804 3.698 6.593 7.436 6.593.303 0 .609-.019.917-.057 15.368-1.874 31.327-3.2 47.434-3.939 4.138-.19 7.338-3.698 7.148-7.836-.189-4.138-3.712-7.315-7.835-7.149z"/><path d="m342.58 304.043c-29.23 3.566-56.544 9.026-81.184 16.228-3.976 1.162-6.257 5.327-5.095 9.304.957 3.273 3.949 5.397 7.195 5.397.697 0 1.405-.098 2.107-.303 23.86-6.975 50.369-12.269 78.792-15.737 4.112-.501 7.038-4.241 6.537-8.353s-4.244-7.047-8.352-6.536z"/><path d="m391.144 300.008c-5.394.248-10.838.563-16.183.938-4.132.289-7.247 3.873-6.958 8.005.277 3.954 3.57 6.977 7.474 6.977.176 0 .354-.006.532-.019 5.226-.365 10.549-.674 15.823-.916 4.138-.19 7.338-3.698 7.148-7.836s-3.713-7.31-7.836-7.149z"/><path d="m263.497 270.972c.697 0 1.405-.098 2.107-.303 5.042-1.475 10.324-2.902 15.7-4.246 4.019-1.005 6.462-5.076 5.458-9.095s-5.08-6.461-9.095-5.458c-5.566 1.392-11.041 2.872-16.271 4.4-3.976 1.163-6.257 5.328-5.095 9.304.957 3.274 3.949 5.398 7.196 5.398z"/><path d="m391.144 236.008c-28.081 1.288-55.329 4.288-80.986 8.915-4.077.735-6.785 4.636-6.05 8.712.654 3.627 3.813 6.17 7.372 6.17.442 0 .89-.039 1.34-.12 25.007-4.51 51.59-7.435 79.011-8.692 4.138-.189 7.338-3.698 7.148-7.836-.189-4.138-3.694-7.32-7.835-7.149z"/><path d="m200.94935 242.59976c.702.205 1.411.303 2.107.303 3.246 0 6.239-2.124 7.195-5.397 1.162-3.976-1.119-8.141-5.095-9.304-5.233-1.529-10.708-3.01-16.271-4.4-4.014-1.003-8.09 1.439-9.095 5.458-1.004 4.019 1.439 8.091 5.458 9.095 5.374 1.342 10.656 2.77 15.701 4.245z"/><path d="m79.177783 223.28917c16.106.739 32.064997 2.065 47.433997 3.939.308.038.615.057.917.057 3.737 0 6.972-2.789 7.436-6.593.501-4.111-2.425-7.852-6.537-8.353-15.741-1.921-32.079997-3.278-48.562997-4.035-4.123-.155-7.646 3.011-7.836 7.148-.189 4.139 3.011 7.647 7.149 7.837z"/><path d="m201.3049 166.48784c-.696 0-1.405-.098-2.107-.303-21.573-6.306-45.426-11.258-70.896-14.719-4.104-.558-6.979-4.337-6.422-8.441.558-4.104 4.334-6.979 8.441-6.422 26.208 3.562 50.797 8.67 73.084 15.184 3.976 1.162 6.257 5.327 5.095 9.304-.956 3.273-3.948 5.397-7.195 5.397z"/><path d="m97.322895 148.05384c-.207 0-.416-.008-.626-.025-7.802-.645-15.785-1.156-23.727-1.521-4.138-.189-7.338-3.698-7.148-7.836s3.695-7.322 7.836-7.148c8.124.373 16.291.896 24.275 1.556 4.128005.341 7.198005 3.964 6.857005 8.092-.324 3.918-3.604 6.882-7.467005 6.882z"/><path d="m201.3049 198.48784c-.697 0-1.405-.098-2.107-.303-5.042-1.475-10.324-2.902-15.7-4.246-4.019-1.005-6.462-5.076-5.458-9.095s5.08-6.464 9.095-5.458c5.566 1.392 11.041 2.872 16.271 4.4 3.976 1.163 6.257 5.328 5.095 9.304-.957 3.274-3.949 5.398-7.196 5.398z"/><path d="m73.657895 163.52384c28.081005 1.288 55.329005 4.288 80.986005 8.915 4.077.735 6.785 4.636 6.05 8.712-.654 3.627-3.813 6.17-7.372 6.17-.442 0-.89-.039-1.34-.12-25.007-4.51-51.59-7.435-79.011005-8.692-4.138-.189-7.338-3.698-7.148-7.836.189-4.138 3.694-7.335 7.835-7.149z"/></g></svg>