<svg height="100" viewBox="0 0 100 100" width="100" xmlns="http://www.w3.org/2000/svg"><path d="m92.183613 49.084146-17.519093-6.565123v-19.677215l-4.24374-6.111729-18.13569-6.8008779h-4.588316l-18.135692 6.8008779-4.243741 6.111729v19.677215l-17.5190708 6.565123-4.2256232 6.111727v19.967389l3.6090026 5.839687 18.1356904 9.06785h5.839678l18.842982-9.430564 18.842981 9.430564h5.839678l18.135694-9.06785 3.609-5.839687v-19.967389zm-23.685205-6.42003-15.41534 5.785282v-12.36854l15.41534-6.710202zm-36.996816-20.07621 18.498407-6.927831 18.498409 6.927831v.108801l-18.498408 7.508183-18.498407-7.50818zm15.233986 52.792988-15.41534 7.707663v-14.345325l15.41534-7.036646zm0-20.311968-18.498408 7.508172-18.4983883-7.508172v-.108826l18.4983883-6.927827 18.498408 6.927827zm43.525639 20.311968-15.41532 7.707663v-14.345325l15.41532-7.036646zm0-20.311968-18.498387 7.508172-18.498406-7.508172v-.108826l18.498406-6.927827 18.498387 6.927827z" fill="#fcd198" stroke-width="2.216438"/><path d="m0 0h100v100h-100z" fill="none" stroke-width="1.813832"/></svg>