<svg height="100" viewBox="0 0 79.374999 26.458336" width="300" xmlns="http://www.w3.org/2000/svg"><path d="m-.02843152 0h79.37500252v26.458334h-79.37500252z" fill="none" stroke-width=".930162"/><g transform="matrix(1.5439267 0 0 1.5439267 -42.149909 -9.894406)"><path d="m65.676388 21.846243c0-.06925-.0573-.126511-.126521-.126511-.07158 0-.1289.0573-.1289.126511 0 .07158.0573.12891.1289.12891.06925 0 .126521-.0573.126521-.12891zm-.650494.09787c-.02389-.08352-.02389-.422519-.02389-.506064 0-.16232.05487-.525167.243485-.525167.03584 0 .08353.01437.109806.08119.01671.0049.03098.0049.04536.0049.08119 0 .121743-.06449.121743-.121743 0-.07877-.0573-.143225-.16471-.143225-.219621 0-.362847.293619-.370005.310324l.01195-.105028c.0049-.02389.0068-.04536.0068-.06449 0-.07877-.01913-.136068-.114584-.136068-.09787 0-.169478.03341-.212454.05963v.04303c.01437 0 .116973.0097.116973.288841 0 .331807-.0097.670773-.0097.813999zm-.599611-.670773s0-.02865 0-.05487c0-.116973-.01913-.48459-.432067-.48459-.303166 0-.501295.288841-.501295.673172.0068.401036.236327.568134.489359.568134.22678 0 .465486-.150393.465486-.334196 0-.02865-.0097-.0573-.0097-.0573-.08595.131289-.236327.210065-.372395.210065-.202897 0-.350902-.145615-.350902-.403425 0-.03341 0-.05963-.0019-.09547l.575292.0068c.05012 0 .09314-.0019.138457-.02865zm-.465487-.405814c.176646 0 .255422.169487.255422.32226l-.510843.0097c.04293-.186192.09787-.331807.255421-.331807zm-.786076 1.076587c-.0097-.04536-.01428-.109806-.01428-.179025 0-.541882.01428-.825945.01428-.825945.0068-.109806-.0049-.200518-.119353-.200518-.09787 0-.169487.03341-.212454.05963v.04303s.124131.0097.114584.288841l-.01913.804452v.0097zm-.260189-1.530137c0 .06682.0573.1289.1289.1289.06682 0 .126521-.06206.126521-.1289 0-.06682-.05973-.124132-.126521-.124132-.07158 0-.1289.0573-.1289.124132zm-.706621.434456c.08828 0 .212444.03817.264968.200518l.04293.0097c.0573-.0573.05487-.186193.03817-.241096-.05963-.03584-.140837-.08353-.327029-.08353-.22678 0-.398647.159941-.398647.350912 0 .362838.601554.374774.601554.58245 0 .126521-.116974.169487-.229169.169487-.136068 0-.32226-.100259-.341355-.19097-.01671.02865-.02389.0573-.02389.08352 0 .133679.181424.245874.362838.245874.255421 0 .427298-.150393.427298-.362847 0-.393869-.618259-.35807-.618259-.613491 0-.07877.07401-.150383.200518-.150383zm-.933478.84026c-.02389.05011-.133679.114585-.253042.114585-.131289 0-.186192-.09547-.186192-.176646 0-.231548.444002-.236327.446392-.236327 0 0-.0068.248263-.0068.298388zm.253032.09788c-.02146-.04536-.03341-.16233-.03341-.248264 0-.362838.0049-.412972.0049-.463097 0-.243494-.169488-.341364-.432077-.341364-.183803 0-.381932.07644-.381932.219612 0 .06925.05487.107427.114575.107427.02865 0 .0573-.0068.08119-.02389 0-.0068-.0019-.01671-.0019-.02389 0-.08595.07158-.169488.183813-.169488.19335 0 .22439.157552.22439.346133 0 .04536-.0019.09547-.0049.143226-.05973-.01428-.119353-.02389-.179034-.02389-.257811 0-.482192.126511-.482192.35806 0 .152782.102639.307944.327029.307944.126521 0 .296009-.08828.341355-.233937 0 .03584.02146.233937.181424.233937.06925 0 .176645-.03108.222001-.05963v-.04293c-.0068 0-.119353.0049-.164709-.08595zm-1.12478-.513232s0-.02865 0-.05487c0-.116973-.01913-.48459-.432066-.48459-.303167 0-.501295.288841-.501295.673172.0068.401036.236327.568134.489358.568134.22678 0 .465487-.150393.465487-.334196 0-.02865-.0097-.0573-.0097-.0573-.08595.131289-.236326.210065-.372394.210065-.202898 0-.350902-.145615-.350902-.403425 0-.03341 0-.05963-.0019-.09547l.575303.0068c.05011 0 .09314-.0019.138447-.02865zm-.465486-.405814c.176645 0 .255421.169487.255421.32226l-.510842.0097c.04293-.186192.09787-.331807.255421-.331807zm-1.45073.405814s0-.02865 0-.05487c0-.116973-.01913-.48459-.432077-.48459-.303156 0-.501295.288841-.501295.673172.0068.401036.236327.568134.489359.568134.22678 0 .465496-.150393.465496-.334196 0-.02865-.0097-.0573-.0097-.0573-.08595.131289-.236317.210065-.372385.210065-.202908 0-.350912-.145615-.350912-.403425 0-.03341 0-.05963-.0019-.09547l.575292.0068c.05011 0 .09314-.0019.138457-.02865zm-.465496-.405814c.176645 0 .255421.169487.255421.32226l-.510842.0097c.04293-.186192.09788-.331807.255421-.331807zm-.603079 1.004979c-.105038-.0019-.183813-.03098-.19336-.231548-.0068-.150394-.01195-.408204-.01195-.685109 0-.307934.01913-.448771.01913-.596775 0-.145615-.02865-.217233-.150394-.217233-.114584 0-.195739.05963-.195739.05963v.04293c.06925.0097.112195.08119.112195.214843 0 0 .0019.04778.0019.307935-.06206-.01913-.133678-.03341-.210065-.03341-.374774 0-.565745.350912-.565745.673172 0 .408194.222001.568135.446392.568135.1289 0 .250652-.06925.353291-.164719.01913.133678.116974.164719.181424.164719.08828 0 .15994-.03584.212454-.05963zm-.620649-.05487c-.202907 0-.350911-.157551-.350911-.45117 0-.183804.05011-.501295.317492-.501295.08828 0 .174256.01437.238706.03341v.360454c0 .06449-.0019.386711-.0019.446392v.03584c-.05487.0406-.114575.07644-.202898.07644zm-1.131607-.128939c-.02389.05011-.133678.114585-.253031.114585-.1313 0-.186203-.09547-.186203-.176646 0-.231548.444003-.236327.446392-.236327 0 0-.0068.248263-.0068.298388zm.253032.09788c-.02146-.04536-.03341-.16233-.03341-.248264 0-.362838.0049-.412972.0049-.463097 0-.243494-.169488-.341364-.432067-.341364-.183813 0-.381942.07644-.381942.219612 0 .06925.05487.107427.114585.107427.02865 0 .0573-.0068.08119-.02389 0-.0068-.0019-.01671-.0019-.02389 0-.08595.07158-.169488.183813-.169488.19336 0 .224391.157552.224391.346133 0 .04536-.0019.09547-.0049.143226-.05963-.01428-.119354-.02389-.179035-.02389-.25781 0-.482191.126511-.482191.35806 0 .152782.102638.307944.327029.307944.126521 0 .296008-.08828.341364-.233937 0 .03584.02146.233937.181414.233937.06925 0 .176646-.03108.222002-.05963v-.04293c-.0068 0-.119353.0049-.164709-.08595zm-1.187889.157541c-.04293-.202897-.01913-.825935-.02389-.926194-.0049-.145615-.119353-.284072-.286451-.284072-.224391 0-.365228.138457-.439235.250652-.02146-.133678-.131289-.250652-.284062-.250652-.233938 0-.38671.152773-.458328.272136.0068-.04536.01195-.06682.01195-.06682.0068-.109806-.0068-.200518-.121743-.200518-.09787 0-.169487.03341-.212454.05963v.04303s.126521.0097.121742.288841l-.0097.804451v.0097h.238716c-.0097-.04536-.01913-.107417-.01913-.179025-.0049-.253041-.0049-.582459-.0049-.680329.05254-.06206.16232-.16233.336576-.16233.152783.0019.19575.105037.193361.334197l-.0049.572913c-.0019.04293 0 .08119.0049.114574h.233937c-.0406-.181414-.02622-.740001-.02389-.885616.05487-.0573.159941-.136068.319872-.136068.152782.0019.195749.105037.19336.334197l-.0049.572913c-.0019.04293 0 .08119.0049.114574zm-3.349086-1.110007c.169487 0 .274515.171877.274515.412972 0 .200518-.08119.322261-.217223.322261-.169487 0-.260199-.179035-.260199-.42252 0-.105027.02389-.312713.202907-.312713zm-.229169.940529c-.0049-.01671-.0068-.02622-.0068-.0406 0-.04536.02389-.08352.05487-.107417.06449.02389.133679.03584.202907.03584.243485 0 .475034-.157551.475034-.48459 0-.112195-.04536-.229159-.119353-.286451 0 0 .0049-.0019.0097-.0019.01913 0 .0406.02622.107417.02622.07877 0 .155171-.03098.155171-.109806 0-.01913-.0049-.0406-.01428-.06449 0 0-.01195.02865-.08353.02865h-.212455l-.04293.03108c-.04536-.04536-.155162-.06682-.22677-.06682-.296008 0-.498915.202907-.498915.477423 0 .198138.09314.32226.200518.3891-.07401.03341-.167099.100259-.167099.212454 0 .415361.77821.105037.77821.393878 0 .143226-.171877.238706-.353301.238706-.152773 0-.293609-.05012-.293609-.171867 0-.02146.0049-.04293.01195-.06682-.02389-.03584-.06449-.0573-.09788-.0573-.09304 0-.1289.07877-.1289.128901 0 .174266.241095.269746.496516.269746.276905 0 .570524-.140836.570524-.396257 0-.448782-.761485-.19336-.816398-.377164zm-.539221.169478c-.04293-.202897-.01913-.825935-.02389-.926194-.0049-.145615-.119354-.284072-.286452-.284072-.233938 0-.38672.152773-.458328.272136l.01195-.06682c.0068-.109806-.0068-.200518-.121743-.200518-.09787 0-.169487.03341-.212454.05963l.0019.04303s.124122.0097.119354.288841l-.0097.804451v.0097h.238707c-.0097-.04536-.01913-.107417-.01913-.179025-.0049-.253041-.0049-.582459-.0049-.680329.05254-.06206.162329-.16233.336586-.16233.152773.0019.195749.105037.19336.334197l-.0049.572913c-.0019.04293 0 .08119.0049.114574zm-1.416272 0c-.0097-.04536-.01428-.109806-.01428-.179025 0-.541882.01428-.825945.01428-.825945.0068-.109806-.0049-.200518-.119353-.200518-.09787 0-.169488.03341-.212454.05963v.04303s.124131.0097.114584.288841l-.01913.804452v.0097zm-.260199-1.530137c0 .06682.0573.1289.12891.1289.06682 0 .126511-.06206.126511-.1289 0-.06682-.05963-.124132-.126511-.124132-.07158 0-.12891.0573-.12891.124132zm-.393607 1.530137c-.04293-.202897-.01913-.825935-.02389-.926194-.0049-.145615-.119353-.284072-.286451-.284072-.233938 0-.386721.152773-.458329.272136l.01195-.06682c.0068-.109806-.0068-.200518-.121742-.200518-.09788 0-.169488.03341-.212454.05963l.0019.04303s.124132.0097.119363.288841l-.0097.804451v.0097h.238706c-.0097-.04536-.01913-.107417-.01913-.179025-.0049-.253041-.0049-.582459-.0049-.680329.05254-.06206.16233-.16233.336586-.16233.152773.0019.19574.105037.19336.334197l-.0049.572913c-.0019.04293 0 .08119.0049.114574zm-1.705112 0c-.02389-.08352-.02389-.422519-.02389-.506064 0-.16232.05487-.525167.243485-.525167.03584 0 .08353.01437.109806.08119.01671.0049.03098.0049.04536.0049.08119 0 .121742-.06449.121742-.121743 0-.07877-.0573-.143225-.164709-.143225-.219612 0-.362838.293619-.370005.310324l.01195-.105028c.0049-.02389.0068-.04536.0068-.06449 0-.07877-.01913-.136068-.114584-.136068-.09787 0-.169488.03341-.212455.05963v.04303c.01428 0 .116964.0097.116964.288841 0 .331807-.0097.670773-.0097.813999zm-.916763-.255421c-.02389.05011-.133679.114585-.253042.114585-.13129 0-.186193-.09547-.186193-.176646 0-.231548.444003-.236327.446392-.236327 0 0-.0068.248263-.0068.298388zm.253031.09788c-.02146-.04536-.03341-.16233-.03341-.248264 0-.362838.0049-.412972.0049-.463097 0-.243494-.169488-.341364-.432077-.341364-.183803 0-.381932.07644-.381932.219612 0 .06925.05487.107427.114575.107427.02865 0 .0573-.0068.08119-.02389 0-.0068-.0019-.01671-.0019-.02389 0-.08595.07158-.169488.183814-.169488.19335 0 .22439.157552.22439.346133 0 .04536-.0019.09547-.0049.143226-.05973-.01428-.119353-.02389-.179035-.02389-.25781 0-.4822.126511-.4822.35806 0 .152782.102648.307944.327038.307944.126521 0 .295999-.08828.341355-.233937 0 .03584.02146.233937.181424.233937.06925 0 .176645-.03108.222001-.05963v-.04293c-.0068 0-.119353.0049-.164709-.08595zm-1.124779-.513232s0-.02865 0-.05487c0-.116973-.01913-.48459-.432066-.48459-.303167 0-.501296.288841-.501296.673172.0068.401036.236327.568134.489359.568134.22677 0 .465487-.150393.465487-.334196 0-.02865-.0097-.0573-.0097-.0573-.08595.131289-.236327.210065-.372394.210065-.202908 0-.350902-.145615-.350902-.403425 0-.03341 0-.05963-.0019-.09547l.575293.0068c.05011 0 .09314-.0019.138457-.02865zm-.465486-.405814c.176645 0 .255421.169487.255421.32226l-.510842.0097c.04293-.186192.09787-.331807.255421-.331807zm-.658137 1.076587c.05011-.05011.05973-.217223.02865-.2578h-.04536c-.01428.07158-.109807.126511-.250643.126511h-.274515c-.0068-.13129-.0068-.331808-.0068-.498906 0-.327039.01195-.677941.02389-.945298-.04536-.02146-.09314-.02865-.136068-.02865-.09071 0-.164709.03098-.164709.03098l-.01671.0406c.02622.0406.06206.07401.06206.262588 0 1.107618-.0019 1.191172-.0049 1.269938z" fill="#ffb380" stroke-width=".29839"/><g fill="#fcd198" stroke-width=".264583"><path d="m34.315873 11.61006q.235645-.192236.458887-.47749.223242-.285254.396875-.601514.173633-.31626.279053-.6449217.10542-.3286622.10542-.6139161 0-.2294434-.111621-.3844727-.10542-.1612305-.390674-.1612305-.241846 0-.533301.1116211-.291455.1116211-.589111.3100587-.297657.1922363-.582911.4650879-.279052.2666504-.496093.5829103-.217041.31626-.353467.663525-.130225.347266-.130225.700733 0 .303857.07441.527099.07441.217041.217041.390674.142627.167432.341065.310059.204638.142627.465088.297656-.781348.328662-1.438672.812354-.651123.47749-1.122412 1.035595-.47129.558106-.73794 1.153419-.260449.589111-.260449 1.134814 0 .192236.09302.341064.09302.142627.291455.142627.26045 0 .582911-.142627.322461-.142626.669726-.37207.347266-.229443.694532-.514697.353466-.285254.657324-.570508.310058-.291455.551904-.551904.241846-.26045.384473-.440284.37207.297657.644922.533301.272851.229444.508496.42168-.10542.142627-.353467.396875-.241846.254248-.58291.545703-.334863.291455-.73794.595313-.396875.297656-.812353.539502-.409278.241845-.812354.396875-.403075.155029-.737938.155029-.291455 0-.58291-.09922-.285254-.09922-.545704-.26665-.260449-.161231-.483691-.378272-.217041-.21084-.378272-.440283-.167431-.229443-.26665-.458887-.09922-.229443-.10542-.427881v-.148827q0-.651123.229443-1.227832.229444-.576709.626319-1.0604.403076-.489893.936377-.880567.539502-.396875 1.153418-.68833-.111621-.111621-.223242-.241846-.10542-.130224-.192237-.291455-.08061-.167431-.130224-.37207-.04961-.204639-.04961-.458887 0-.434082.15503-.84956.155029-.4154788.415478-.781348.260449-.3658691.607715-.6697266.353467-.3038574.744141-.5208985.390674-.2232422.799951-.3472656.409277-.1240234.79375-.1240234.638721 0 .892969.1302246.21084.1116211.452685.3224609.248047.2108399.458887.4650879.21084.2480469.353467.5084962.142627.254248.142627.4588867 0 .3534668-.117822.7379398-.117823.384472-.310059.750342-.192236.359668-.440283.682129-.248047.316259-.502295.5333z"/><path d="m37.106401 17.209719q.09922 0 .26665-.08682.173633-.08682.378272-.217041.204638-.136426.42788-.297656.223243-.161231.415479-.31626.198437-.155029.353467-.285254.155029-.130224.229443-.192236.05581.05581.130225.142627.08062.08682.148828.16123-.136426.136426-.341065.334864-.204638.192236-.446484.396875-.235644.204638-.496094.409277-.254248.204639-.502295.365869-.241845.161231-.452685.260449-.21084.09922-.353467.09922-.192236 0-.409277-.136426-.21084-.136425-.396875-.316259-.186036-.186036-.31626-.372071-.130225-.186035-.148828-.279052-.0124-.03721-.0124-.08682 0-.05581 0-.117822 0-.310059.08062-.781348.07441-.47749.204638-1.00459.130225-.533301.297656-1.054199.173633-.5271.359668-.930176.378272-.824756.775147-1.463477.403076-.63872.787549-1.110009.384473-.4774906.737939-.7999516.353467-.3224609.63252-.5208984.285254-.1984375.47749-.285254.198438-.086816.272852-.086816.117822.043408.235644.1302246.124024.080615.229444.1736329.10542.093018.186035.1860351.08061.086816.117822.1302247.04961.049609.06201.099219.0186.043408.0186.1178223 0 .1488281-.07441.4092774-.07441.260449-.279052.663526-.204639.396875-.570508.95498-.359668.558106-.942578 1.302246-.272852.347266-.576709.706934-.26045.310059-.601514.675928-.341065.365869-.700733.700732-.179834.682129-.254248 1.203028-.06821.520898-.06821.812353 0 .192237.03101.248047.03101.05581.08682.05581zm.992187-4.54546q-.10542.235645-.198437.458887-.08682.223242-.167432.440283.192236-.217041.347266-.415478.16123-.198438.272851-.341065.130225-.167431.235645-.316259.434082-.607715.750342-1.116211.316259-.508497.520898-.892969.204639-.390674.297656-.6449221.09922-.2604493.09922-.3720704 0-.031006-.0062-.043408 0-.018604-.03101-.018604-.05581 0-.254248.1860352-.198437.179834-.489893.5767093-.285253.396875-.644921 1.016992-.353467.613916-.731739 1.48208z"/><path d="m39.574467 17.984865q-.09302 0-.235645-.06821-.142627-.06201-.272851-.16123-.130225-.09302-.223242-.21084-.09302-.117822-.09302-.229443.06201-.272852.167432-.626319.10542-.353467.229443-.719336.117822-.365869.254248-.713135.130225-.353466.235645-.626318.111621-.272852.192236-.440283.08061-.167432.10542-.167432.03721 0 .186035.08061.148828.08062.310059.198438.167431.111621.297656.241846.130225.124023.130225.217041 0 .0186-.0062.04961-.0062.0248-.0186.06821-.04961.155029-.130225.365869-.07441.21084-.16123.440283-.08682.223243-.173633.452686-.08682.223242-.155029.42168-.06821.198437-.111621.347265-.04341.148828-.04341.217041 0 .03721.03721.03721.06821 0 .204639-.08061.136426-.08062.310059-.21084.179834-.130224.37207-.285254.192236-.155029.365869-.303857.179834-.155029.322461-.279053.142627-.124023.217041-.186035.05581.05581.130225.142627.08061.08682.148828.16123-.136426.136426-.341065.334864-.204638.192236-.446484.396875-.235645.204638-.496094.409277-.254248.204639-.496094.365869-.241845.161231-.452685.260449-.21084.09922-.359668.09922zm2.455664-5.853906q-.0062.0248-.04961.124023-.03721.09302-.09302.223242-.05581.124024-.130224.266651-.06821.136425-.136426.254248-.06821.117822-.130225.198437-.06201.07441-.09922.07441-.111621-.0062-.272851-.06821-.15503-.06201-.303858-.136425-.142627-.08062-.248047-.15503-.09922-.07441-.09922-.10542 0-.130224.07441-.334863.07441-.21084.173633-.403076.09922-.198438.198437-.341065.10542-.142627.161231-.142627.111621 0 .272851.07442.161231.06821.310059.16123.155029.09302.260449.186035.111621.08682.111621.124024z"/><path d="m43.499809 14.648635q-.07441.192236-.148829.396875-.07441.204638-.142627.415478.390674-.465088.644922-.744141.26045-.279052.427881-.434082.173633-.155029.285254-.217041.111621-.06201.204639-.09302.05581 0 .186035.06201.136426.06201.285254.15503.155029.08682.291455.186035.136426.09302.192236.155029.04961.04961.0124.142627-.07441.198438-.148828.403076-.06821.198438-.136426.409278.415478-.47749.694531-.762744.279053-.291455.452686-.446485.179834-.155029.279052-.204638.09922-.04961.15503-.04961.08061 0 .241845.08061.161231.08062.322461.198438.167432.117822.285254.241846.124024.124023.124024.217041 0 .0186-.0062.04961-.0062.0248-.0186.06821-.04961.155029-.130224.365869-.07442.21084-.161231.440283-.08682.223243-.173633.452686-.08682.223242-.155029.42168-.06821.198437-.111621.347265-.04341.148828-.04341.217041 0 .03721.03721.03721.06821 0 .204638-.08061.136426-.08062.310059-.21084.179834-.130224.37207-.285254.192237-.155029.365869-.303857.179834-.155029.322461-.279053.142627-.124023.217041-.186035.05581.05581.130225.142627.08062.08682.148828.16123-.136426.136426-.341064.334864-.204639.192236-.446485.396875-.235644.204638-.496094.409277-.254248.204639-.496093.365869-.241846.161231-.452686.260449-.21084.09922-.359668.09922-.09302 0-.235644-.06821-.142627-.06201-.272852-.16123-.130225-.09302-.223242-.21084-.09302-.117822-.09302-.229443.05581-.254248.148828-.576709.09302-.322461.204639-.657325.111621-.341064.229443-.669726.124024-.328662.235645-.607715-.124023.148828-.328662.359668-.204639.21084-.465088.558105-.260449.341065-.558106.849561-.297656.508496-.595312 1.240234-.03721.124024-.179834.124024-.07441 0-.186035-.03101-.10542-.02481-.229444-.08682-.117822-.05581-.248047-.142627-.124023-.08682-.235644-.21084 0-.04341.04341-.260449.04961-.223243.136426-.564307.09302-.341065.217041-.762744.124023-.42168.279053-.868164-.148828.16123-.372071.415478-.223242.248047-.47749.607715-.254248.353467-.520898.824756-.266651.471289-.502295 1.066601-.03721.130225-.173633.130225-.10542 0-.235645-.06201-.136425-.05581-.272851-.155029-.142627-.09302-.279053-.21084-.142627-.117822-.254248-.235644 0-.03721.03721-.21084.03101-.173633.09302-.434082.06201-.266651.155029-.601514.08682-.341064.204639-.713135.117822-.37207.260449-.756543.142627-.390674.303857-.750342.260449.124024.576709.303858.322461.179834.589112.42168z"/><path d="m52.255863 17.098098q0 .03721.03721.03721.06821 0 .204639-.08062.142627-.08061.322461-.204638.179834-.124024.378272-.279053.198437-.155029.378271-.297656.179834-.148828.322461-.272852.148828-.124023.223242-.186035.05581.05581.130225.142627.08062.08682.148828.16123-.136426.136426-.347266.328662-.204638.192237-.452685.403077-.241846.204638-.508496.409277-.26045.198438-.508497.359668-.248046.155029-.465087.254248-.217041.09922-.359668.09922-.10542 0-.235645-.06821-.130225-.06201-.248047-.167432-.111621-.09922-.192236-.223242-.07441-.124023-.07441-.235644 0-.09922.07441-.378272.07441-.279053.179834-.651123-.279053.378271-.545703.669727-.266651.285254-.489893.489892-.223242.204639-.390674.328662-.167431.130225-.248047.186035-.04961.03101-.117822.04341-.06821.0186-.124023.0186-.117823 0-.26045-.07441-.142627-.06821-.260449-.173633-.124023-.10542-.204639-.235644-.08682-.130225-.08682-.248047 0-.136426.09302-.452686.08682-.316259.241845-.756543.148828-.440283.353467-.985986.204639-.545703.440283-1.147217.0124-.03101.0186-.02481.0124 0 .03721 0 .117822.0186.322461.09922.204639.07441.396875.167432.198437.09302.341064.179834.142627.08061.142627.111621-.0186.04341-.09922.204639-.07441.16123-.179834.390673-.09922.223243-.217041.489893-.111622.260449-.21084.502295-.09302.241846-.15503.440283-.06201.192237-.06201.285254 0 .02481.0248.02481.04961 0 .217041-.130225.167432-.136426.409278-.42168.248047-.285253.558105-.731738.310059-.452685.644922-1.085205l.173633-.489893q.0186-.04961.08062-.04961.04341 0 .186035.08682.148829.08062.310059.192237.167432.10542.297656.217041.130225.10542.142627.148828 0 .0186-.0062.06821-.0062.04341-.0186.07441-.06201.167432-.142627.396875-.08062.223242-.167432.471289-.08061.241846-.161231.489893-.08061.248046-.148828.465088-.06201.210839-.10542.378271-.03721.161231-.03721.235645z"/><path d="m65.526373 10.059767q0 .322461-.05581.762744-.05581.434082-.192236 1.00459-.130225.564307-.359668 1.265039-.223243.700733-.558106 1.556495-.365869.930175-.750342 1.649511-.378271.713135-.713135 1.209229-.328662.496094-.576709.768945-.248047.272852-.347265.322461-.161231.07441-.353467.07441-.161231 0-.328662-.04961-.167432-.04961-.285254-.155029-.07441-.06201-.248047-.31626-.167432-.254248-.359668-.719336-.192236-.471289-.37207-1.172022-.179834-.700732-.266651-1.668115-.26665.347266-.58291.744141-.31626.396875-.644922.79375-.328662.390674-.657324.768945-.322461.37207-.607715.682129-.285254.310059-.508496.533301-.223242.229443-.347266.328662-.06821-.06201-.155029-.148828-.09302-.08682-.186035-.186035-.09922-.09302-.186035-.192237-.09302-.09922-.161231-.186035.905371-.79375 1.835547-2.238623.930176-1.444873 1.773535-3.485059.10542.08682.198438.173633.09302.08682.179834.173633.02481-.868164.05581-1.544092.03721-.675928.08062-1.1906252.04341-.5208984.08062-.8929688.04341-.3720703.08062-.6325195.03721-.2604493.06201-.4216797.03101-.1674317.04961-.2666504.06201.05581.186035.1798339.124024.1178223.279053.2666505.155029.1488281.322461.3162597.173633.1612305.322461.3100587.155029.1488281.26665.2666504.117823.1178222.161231.1736328-.08061.3100586-.186035.7255371-.09922.4092775-.192237.9673825-.08682.551905-.148828 1.26504-.06201.713134-.06201 1.624707.0062.84956.06201 1.64331.02481.341065.05581.706934.03721.359668.08682.713135.05581.347265.130225.669726.07441.322461.167432.576709.775146-1.277441 1.234033-2.474267.465088-1.196827.713135-2.344043.248046-1.147217.322461-2.257227.07441-1.1162112.07441-2.226221v-.4278759q.322461.2480469.613916.5519044.291455.3038574.514697.576709.260449.3162598.483691.6387207z"/><path d="m68.633162 17.098098q0 .03721.03721.03721.05581 0 .186035-.08062.130225-.08061.297657-.204638.167431-.124024.353466-.279053.192237-.155029.36587-.303858.173632-.148828.310058-.272851.142627-.124024.217041-.192236.05581.05581.136426.148828.08682.09302.155029.167431-.148828.136426-.359668.334864-.204638.192236-.446484.403076-.235645.21084-.489893.42168-.254248.204638-.496093.365869-.241846.16123-.458887.260449-.217041.10542-.378272.10542-.111621 0-.248047-.04341-.130224-.04341-.241845-.124024-.111621-.07441-.186036-.179834-.07441-.10542-.07441-.235644 0-.04961-.0062-.117823 0-.07441.0124-.186035.0124-.117822.04961-.279052.03721-.167432.111621-.409278-.204639.217041-.483691.452686-.272852.235644-.576709.446484-.303858.21084-.613916.378272-.303858.173632-.564307.260449-.03101.0124-.04961.0124-.0186 0-.03721 0-.06201 0-.16123-.06201-.10542-.06201-.204639-.167431-.09922-.09922-.167431-.229444-.07441-.130224-.07441-.260449 0-.03721.03721-.248047.03721-.21084.179834-.5333.136425-.328663.409277-.731739.272852-.409277.744141-.837158.241845-.217041.520898-.409277.235645-.161231.539502-.328663.303858-.167431.638721-.26665.0124 0 .0186-.0062.0124-.0062.03101.0062.07441.0248.173633.08061.10542.04961.204639.111621.10542.05581.179834.117823.08062.05581.10542.09302.0062.0124 0 .0186l-.0124.0124q-.279052.148828-.527099.334863-.248047.179834-.440284.341065-.223242.192236-.415478.378271-.452686.446485-.626318.775147-.173633.322461-.173633.465088 0 .10542.08682.10542.08682 0 .217041-.06821.136426-.07441.303858-.192236.167431-.124024.365869-.285254.204638-.167432.421679-.347266.192237-.155029.372071-.334863.155029-.148828.322461-.341065.167431-.192236.285254-.390674 0-.0062.0062-.0124.0062-.0062.0186 0 .06821.04961.15503.167432.08682.111621.16123.248047.07441.136425.124024.26665.05581.124023.05581.192236-.142627.291455-.223242.533301-.07441.235645-.117822.415479-.03721.179834-.04961.310058-.0062.124024-.0062.192237z"/><path d="m70.282674 15.932277q.142627-.136426.328663-.310058.179834-.173633.359668-.378272.186035-.204639.341064-.440283.16123-.235645.254248-.508496.02481-.142627.07441-.297657.05581-.16123.117822-.291455.06821-.130224.130225-.217041.06201-.08682.111621-.08682.07441.04341.223242.167432.148828.117822.297657.254248.148828.136425.260449.254248.117822.111621.117822.136425-.07441.285254-.07441.514698.0062.229443.03721.452685.03721.223243.07441.477491.04341.248047.04341.576709 0 .198437-.06821.458886-.06201.254248-.223242.458887.31626-.186035.626319-.415478.310058-.235645.551904-.440284.285254-.241845.545703-.483691l.279053.303857q-.204639.192237-.446485.409278-.235644.217041-.496093.427881-.254248.210839-.520899.403076-.26665.192236-.527099.341064-.26045.148828-.502295.235645-.241846.08682-.452686.08682-.179834 0-.396875-.08682-.217041-.08682-.409277-.21084-.192237-.124023-.334864-.260449-.142627-.136426-.167431-.229444 0-.0124.0248-.04961.02481-.04341.06201-.08682.03101-.04341.06821-.07441.03101-.03721.04961-.03721.03721 0 .148829.05581.111621.05581.37207.05581.142627 0 .241846-.07441.105419-.07441.173632-.198438.06821-.124023.09922-.285254.03101-.16123.03101-.341064 0-.26045-.02481-.502295-.0248-.248047-.05581-.477491-.10542.124024-.241846.26045-.136426.136425-.279053.272851-.136425.130225-.279052.260449-.136426.124024-.248047.223243l-.297657-.303858z"/><path d="m74.797126 17.984865q-.09302 0-.235645-.06821-.142626-.06201-.272851-.16123-.130225-.09302-.223242-.21084-.09302-.117822-.09302-.229443.06201-.272852.167432-.626319.10542-.353467.229443-.719336.117822-.365869.254248-.713135.130225-.353466.235645-.626318.111621-.272852.192236-.440283.08062-.167432.10542-.167432.03721 0 .186035.08061.148828.08062.310059.198438.167431.111621.297656.241846.130225.124023.130225.217041 0 .0186-.0062.04961-.0062.0248-.0186.06821-.04961.155029-.130225.365869-.07441.21084-.16123.440283-.08682.223243-.173633.452686-.08682.223242-.155029.42168-.06821.198437-.111621.347265-.04341.148828-.04341.217041 0 .03721.03721.03721.06821 0 .204639-.08061.136426-.08062.310059-.21084.179834-.130224.37207-.285254.192236-.155029.365869-.303857.179834-.155029.322461-.279053.142627-.124023.217041-.186035.05581.05581.130225.142627.08062.08682.148828.16123-.136426.136426-.341064.334864-.204639.192236-.446485.396875-.235644.204638-.496094.409277-.254248.204639-.496093.365869-.241846.161231-.452686.260449-.21084.09922-.359668.09922zm2.455664-5.853906q-.0062.0248-.04961.124023-.03721.09302-.09302.223242-.05581.124024-.130224.266651-.06821.136425-.136426.254248-.06821.117822-.130225.198437-.06201.07441-.09922.07441-.111621-.0062-.272851-.06821-.155029-.06201-.303858-.136425-.142626-.08062-.248046-.15503-.09922-.07441-.09922-.10542 0-.130224.07441-.334863.07441-.21084.173633-.403076.09922-.198438.198437-.341065.10542-.142627.161231-.142627.111621 0 .272851.07442.161231.06821.310059.16123.155029.09302.260449.186035.111621.08682.111621.124024z"/></g></g></svg>