<svg height="100" viewBox="0 0 26.458333 26.458334" width="100" xmlns="http://www.w3.org/2000/svg"><g transform="translate(855.54593 -362.98544)"><path d="m-855.54596 362.98544h26.458332v26.458332h-26.458332z" fill="#0b1320" opacity="0"/><path d="m29.882 22.364c3.03-6.001 2.891-12.665-2.121-17.678-6.572-6.572-17.44-6.232-23.567 1.022-5.325 6.304-4.861 15.876 1.009 21.675 4.465 4.411 10.621 5.383 16.193 3.466l2.828 2.885h5.027v4h4v4h5v5h3v2.776c0 .807.039 1.046.551 1.557.388.388.902.625 1.449.667h8v-9zm-14.142-7.071c-1.953 1.953-5.118 1.953-7.071 0s-1.953-5.118 0-7.071 5.118-1.953 7.071 0c1.952 1.952 1.952 5.118 0 7.071z" fill="#fcd198" transform="matrix(-.4877877 0 0 .4877877 -829.69938 363.59709)"/></g></svg>