<svg height="100" viewBox="0 0 100 100" width="100" xmlns="http://www.w3.org/2000/svg"><g transform="matrix(2 0 0 2 0 -100)"><path d="m0 50h50v50h-50z" fill-opacity=".017621" opacity=".269"/><path d="m33.960937 59.994557h-6.710937c-.625 0-1.226562.234374-1.6875.656249l-7.679688 7.03125c-.0078.0078-.01562.02344-.02343.03125-1.296876 1.21875-1.273437 3.164064-.164063 4.375.992188 1.085938 3.078126 1.374999 4.382813.210937.0078-.0078.02344-.0078.03125-.01562l6.242184-5.718752c.507812-.460937 1.304687-.429688 1.765625.07813.46875.507813.429687 1.296876-.07813 1.765625l-2.039061 1.86718 11.375 9.234375c.226562.1875.429687.390625.617187.601562v-15.117187l-4.265624-4.265625c-.460938-.46875-1.101563-.734374-1.765626-.734374zm8.539063 5.015624v17.492188c0 1.382812 1.117187 2.499999 2.5 2.499999h5v-19.992187zm3.75 17.492188c-.6875 0-1.25-.562499-1.25-1.25 0-.6875.5625-1.250001 1.25-1.250001s1.249999.562501 1.249999 1.250001c0 .687501-.562499 1.25-1.249999 1.25zm-46.25 2.492187h5c1.3828126 0 2.5000002-1.117187 2.5000002-2.5v-17.484375h-7.5000002zm3.75-4.992188c.6875001 0 1.25.562501 1.25 1.250001 0 .687501-.5624999 1.25-1.25 1.25-.6875 0-1.25-.562499-1.25-1.25 0-.695312.5625-1.250001 1.25-1.250001zm34.054687 1.453125-11.664062-9.46875-2.34375 2.148439c-2.320312 2.117187-5.875 1.914061-7.945313-.343752-2.101562-2.296874-1.9375-5.851561.34375-7.945312l6.390625-5.851561h-6.546875c-.664062 0-1.296874.265624-1.765624.734374l-4.273438 4.265625v17.492188h1.429687l7.070313 6.398437c2.140625 1.742188 5.289063 1.414063 7.03125-.726562l.01562-.01562 1.398439 1.210936c1.242187 1.015626 3.078125.820314 4.085938-.421873l2.453124-3.015625.421874.34375c1.070313.867186 2.648438.710937 3.515626-.367188l.742187-.914063c.875002-1.078124.710938-2.648438-.359375-3.523438z" fill="#fcd198" stroke-width=".078125"/></g></svg>