<svg height="100" viewBox="0 0 100 100" width="100" xmlns="http://www.w3.org/2000/svg"><path d="m0-.021315h100v100h-100z" fill-opacity=".017621" opacity=".269"/><path d="m88.446414 90.60131h-3.62702v-82.6960572c0-2.4038067-1.948617-4.3524244-4.352425-4.3524244h-60.933939c-2.403806 0-4.352422 1.9486177-4.352422 4.3524244v82.6960572h-3.627021c-1.201813 0-2.1762122.9744-2.1762122 2.176214v3.627018h81.2452502v-3.627018c0-1.201814-.974398-2.176214-2.176211-2.176214zm-55.856112-73.265805c0-1.201813.974399-2.176212 2.176213-2.176212h7.254041c1.201813 0 2.176212.974399 2.176212 2.176212v7.25404c0 1.201813-.974399 2.176211-2.176212 2.176211h-7.254041c-1.201814 0-2.176213-.974398-2.176213-2.176211zm0 17.409696c0-1.201814.974399-2.176212 2.176213-2.176212h7.254041c1.201813 0 2.176212.974398 2.176212 2.176212v7.254041c0 1.201813-.974399 2.176212-2.176212 2.176212h-7.254041c-1.201814 0-2.176213-.974399-2.176213-2.176212zm9.430254 26.839951h-7.254041c-1.201814 0-2.176213-.974399-2.176213-2.176214v-7.254039c0-1.201814.974399-2.176212 2.176213-2.176212h7.254041c1.201813 0 2.176212.974398 2.176212 2.176212v7.254039c0 1.201815-.974399 2.176214-2.176212 2.176214zm13.782674 29.016158h-11.606462v-15.233483c0-1.201814.9744-2.176213 2.176212-2.176213h7.254038c1.201814 0 2.176212.974399 2.176212 2.176213zm11.606467-31.192372c0 1.201815-.9744 2.176214-2.176211 2.176214h-7.254042c-1.201813 0-2.176214-.974399-2.176214-2.176214v-7.254039c0-1.201814.974401-2.176212 2.176214-2.176212h7.254042c1.201811 0 2.176211.974398 2.176211 2.176212zm0-17.409696c0 1.201813-.9744 2.176212-2.176211 2.176212h-7.254042c-1.201813 0-2.176214-.974399-2.176214-2.176212v-7.254041c0-1.201814.974401-2.176212 2.176214-2.176212h7.254042c1.201811 0 2.176211.974398 2.176211 2.176212zm0-17.409697c0 1.201813-.9744 2.176211-2.176211 2.176211h-7.254042c-1.201813 0-2.176214-.974398-2.176214-2.176211v-7.25404c0-1.201813.974401-2.176212 2.176214-2.176212h7.254042c1.201811 0 2.176211.974399 2.176211 2.176212z" fill="#fcd198" stroke-width=".181351"/></svg>