<svg height="100" viewBox="0 0 26.458333 26.458334" width="100" xmlns="http://www.w3.org/2000/svg"><path d="m0 0h26.458332v26.458332h-26.458332z" fill="#fab457" opacity="0" stroke-linecap="round" stroke-width=".529167"/><g transform="matrix(1.4433263 0 0 1.4433263 -58.913953 -7.38659)"><g transform="matrix(.04097961 0 0 .04097961 41.583109 5.882683)"><path d="m345.01 207.769v.001l-95.01 89.73 135 112.5v-240z" fill="#fcd198"/><path d="m25 170v240l135-112.5z" fill="#fcd198"/><path d="m205 340-45-42.5-135 112.5h180z" fill="#fcd198"/><path d="m250 297.5-45 42.5v70h180z" fill="#fcd198"/><path d="m64.993 132.229-39.993 37.771h39.99z" fill="#fcd198"/><path d="m385 170-39.995-37.773.003 37.773z" fill="#fcd198"/><path d="m205 0-63.787 60.243 127.413-.151z" fill="#fcd198"/><path d="m345.01 207.769 39.99-37.769h-39.992z" fill="#fab457"/><path d="m205 340-140.014-132.235.004-37.765h-39.99l135 127.5z" fill="#fab457"/></g><path d="m44.24621 14.396812 5.737719 5.418938 1.844083-1.741633 3.893472-3.6771v-.000041l-.000082-1.547759-.000123-1.547923-.000205-2.9598344-3.129776.00377-5.221335.00619-3.123179.00373-.000287 2.9462294-.000123 1.547841z" fill="#fddcb0" stroke-width=".04098"/></g></svg>