<svg height="100" viewBox="0 0 26.458333 26.458335" width="100" xmlns="http://www.w3.org/2000/svg" xmlns:xlink="http://www.w3.org/1999/xlink"><clipPath id="a"><path d="m46.458336-3.333319h55.484707v107.08334h-55.484707z"/></clipPath><clipPath id="b"><path d="m-53.541668-3.333319h55.484707v107.08334h-55.484707z" transform="scale(-1 1)"/></clipPath><g transform="matrix(.4299368973 0 0 .4299368973 .76099001519 .76099354394)"><path d="m29 0s-6.667 8-22 8v19.085c0 9.966 4.328 19.577 12.164 25.735 2.773 2.18 6.044 4.055 9.836 5.18 3.792-1.125 7.062-3 9.836-5.18 7.836-6.158 12.164-15.769 12.164-25.735v-19.085c-15.333 0-22-8-22-8z" fill="#fbbf6f"/><path d="m7 8v19.085c0 9.966 4.328 19.577 12.164 25.735 2.774 2.18 6.044 4.055 9.836 5.18v-58s-6.667 8-22 8z" fill="#faae49"/></g><g clip-path="url(#b)" transform="matrix(.15459823018 0 0 .15459823018 6.03980443512 4.63882791416)"><path d="m0 0h100v100h-100z" fill="none" stroke-width="1.813832"/><g transform="matrix(2.0798673 0 0 2.0798673 -9.639774 -102.8703)"><path d="m12.905606 64.080146.471991.110622v4.306893c-.516238.309745-.884976.84811-.884976 1.497091 0 .619484.339242 1.135722.818601 1.452843l-1.150473 4.594512c-.125367.508869.154876 1.032476.560492 1.032476h3.082676c.405616 0 .685859-.523607.560485-1.032476l-1.150473-4.594512c.479366-.317121.818608-.833359.818608-1.452843 0-.648981-.368745-1.187346-.884982-1.497091v-3.879157s21.243999 1.55325 28.783944-.538358c.28296-.07849 0-2.323074 0-2.323074l-14.04167-6.51106c-.958726-.228619-1.969075-.228619-2.927801 0l-14.056422 6.503684c-1.334839.324497-1.334839 2.005953 0 2.33045z" fill="#fbbf6f"/><g stroke="#fbbf6f" transform="translate(0 47.000053)"><path d="m21.99453 39.250519-6.698031 3.653549c-.393055.214316-.746296.477765-1.074972.764932 3.905138 3.292684 8.946239 5.279137 14.454092 5.279137 5.467193 0 10.476104-1.956805 14.370229-5.204592-.359171-.303262-.748838-.576029-1.180859-.791192l-7.172408-3.585781c-.926729-.463364-1.512076-1.410424-1.512076-2.446429v-2.814071c.20161-.229564.432021-.524356.678528-.872514.977555-1.380776 1.717074-2.899628 2.229571-4.493026.919952-.283779 1.597633-1.133422 1.597633-2.143167v-3.003822c0-.660739-.293944-1.251168-.750532-1.664554v-4.342242s.891998-6.757328-8.259239-6.757328-8.259239 6.757328-8.259239 6.757328v4.342242c-.457435.413386-.750532 1.003815-.750532 1.664554v3.003822c0 .791193.415927 1.48751 1.038547 1.889883.750532 3.267271 2.715807 5.618824 2.715807 5.618824v2.744609c-.000847.99958-.548075 1.920379-1.426519 2.399838z" fill="#fbbf6f" stroke-width=".847101"/><path d="m26.953 1.004c-14.633-.25-26.699 11.41-26.949 26.043-.142 8.297 3.556 15.754 9.444 20.713.385-.336.798-.644 1.257-.894l7.907-4.313c1.037-.566 1.683-1.653 1.683-2.835v-3.24s-2.321-2.776-3.206-6.633c-.734-.475-1.226-1.296-1.226-2.231v-3.546c0-.78.347-1.477.886-1.965v-5.126s-1.053-7.977 9.75-7.977 9.75 7.977 9.75 7.977v5.126c.54.488.886 1.185.886 1.965v3.546c0 1.192-.8 2.195-1.886 2.53-.605 1.881-1.478 3.674-2.632 5.304-.291.411-.563.759-.801 1.03v3.322c0 1.223.691 2.342 1.785 2.888l8.467 4.233c.508.254.967.575 1.39.932 5.71-4.762 9.399-11.882 9.536-19.9.252-14.633-11.407-26.699-26.041-26.949z" fill="none" transform="matrix(.84710144 0 0 .84710144 6.227431 3.204659)"/></g></g></g><g clip-path="url(#a)" transform="matrix(.15459823018 0 0 .15459823018 6.03980443512 4.63882791416)"><path d="m0 0h100v100h-100z" fill="none" stroke-width="1.813832"/><g transform="matrix(2.0798673 0 0 2.0798673 -9.639774 -102.8703)"><path d="m12.905606 64.080146.471991.110622v4.306893c-.516238.309745-.884976.84811-.884976 1.497091 0 .619484.339242 1.135722.818601 1.452843l-1.150473 4.594512c-.125367.508869.154876 1.032476.560492 1.032476h3.082676c.405616 0 .685859-.523607.560485-1.032476l-1.150473-4.594512c.479366-.317121.818608-.833359.818608-1.452843 0-.648981-.368745-1.187346-.884982-1.497091v-3.879157s21.243999 1.55325 28.783944-.538358c.28296-.07849 0-2.323074 0-2.323074l-14.04167-6.51106c-.958726-.228619-1.969075-.228619-2.927801 0l-14.056422 6.503684c-1.334839.324497-1.334839 2.005953 0 2.33045z" fill="#fcd198" stroke-width=".073748"/><g stroke="#fcd198" transform="translate(0 47.000053)"><path d="m21.99453 39.250519-6.698031 3.653549c-.393055.214316-.746296.477765-1.074972.764932 3.905138 3.292684 8.946239 5.279137 14.454092 5.279137 5.467193 0 10.476104-1.956805 14.370229-5.204592-.359171-.303262-.748838-.576029-1.180859-.791192l-7.172408-3.585781c-.926729-.463364-1.512076-1.410424-1.512076-2.446429v-2.814071c.20161-.229564.432021-.524356.678528-.872514.977555-1.380776 1.717074-2.899628 2.229571-4.493026.919952-.283779 1.597633-1.133422 1.597633-2.143167v-3.003822c0-.660739-.293944-1.251168-.750532-1.664554v-4.342242s.891998-6.757328-8.259239-6.757328-8.259239 6.757328-8.259239 6.757328v4.342242c-.457435.413386-.750532 1.003815-.750532 1.664554v3.003822c0 .791193.415927 1.48751 1.038547 1.889883.750532 3.267271 2.715807 5.618824 2.715807 5.618824v2.744609c-.000847.99958-.548075 1.920379-1.426519 2.399838z" fill="#fcd198" stroke-width=".847101"/><path d="m26.953 1.004c-14.633-.25-26.699 11.41-26.949 26.043-.142 8.297 3.556 15.754 9.444 20.713.385-.336.798-.644 1.257-.894l7.907-4.313c1.037-.566 1.683-1.653 1.683-2.835v-3.24s-2.321-2.776-3.206-6.633c-.734-.475-1.226-1.296-1.226-2.231v-3.546c0-.78.347-1.477.886-1.965v-5.126s-1.053-7.977 9.75-7.977 9.75 7.977 9.75 7.977v5.126c.54.488.886 1.185.886 1.965v3.546c0 1.192-.8 2.195-1.886 2.53-.605 1.881-1.478 3.674-2.632 5.304-.291.411-.563.759-.801 1.03v3.322c0 1.223.691 2.342 1.785 2.888l8.467 4.233c.508.254.967.575 1.39.932 5.71-4.762 9.399-11.882 9.536-19.9.252-14.633-11.407-26.699-26.041-26.949z" fill="none" transform="matrix(.84710144 0 0 .84710144 6.227431 3.204659)"/></g></g></g><path d="m-.00001-.000003h26.458334v26.458334h-26.458334z" fill="#0b1320" opacity="0"/></svg>