<svg height="100" viewBox="0 0 100 100" width="100" xmlns="http://www.w3.org/2000/svg"><path d="m0 0h100v100h-100z" fill="#fbb259" opacity="0" stroke="#fcd096" stroke-width=".5"/><path d="m96.141011 53.199457-31.637936 31.637937c-2.824816 2.824816-7.721163.847444-7.721163-3.201458v-18.078821h-25.611663c-2.504671 0-4.519705-2.015036-4.519705-4.519704v-18.078821c0-2.504671 2.015034-4.519707 4.519705-4.519707h25.611663v-18.078821c0-4.03007 4.877516-6.026272 7.721163-3.201457l31.637936 31.637936c1.751386 1.770218 1.751386 4.632698 0 6.402916zm-57.43792 30.696331v-7.532843c0-1.242917-1.016934-2.259851-2.259852-2.259851h-15.818969c-3.333283 0-6.026273-2.692991-6.026273-6.026274v-36.157641c0-3.333284 2.69299-6.026275 6.026273-6.026275h15.818969c1.242918 0 2.259852-1.016934 2.259852-2.259851v-7.532844c0-1.242918-1.016934-2.259851-2.259852-2.259851h-15.818969c-9.981015 0-18.0788207 8.097804-18.0788207 18.078821v36.157641c0 9.981016 8.0978057 18.078822 18.0788207 18.078822h15.818969c1.242918 0 2.259852-1.016934 2.259852-2.259854z" fill="#fcd198" stroke-width=".188321"/></svg>