<?xml version="1.0" encoding="UTF-8" standalone="no"?>
<svg
   xmlns:dc="http://purl.org/dc/elements/1.1/"
   xmlns:cc="http://creativecommons.org/ns#"
   xmlns:rdf="http://www.w3.org/1999/02/22-rdf-syntax-ns#"
   xmlns:svg="http://www.w3.org/2000/svg"
   xmlns="http://www.w3.org/2000/svg"
   xmlns:sodipodi="http://sodipodi.sourceforge.net/DTD/sodipodi-0.dtd"
   xmlns:inkscape="http://www.inkscape.org/namespaces/inkscape"
   height="100"
   viewBox="0 0 79.374999 26.458336"
   width="300"
   version="1.1"
   id="svg16"
   sodipodi:docname="elimu_nasi_logo_modified.svg.2020_03_29_15_50_16.0.svg"
   inkscape:version="0.92.3 (2405546, 2018-03-11)">
  <metadata
     id="metadata22">
    <rdf:RDF>
      <cc:Work
         rdf:about="">
        <dc:format>image/svg+xml</dc:format>
        <dc:type
           rdf:resource="http://purl.org/dc/dcmitype/StillImage" />
      </cc:Work>
    </rdf:RDF>
  </metadata>
  <defs
     id="defs20" />
  <sodipodi:namedview
     pagecolor="#ffffff"
     bordercolor="#666666"
     borderopacity="1"
     objecttolerance="10"
     gridtolerance="10"
     guidetolerance="10"
     inkscape:pageopacity="0"
     inkscape:pageshadow="2"
     inkscape:window-width="1366"
     inkscape:window-height="738"
     id="namedview18"
     showgrid="false"
     showguides="true"
     inkscape:guide-bbox="true"
     inkscape:zoom="2.4866667"
     inkscape:cx="168.38009"
     inkscape:cy="56.551745"
     inkscape:window-x="0"
     inkscape:window-y="312"
     inkscape:window-maximized="1"
     inkscape:current-layer="svg16"
     inkscape:snap-global="false">
    <sodipodi:guide
       position="41.530675,-23.774809"
       orientation="0,1"
       id="guide835"
       inkscape:locked="false" />
    <sodipodi:guide
       position="43.185883,-34.458426"
       orientation="0,1"
       id="guide837"
       inkscape:locked="false" />
  </sodipodi:namedview>
  <path
     d="m-.02843152 0h79.37500252v26.458334h-79.37500252z"
     fill="none"
     stroke-width=".930162"
     id="path2" />
  <path
     d="m 65.676388,21.846243 c 0,-0.06925 -0.0573,-0.126511 -0.126521,-0.126511 -0.07158,0 -0.1289,0.0573 -0.1289,0.126511 0,0.07158 0.0573,0.12891 0.1289,0.12891 0.06925,0 0.126521,-0.0573 0.126521,-0.12891 z m -0.650494,0.09787 c -0.02389,-0.08352 -0.02389,-0.422519 -0.02389,-0.506064 0,-0.16232 0.05487,-0.525167 0.243485,-0.525167 0.03584,0 0.08353,0.01437 0.109806,0.08119 0.01671,0.0049 0.03098,0.0049 0.04536,0.0049 0.08119,0 0.121743,-0.06449 0.121743,-0.121743 0,-0.07877 -0.0573,-0.143225 -0.16471,-0.143225 -0.219621,0 -0.362847,0.293619 -0.370005,0.310324 l 0.01195,-0.105028 c 0.0049,-0.02389 0.0068,-0.04536 0.0068,-0.06449 0,-0.07877 -0.01913,-0.136068 -0.114584,-0.136068 -0.09787,0 -0.169478,0.03341 -0.212454,0.05963 v 0.04303 c 0.01437,0 0.116973,0.0097 0.116973,0.288841 0,0.331807 -0.0097,0.670773 -0.0097,0.813999 z M 64.426283,21.27334 c 0,0 0,-0.02865 0,-0.05487 0,-0.116973 -0.01913,-0.48459 -0.432067,-0.48459 -0.303166,0 -0.501295,0.288841 -0.501295,0.673172 0.0068,0.401036 0.236327,0.568134 0.489359,0.568134 0.22678,0 0.465486,-0.150393 0.465486,-0.334196 0,-0.02865 -0.0097,-0.0573 -0.0097,-0.0573 -0.08595,0.131289 -0.236327,0.210065 -0.372395,0.210065 -0.202897,0 -0.350902,-0.145615 -0.350902,-0.403425 0,-0.03341 0,-0.05963 -0.0019,-0.09547 l 0.575292,0.0068 c 0.05012,0 0.09314,-0.0019 0.138457,-0.02865 z m -0.465487,-0.405814 c 0.176646,0 0.255422,0.169487 0.255422,0.32226 l -0.510843,0.0097 c 0.04293,-0.186192 0.09787,-0.331807 0.255421,-0.331807 z m -0.786076,1.076587 c -0.0097,-0.04536 -0.01428,-0.109806 -0.01428,-0.179025 0,-0.541882 0.01428,-0.825945 0.01428,-0.825945 0.0068,-0.109806 -0.0049,-0.200518 -0.119353,-0.200518 -0.09787,0 -0.169487,0.03341 -0.212454,0.05963 v 0.04303 c 0,0 0.124131,0.0097 0.114584,0.288841 l -0.01913,0.804452 v 0.0097 z m -0.260189,-1.530137 c 0,0.06682 0.0573,0.1289 0.1289,0.1289 0.06682,0 0.126521,-0.06206 0.126521,-0.1289 0,-0.06682 -0.05973,-0.124132 -0.126521,-0.124132 -0.07158,0 -0.1289,0.0573 -0.1289,0.124132 z m -0.706621,0.434456 c 0.08828,0 0.212444,0.03817 0.264968,0.200518 l 0.04293,0.0097 c 0.0573,-0.0573 0.05487,-0.186193 0.03817,-0.241096 -0.05963,-0.03584 -0.140837,-0.08353 -0.327029,-0.08353 -0.22678,0 -0.398647,0.159941 -0.398647,0.350912 0,0.362838 0.601554,0.374774 0.601554,0.58245 0,0.126521 -0.116974,0.169487 -0.229169,0.169487 -0.136068,0 -0.32226,-0.100259 -0.341355,-0.19097 -0.01671,0.02865 -0.02389,0.0573 -0.02389,0.08352 0,0.133679 0.181424,0.245874 0.362838,0.245874 0.255421,0 0.427298,-0.150393 0.427298,-0.362847 0,-0.393869 -0.618259,-0.35807 -0.618259,-0.613491 0,-0.07877 0.07401,-0.150383 0.200518,-0.150383 z m -0.933478,0.84026 c -0.02389,0.05011 -0.133679,0.114585 -0.253042,0.114585 -0.131289,0 -0.186192,-0.09547 -0.186192,-0.176646 0,-0.231548 0.444002,-0.236327 0.446392,-0.236327 0,0 -0.0068,0.248263 -0.0068,0.298388 z m 0.253032,0.09788 c -0.02146,-0.04536 -0.03341,-0.16233 -0.03341,-0.248264 0,-0.362838 0.0049,-0.412972 0.0049,-0.463097 0,-0.243494 -0.169488,-0.341364 -0.432077,-0.341364 -0.183803,0 -0.381932,0.07644 -0.381932,0.219612 0,0.06925 0.05487,0.107427 0.114575,0.107427 0.02865,0 0.0573,-0.0068 0.08119,-0.02389 0,-0.0068 -0.0019,-0.01671 -0.0019,-0.02389 0,-0.08595 0.07158,-0.169488 0.183813,-0.169488 0.19335,0 0.22439,0.157552 0.22439,0.346133 0,0.04536 -0.0019,0.09547 -0.0049,0.143226 -0.05973,-0.01428 -0.119353,-0.02389 -0.179034,-0.02389 -0.257811,0 -0.482192,0.126511 -0.482192,0.35806 0,0.152782 0.102639,0.307944 0.327029,0.307944 0.126521,0 0.296009,-0.08828 0.341355,-0.233937 0,0.03584 0.02146,0.233937 0.181424,0.233937 0.06925,0 0.176645,-0.03108 0.222001,-0.05963 v -0.04293 c -0.0068,0 -0.119353,0.0049 -0.164709,-0.08595 z m -1.12478,-0.513232 c 0,0 0,-0.02865 0,-0.05487 0,-0.116973 -0.01913,-0.48459 -0.432066,-0.48459 -0.303167,0 -0.501295,0.288841 -0.501295,0.673172 0.0068,0.401036 0.236327,0.568134 0.489358,0.568134 0.22678,0 0.465487,-0.150393 0.465487,-0.334196 0,-0.02865 -0.0097,-0.0573 -0.0097,-0.0573 -0.08595,0.131289 -0.236326,0.210065 -0.372394,0.210065 -0.202898,0 -0.350902,-0.145615 -0.350902,-0.403425 0,-0.03341 0,-0.05963 -0.0019,-0.09547 l 0.575303,0.0068 c 0.05011,0 0.09314,-0.0019 0.138447,-0.02865 z m -0.465486,-0.405814 c 0.176645,0 0.255421,0.169487 0.255421,0.32226 l -0.510842,0.0097 c 0.04293,-0.186192 0.09787,-0.331807 0.255421,-0.331807 z m -1.45073,0.405814 c 0,0 0,-0.02865 0,-0.05487 0,-0.116973 -0.01913,-0.48459 -0.432077,-0.48459 -0.303156,0 -0.501295,0.288841 -0.501295,0.673172 0.0068,0.401036 0.236327,0.568134 0.489359,0.568134 0.22678,0 0.465496,-0.150393 0.465496,-0.334196 0,-0.02865 -0.0097,-0.0573 -0.0097,-0.0573 -0.08595,0.131289 -0.236317,0.210065 -0.372385,0.210065 -0.202908,0 -0.350912,-0.145615 -0.350912,-0.403425 0,-0.03341 0,-0.05963 -0.0019,-0.09547 l 0.575292,0.0068 c 0.05011,0 0.09314,-0.0019 0.138457,-0.02865 z m -0.465496,-0.405814 c 0.176645,0 0.255421,0.169487 0.255421,0.32226 l -0.510842,0.0097 c 0.04293,-0.186192 0.09788,-0.331807 0.255421,-0.331807 z m -0.603079,1.004979 c -0.105038,-0.0019 -0.183813,-0.03098 -0.19336,-0.231548 -0.0068,-0.150394 -0.01195,-0.408204 -0.01195,-0.685109 0,-0.307934 0.01913,-0.448771 0.01913,-0.596775 0,-0.145615 -0.02865,-0.217233 -0.150394,-0.217233 -0.114584,0 -0.195739,0.05963 -0.195739,0.05963 v 0.04293 c 0.06925,0.0097 0.112195,0.08119 0.112195,0.214843 0,0 0.0019,0.04778 0.0019,0.307935 -0.06206,-0.01913 -0.133678,-0.03341 -0.210065,-0.03341 -0.374774,0 -0.565745,0.350912 -0.565745,0.673172 0,0.408194 0.222001,0.568135 0.446392,0.568135 0.1289,0 0.250652,-0.06925 0.353291,-0.164719 0.01913,0.133678 0.116974,0.164719 0.181424,0.164719 0.08828,0 0.15994,-0.03584 0.212454,-0.05963 z m -0.620649,-0.05487 c -0.202907,0 -0.350911,-0.157551 -0.350911,-0.45117 0,-0.183804 0.05011,-0.501295 0.317492,-0.501295 0.08828,0 0.174256,0.01437 0.238706,0.03341 v 0.360454 c 0,0.06449 -0.0019,0.386711 -0.0019,0.446392 v 0.03584 c -0.05487,0.0406 -0.114575,0.07644 -0.202898,0.07644 z m -1.131607,-0.128939 c -0.02389,0.05011 -0.133678,0.114585 -0.253031,0.114585 -0.1313,0 -0.186203,-0.09547 -0.186203,-0.176646 0,-0.231548 0.444003,-0.236327 0.446392,-0.236327 0,0 -0.0068,0.248263 -0.0068,0.298388 z m 0.253032,0.09788 c -0.02146,-0.04536 -0.03341,-0.16233 -0.03341,-0.248264 0,-0.362838 0.0049,-0.412972 0.0049,-0.463097 0,-0.243494 -0.169488,-0.341364 -0.432067,-0.341364 -0.183813,0 -0.381942,0.07644 -0.381942,0.219612 0,0.06925 0.05487,0.107427 0.114585,0.107427 0.02865,0 0.0573,-0.0068 0.08119,-0.02389 0,-0.0068 -0.0019,-0.01671 -0.0019,-0.02389 0,-0.08595 0.07158,-0.169488 0.183813,-0.169488 0.19336,0 0.224391,0.157552 0.224391,0.346133 0,0.04536 -0.0019,0.09547 -0.0049,0.143226 -0.05963,-0.01428 -0.119354,-0.02389 -0.179035,-0.02389 -0.25781,0 -0.482191,0.126511 -0.482191,0.35806 0,0.152782 0.102638,0.307944 0.327029,0.307944 0.126521,0 0.296008,-0.08828 0.341364,-0.233937 0,0.03584 0.02146,0.233937 0.181414,0.233937 0.06925,0 0.176646,-0.03108 0.222002,-0.05963 v -0.04293 c -0.0068,0 -0.119353,0.0049 -0.164709,-0.08595 z m -1.187889,0.157541 c -0.04293,-0.202897 -0.01913,-0.825935 -0.02389,-0.926194 -0.0049,-0.145615 -0.119353,-0.284072 -0.286451,-0.284072 -0.224391,0 -0.365228,0.138457 -0.439235,0.250652 -0.02146,-0.133678 -0.131289,-0.250652 -0.284062,-0.250652 -0.233938,0 -0.38671,0.152773 -0.458328,0.272136 0.0068,-0.04536 0.01195,-0.06682 0.01195,-0.06682 0.0068,-0.109806 -0.0068,-0.200518 -0.121743,-0.200518 -0.09787,0 -0.169487,0.03341 -0.212454,0.05963 v 0.04303 c 0,0 0.126521,0.0097 0.121742,0.288841 l -0.0097,0.804451 v 0.0097 h 0.238716 c -0.0097,-0.04536 -0.01913,-0.107417 -0.01913,-0.179025 -0.0049,-0.253041 -0.0049,-0.582459 -0.0049,-0.680329 0.05254,-0.06206 0.16232,-0.16233 0.336576,-0.16233 0.152783,0.0019 0.19575,0.105037 0.193361,0.334197 l -0.0049,0.572913 c -0.0019,0.04293 0,0.08119 0.0049,0.114574 h 0.233937 c -0.0406,-0.181414 -0.02622,-0.740001 -0.02389,-0.885616 0.05487,-0.0573 0.159941,-0.136068 0.319872,-0.136068 0.152782,0.0019 0.195749,0.105037 0.19336,0.334197 l -0.0049,0.572913 c -0.0019,0.04293 0,0.08119 0.0049,0.114574 z M 51.381694,20.83411 c 0.169487,0 0.274515,0.171877 0.274515,0.412972 0,0.200518 -0.08119,0.322261 -0.217223,0.322261 -0.169487,0 -0.260199,-0.179035 -0.260199,-0.42252 0,-0.105027 0.02389,-0.312713 0.202907,-0.312713 z m -0.229169,0.940529 c -0.0049,-0.01671 -0.0068,-0.02622 -0.0068,-0.0406 0,-0.04536 0.02389,-0.08352 0.05487,-0.107417 0.06449,0.02389 0.133679,0.03584 0.202907,0.03584 0.243485,0 0.475034,-0.157551 0.475034,-0.48459 0,-0.112195 -0.04536,-0.229159 -0.119353,-0.286451 0,0 0.0049,-0.0019 0.0097,-0.0019 0.01913,0 0.0406,0.02622 0.107417,0.02622 0.07877,0 0.155171,-0.03098 0.155171,-0.109806 0,-0.01913 -0.0049,-0.0406 -0.01428,-0.06449 0,0 -0.01195,0.02865 -0.08353,0.02865 h -0.212455 l -0.04293,0.03108 c -0.04536,-0.04536 -0.155162,-0.06682 -0.22677,-0.06682 -0.296008,0 -0.498915,0.202907 -0.498915,0.477423 0,0.198138 0.09314,0.32226 0.200518,0.3891 -0.07401,0.03341 -0.167099,0.100259 -0.167099,0.212454 0,0.415361 0.77821,0.105037 0.77821,0.393878 0,0.143226 -0.171877,0.238706 -0.353301,0.238706 -0.152773,0 -0.293609,-0.05012 -0.293609,-0.171867 0,-0.02146 0.0049,-0.04293 0.01195,-0.06682 -0.02389,-0.03584 -0.06449,-0.0573 -0.09788,-0.0573 -0.09304,0 -0.1289,0.07877 -0.1289,0.128901 0,0.174266 0.241095,0.269746 0.496516,0.269746 0.276905,0 0.570524,-0.140836 0.570524,-0.396257 0,-0.448782 -0.761485,-0.19336 -0.816398,-0.377164 z m -0.539221,0.169478 c -0.04293,-0.202897 -0.01913,-0.825935 -0.02389,-0.926194 -0.0049,-0.145615 -0.119354,-0.284072 -0.286452,-0.284072 -0.233938,0 -0.38672,0.152773 -0.458328,0.272136 l 0.01195,-0.06682 c 0.0068,-0.109806 -0.0068,-0.200518 -0.121743,-0.200518 -0.09787,0 -0.169487,0.03341 -0.212454,0.05963 l 0.0019,0.04303 c 0,0 0.124122,0.0097 0.119354,0.288841 l -0.0097,0.804451 v 0.0097 h 0.238707 c -0.0097,-0.04536 -0.01913,-0.107417 -0.01913,-0.179025 -0.0049,-0.253041 -0.0049,-0.582459 -0.0049,-0.680329 0.05254,-0.06206 0.162329,-0.16233 0.336586,-0.16233 0.152773,0.0019 0.195749,0.105037 0.19336,0.334197 l -0.0049,0.572913 c -0.0019,0.04293 0,0.08119 0.0049,0.114574 z m -1.416272,0 c -0.0097,-0.04536 -0.01428,-0.109806 -0.01428,-0.179025 0,-0.541882 0.01428,-0.825945 0.01428,-0.825945 0.0068,-0.109806 -0.0049,-0.200518 -0.119353,-0.200518 -0.09787,0 -0.169488,0.03341 -0.212454,0.05963 v 0.04303 c 0,0 0.124131,0.0097 0.114584,0.288841 l -0.01913,0.804452 v 0.0097 z M 48.936833,20.41398 c 0,0.06682 0.0573,0.1289 0.12891,0.1289 0.06682,0 0.126511,-0.06206 0.126511,-0.1289 0,-0.06682 -0.05963,-0.124132 -0.126511,-0.124132 -0.07158,0 -0.12891,0.0573 -0.12891,0.124132 z m -0.393607,1.530137 c -0.04293,-0.202897 -0.01913,-0.825935 -0.02389,-0.926194 -0.0049,-0.145615 -0.119353,-0.284072 -0.286451,-0.284072 -0.233938,0 -0.386721,0.152773 -0.458329,0.272136 l 0.01195,-0.06682 c 0.0068,-0.109806 -0.0068,-0.200518 -0.121742,-0.200518 -0.09788,0 -0.169488,0.03341 -0.212454,0.05963 l 0.0019,0.04303 c 0,0 0.124132,0.0097 0.119363,0.288841 l -0.0097,0.804451 v 0.0097 h 0.238706 c -0.0097,-0.04536 -0.01913,-0.107417 -0.01913,-0.179025 -0.0049,-0.253041 -0.0049,-0.582459 -0.0049,-0.680329 0.05254,-0.06206 0.16233,-0.16233 0.336586,-0.16233 0.152773,0.0019 0.19574,0.105037 0.19336,0.334197 l -0.0049,0.572913 c -0.0019,0.04293 0,0.08119 0.0049,0.114574 z m -1.705112,0 c -0.02389,-0.08352 -0.02389,-0.422519 -0.02389,-0.506064 0,-0.16232 0.05487,-0.525167 0.243485,-0.525167 0.03584,0 0.08353,0.01437 0.109806,0.08119 0.01671,0.0049 0.03098,0.0049 0.04536,0.0049 0.08119,0 0.121742,-0.06449 0.121742,-0.121743 0,-0.07877 -0.0573,-0.143225 -0.164709,-0.143225 -0.219612,0 -0.362838,0.293619 -0.370005,0.310324 l 0.01195,-0.105028 c 0.0049,-0.02389 0.0068,-0.04536 0.0068,-0.06449 0,-0.07877 -0.01913,-0.136068 -0.114584,-0.136068 -0.09787,0 -0.169488,0.03341 -0.212455,0.05963 v 0.04303 c 0.01428,0 0.116964,0.0097 0.116964,0.288841 0,0.331807 -0.0097,0.670773 -0.0097,0.813999 z m -0.916763,-0.255421 c -0.02389,0.05011 -0.133679,0.114585 -0.253042,0.114585 -0.13129,0 -0.186193,-0.09547 -0.186193,-0.176646 0,-0.231548 0.444003,-0.236327 0.446392,-0.236327 0,0 -0.0068,0.248263 -0.0068,0.298388 z m 0.253031,0.09788 c -0.02146,-0.04536 -0.03341,-0.16233 -0.03341,-0.248264 0,-0.362838 0.0049,-0.412972 0.0049,-0.463097 0,-0.243494 -0.169488,-0.341364 -0.432077,-0.341364 -0.183803,0 -0.381932,0.07644 -0.381932,0.219612 0,0.06925 0.05487,0.107427 0.114575,0.107427 0.02865,0 0.0573,-0.0068 0.08119,-0.02389 0,-0.0068 -0.0019,-0.01671 -0.0019,-0.02389 0,-0.08595 0.07158,-0.169488 0.183814,-0.169488 0.19335,0 0.22439,0.157552 0.22439,0.346133 0,0.04536 -0.0019,0.09547 -0.0049,0.143226 -0.05973,-0.01428 -0.119353,-0.02389 -0.179035,-0.02389 -0.25781,0 -0.4822,0.126511 -0.4822,0.35806 0,0.152782 0.102648,0.307944 0.327038,0.307944 0.126521,0 0.295999,-0.08828 0.341355,-0.233937 0,0.03584 0.02146,0.233937 0.181424,0.233937 0.06925,0 0.176645,-0.03108 0.222001,-0.05963 v -0.04293 c -0.0068,0 -0.119353,0.0049 -0.164709,-0.08595 z m -1.124779,-0.513232 c 0,0 0,-0.02865 0,-0.05487 0,-0.116973 -0.01913,-0.48459 -0.432066,-0.48459 -0.303167,0 -0.501296,0.288841 -0.501296,0.673172 0.0068,0.401036 0.236327,0.568134 0.489359,0.568134 0.22677,0 0.465487,-0.150393 0.465487,-0.334196 0,-0.02865 -0.0097,-0.0573 -0.0097,-0.0573 -0.08595,0.131289 -0.236327,0.210065 -0.372394,0.210065 -0.202908,0 -0.350902,-0.145615 -0.350902,-0.403425 0,-0.03341 0,-0.05963 -0.0019,-0.09547 l 0.575293,0.0068 c 0.05011,0 0.09314,-0.0019 0.138457,-0.02865 z M 44.584117,20.86753 c 0.176645,0 0.255421,0.169487 0.255421,0.32226 l -0.510842,0.0097 c 0.04293,-0.186192 0.09787,-0.331807 0.255421,-0.331807 z m -0.658137,1.076587 c 0.05011,-0.05011 0.05973,-0.217223 0.02865,-0.2578 h -0.04536 c -0.01428,0.07158 -0.109807,0.126511 -0.250643,0.126511 h -0.274515 c -0.0068,-0.13129 -0.0068,-0.331808 -0.0068,-0.498906 0,-0.327039 0.01195,-0.677941 0.02389,-0.945298 -0.04536,-0.02146 -0.09314,-0.02865 -0.136068,-0.02865 -0.09071,0 -0.164709,0.03098 -0.164709,0.03098 l -0.01671,0.0406 c 0.02622,0.0406 0.06206,0.07401 0.06206,0.262588 0,1.107618 -0.0019,1.191172 -0.0049,1.269938 z"
     id="path4"
     inkscape:connector-curvature="0"
     style="fill:#ffb380;stroke-width:0.29838979" />
  <g
     transform="matrix(0.9884629,0,0,0.9884629,34.559576,0.78569665)"
     id="g14"
     style="stroke:#fcd198">
    <path
       d="m -14.884045,15.332796 -1.772187,0.966669 c -0.103996,0.0567 -0.197458,0.126408 -0.28442,0.202388 1.033235,0.871189 2.367026,1.396771 3.824312,1.396771 1.446528,0 2.771803,-0.517738 3.8021232,-1.377048 -0.095031,-0.08024 -0.19813,-0.152408 -0.3124356,-0.209336 l -1.8976996,-0.948738 c -0.245197,-0.122598 -0.40007,-0.373175 -0.40007,-0.647284 v -0.744557 c 0.05334,-0.06074 0.114305,-0.138736 0.179527,-0.230852 0.258645,-0.365331 0.454309,-0.767194 0.589907,-1.18878 0.243404,-0.07508 0.422707,-0.299885 0.422707,-0.567046 v -0.794762 c 0,-0.17482 -0.07777,-0.331038 -0.198578,-0.440413 V 9.6009232 c 0,0 0.236008,-1.7878765 -2.185257,-1.7878765 -2.421265,0 -2.185257,1.7878765 -2.185257,1.7878765 v 1.1488848 c -0.12103,0.109375 -0.198578,0.265593 -0.198578,0.440413 v 0.794762 c 0,0.209336 0.110047,0.39357 0.274782,0.500031 0.198578,0.864466 0.718557,1.486647 0.718557,1.486647 v 0.726178 c -2.24e-4,0.264472 -0.145011,0.5081 -0.377433,0.634957 z m -2.404778,-5.865925 0.124881,0.029269 v 1.139532 c -0.136588,0.08195 -0.23415,0.224396 -0.23415,0.396105 0,0.163905 0.08976,0.300493 0.216589,0.384398 l -0.304396,1.215632 c -0.03317,0.134638 0.04098,0.273175 0.148296,0.273175 h 0.815625 c 0.107319,0 0.181467,-0.138537 0.148295,-0.273175 l -0.304396,-1.215632 c 0.126832,-0.08391 0.21659,-0.220493 0.21659,-0.384398 0,-0.171709 -0.09756,-0.314152 -0.234151,-0.396105 V 9.6093115 c 0,0 5.620808,0.4109645 7.6157517,-0.1424405 0.074867,-0.020767 0,-0.6146467 0,-0.6146467 L -12.79508,7.1295062 c -0.253663,-0.060489 -0.520985,-0.060489 -0.774648,0 l -3.719095,1.7207665 c -0.353176,0.085857 -0.353176,0.5307418 0,0.6165983 z"
       id="path10"
       inkscape:connector-curvature="0"
       style="fill:#fcd198;stroke-width:0.22412901" />
    <path
       d="M 26.953,1.004 C 12.32,0.754 0.254,12.414 0.004,27.047 -0.138,35.344 3.56,42.801 9.448,47.76 c 0.385,-0.336 0.798,-0.644 1.257,-0.894 l 7.907,-4.313 c 1.037,-0.566 1.683,-1.653 1.683,-2.835 v -3.24 c 0,0 -2.321,-2.776 -3.206,-6.633 -0.734,-0.475 -1.226,-1.296 -1.226,-2.231 v -3.546 c 0,-0.78 0.347,-1.477 0.886,-1.965 v -5.126 c 0,0 -1.053,-7.977 9.75,-7.977 10.803,0 9.75,7.977 9.75,7.977 v 5.126 c 0.54,0.488 0.886,1.185 0.886,1.965 v 3.546 c 0,1.192 -0.8,2.195 -1.886,2.53 -0.605,1.881 -1.478,3.674 -2.632,5.304 -0.291,0.411 -0.563,0.759 -0.801,1.03 V 39.8 c 0,1.223 0.691,2.342 1.785,2.888 l 8.467,4.233 c 0.508,0.254 0.967,0.575 1.39,0.932 5.71,-4.762 9.399,-11.882 9.536,-19.9 C 53.246,13.32 41.587,1.254 26.953,1.004 Z"
       transform="matrix(0.22412893,0,0,0.22412893,-19.055757,5.795662)"
       id="path12"
       inkscape:connector-curvature="0"
       style="fill:none" />
  </g>
  <g
     aria-label="Elimu Nasi"
     style="font-style:normal;font-weight:normal;font-size:12.70000076px;line-height:1.25;font-family:sans-serif;letter-spacing:0px;word-spacing:0px;fill:#fcd198;fill-opacity:1;stroke:none;stroke-width:0.26458335"
     id="text862">
    <path
       d="m 34.315873,11.61006 q 0.235645,-0.192236 0.458887,-0.47749 0.223242,-0.285254 0.396875,-0.601514 0.173633,-0.31626 0.279053,-0.6449217 0.10542,-0.3286622 0.10542,-0.6139161 0,-0.2294434 -0.111621,-0.3844727 -0.10542,-0.1612305 -0.390674,-0.1612305 -0.241846,0 -0.533301,0.1116211 -0.291455,0.1116211 -0.589111,0.3100587 -0.297657,0.1922363 -0.582911,0.4650879 -0.279052,0.2666504 -0.496093,0.5829103 -0.217041,0.31626 -0.353467,0.663525 -0.130225,0.347266 -0.130225,0.700733 0,0.303857 0.07441,0.527099 0.07441,0.217041 0.217041,0.390674 0.142627,0.167432 0.341065,0.310059 0.204638,0.142627 0.465088,0.297656 -0.781348,0.328662 -1.438672,0.812354 -0.651123,0.47749 -1.122412,1.035595 -0.47129,0.558106 -0.73794,1.153419 -0.260449,0.589111 -0.260449,1.134814 0,0.192236 0.09302,0.341064 0.09302,0.142627 0.291455,0.142627 0.26045,0 0.582911,-0.142627 0.322461,-0.142626 0.669726,-0.37207 0.347266,-0.229443 0.694532,-0.514697 0.353466,-0.285254 0.657324,-0.570508 0.310058,-0.291455 0.551904,-0.551904 0.241846,-0.26045 0.384473,-0.440284 0.37207,0.297657 0.644922,0.533301 0.272851,0.229444 0.508496,0.42168 -0.10542,0.142627 -0.353467,0.396875 -0.241846,0.254248 -0.58291,0.545703 -0.334863,0.291455 -0.73794,0.595313 -0.396875,0.297656 -0.812353,0.539502 -0.409278,0.241845 -0.812354,0.396875 Q 31.2835,18.698 30.948637,18.698 q -0.291455,0 -0.58291,-0.09922 -0.285254,-0.09922 -0.545704,-0.26665 -0.260449,-0.161231 -0.483691,-0.378272 -0.217041,-0.21084 -0.378272,-0.440283 -0.167431,-0.229443 -0.26665,-0.458887 -0.09922,-0.229443 -0.10542,-0.427881 V 16.47798 q 0,-0.651123 0.229443,-1.227832 0.229444,-0.576709 0.626319,-1.0604 0.403076,-0.489893 0.936377,-0.880567 0.539502,-0.396875 1.153418,-0.68833 -0.111621,-0.111621 -0.223242,-0.241846 -0.10542,-0.130224 -0.192237,-0.291455 -0.08061,-0.167431 -0.130224,-0.37207 -0.04961,-0.204639 -0.04961,-0.458887 0,-0.434082 0.15503,-0.84956 0.155029,-0.4154788 0.415478,-0.781348 0.260449,-0.3658691 0.607715,-0.6697266 0.353467,-0.3038574 0.744141,-0.5208985 0.390674,-0.2232422 0.799951,-0.3472656 0.409277,-0.1240234 0.79375,-0.1240234 0.638721,0 0.892969,0.1302246 0.21084,0.1116211 0.452685,0.3224609 0.248047,0.2108399 0.458887,0.4650879 0.21084,0.2480469 0.353467,0.5084962 0.142627,0.254248 0.142627,0.4588867 0,0.3534668 -0.117822,0.7379398 -0.117823,0.384472 -0.310059,0.750342 -0.192236,0.359668 -0.440283,0.682129 -0.248047,0.316259 -0.502295,0.5333 z"
       style="font-style:normal;font-variant:normal;font-weight:normal;font-stretch:normal;font-family:Yesteryear;-inkscape-font-specification:Yesteryear;fill:#fcd198;fill-opacity:1;stroke-width:0.26458335"
       id="path882" />
    <path
       d="m 37.106401,17.209719 q 0.09922,0 0.26665,-0.08682 0.173633,-0.08682 0.378272,-0.217041 0.204638,-0.136426 0.42788,-0.297656 0.223243,-0.161231 0.415479,-0.31626 0.198437,-0.155029 0.353467,-0.285254 0.155029,-0.130224 0.229443,-0.192236 0.05581,0.05581 0.130225,0.142627 0.08062,0.08682 0.148828,0.16123 -0.136426,0.136426 -0.341065,0.334864 -0.204638,0.192236 -0.446484,0.396875 -0.235644,0.204638 -0.496094,0.409277 -0.254248,0.204639 -0.502295,0.365869 -0.241845,0.161231 -0.452685,0.260449 -0.21084,0.09922 -0.353467,0.09922 -0.192236,0 -0.409277,-0.136426 -0.21084,-0.136425 -0.396875,-0.316259 -0.186036,-0.186036 -0.31626,-0.372071 -0.130225,-0.186035 -0.148828,-0.279052 -0.0124,-0.03721 -0.0124,-0.08682 0,-0.05581 0,-0.117822 0,-0.310059 0.08062,-0.781348 0.07441,-0.47749 0.204638,-1.00459 0.130225,-0.533301 0.297656,-1.054199 0.173633,-0.5271 0.359668,-0.930176 0.378272,-0.824756 0.775147,-1.463477 0.403076,-0.63872 0.787549,-1.110009 0.384473,-0.4774906 0.737939,-0.7999516 0.353467,-0.3224609 0.63252,-0.5208984 0.285254,-0.1984375 0.47749,-0.285254 0.198438,-0.086816 0.272852,-0.086816 0.117822,0.043408 0.235644,0.1302246 0.124024,0.080615 0.229444,0.1736329 0.10542,0.093018 0.186035,0.1860351 0.08061,0.086816 0.117822,0.1302247 0.04961,0.049609 0.06201,0.099219 0.0186,0.043408 0.0186,0.1178223 0,0.1488281 -0.07441,0.4092774 -0.07441,0.2604487 -0.279052,0.6635257 -0.204639,0.396875 -0.570508,0.95498 -0.359668,0.558106 -0.942578,1.302246 -0.272852,0.347266 -0.576709,0.706934 -0.26045,0.310059 -0.601514,0.675928 -0.341065,0.365869 -0.700733,0.700732 -0.179834,0.682129 -0.254248,1.203028 -0.06821,0.520898 -0.06821,0.812353 0,0.192237 0.03101,0.248047 0.03101,0.05581 0.08682,0.05581 z m 0.992187,-4.54546 q -0.10542,0.235645 -0.198437,0.458887 -0.08682,0.223242 -0.167432,0.440283 0.192236,-0.217041 0.347266,-0.415478 0.16123,-0.198438 0.272851,-0.341065 0.130225,-0.167431 0.235645,-0.316259 0.434082,-0.607715 0.750342,-1.116211 0.316259,-0.508497 0.520898,-0.892969 0.204639,-0.390674 0.297656,-0.6449221 0.09922,-0.2604493 0.09922,-0.3720704 0,-0.031006 -0.0062,-0.043408 0,-0.018604 -0.03101,-0.018604 -0.05581,0 -0.254248,0.1860352 -0.198437,0.179834 -0.489893,0.576709 -0.285253,0.396875 -0.644921,1.016992 -0.353467,0.613916 -0.731739,1.48208 z"
       style="font-style:normal;font-variant:normal;font-weight:normal;font-stretch:normal;font-family:Yesteryear;-inkscape-font-specification:Yesteryear;fill:#fcd198;fill-opacity:1;stroke-width:0.26458335"
       id="path884" />
    <path
       d="m 39.574467,17.984865 q -0.09302,0 -0.235645,-0.06821 -0.142627,-0.06201 -0.272851,-0.16123 -0.130225,-0.09302 -0.223242,-0.21084 -0.09302,-0.117822 -0.09302,-0.229443 0.06201,-0.272852 0.167432,-0.626319 0.10542,-0.353467 0.229443,-0.719336 0.117822,-0.365869 0.254248,-0.713135 0.130225,-0.353466 0.235645,-0.626318 0.111621,-0.272852 0.192236,-0.440283 0.08061,-0.167432 0.10542,-0.167432 0.03721,0 0.186035,0.08061 0.148828,0.08062 0.310059,0.198438 0.167431,0.111621 0.297656,0.241846 0.130225,0.124023 0.130225,0.217041 0,0.0186 -0.0062,0.04961 -0.0062,0.0248 -0.0186,0.06821 -0.04961,0.155029 -0.130225,0.365869 -0.07441,0.21084 -0.16123,0.440283 -0.08682,0.223243 -0.173633,0.452686 -0.08682,0.223242 -0.155029,0.42168 -0.06821,0.198437 -0.111621,0.347265 -0.04341,0.148828 -0.04341,0.217041 0,0.03721 0.03721,0.03721 0.06821,0 0.204639,-0.08061 0.136426,-0.08062 0.310059,-0.21084 0.179834,-0.130224 0.37207,-0.285254 0.192236,-0.155029 0.365869,-0.303857 0.179834,-0.155029 0.322461,-0.279053 0.142627,-0.124023 0.217041,-0.186035 0.05581,0.05581 0.130225,0.142627 0.08061,0.08682 0.148828,0.16123 -0.136426,0.136426 -0.341065,0.334864 -0.204638,0.192236 -0.446484,0.396875 -0.235645,0.204638 -0.496094,0.409277 -0.254248,0.204639 -0.496094,0.365869 -0.241845,0.161231 -0.452685,0.260449 -0.21084,0.09922 -0.359668,0.09922 z m 2.455664,-5.853906 q -0.0062,0.0248 -0.04961,0.124023 -0.03721,0.09302 -0.09302,0.223242 -0.05581,0.124024 -0.130224,0.266651 -0.06821,0.136425 -0.136426,0.254248 -0.06821,0.117822 -0.130225,0.198437 -0.06201,0.07441 -0.09922,0.07441 -0.111621,-0.0062 -0.272851,-0.06821 -0.15503,-0.06201 -0.303858,-0.136425 -0.142627,-0.08062 -0.248047,-0.15503 -0.09922,-0.07441 -0.09922,-0.10542 0,-0.130224 0.07441,-0.334863 0.07441,-0.21084 0.173633,-0.403076 0.09922,-0.198438 0.198437,-0.341065 0.10542,-0.142627 0.161231,-0.142627 0.111621,0 0.272851,0.07442 0.161231,0.06821 0.310059,0.16123 0.155029,0.09302 0.260449,0.186035 0.111621,0.08682 0.111621,0.124024 z"
       style="font-style:normal;font-variant:normal;font-weight:normal;font-stretch:normal;font-family:Yesteryear;-inkscape-font-specification:Yesteryear;fill:#fcd198;fill-opacity:1;stroke-width:0.26458335"
       id="path886" />
    <path
       d="m 43.499809,14.648635 q -0.07441,0.192236 -0.148829,0.396875 -0.07441,0.204638 -0.142627,0.415478 0.390674,-0.465088 0.644922,-0.744141 0.26045,-0.279052 0.427881,-0.434082 0.173633,-0.155029 0.285254,-0.217041 0.111621,-0.06201 0.204639,-0.09302 0.05581,0 0.186035,0.06201 0.136426,0.06201 0.285254,0.15503 0.155029,0.08682 0.291455,0.186035 0.136426,0.09302 0.192236,0.155029 0.04961,0.04961 0.0124,0.142627 -0.07441,0.198438 -0.148828,0.403076 -0.06821,0.198438 -0.136426,0.409278 0.415478,-0.47749 0.694531,-0.762744 0.279053,-0.291455 0.452686,-0.446485 0.179834,-0.155029 0.279052,-0.204638 0.09922,-0.04961 0.15503,-0.04961 0.08061,0 0.241845,0.08061 0.161231,0.08062 0.322461,0.198438 0.167432,0.117822 0.285254,0.241846 0.124024,0.124023 0.124024,0.217041 0,0.0186 -0.0062,0.04961 -0.0062,0.0248 -0.0186,0.06821 -0.04961,0.155029 -0.130224,0.365869 -0.07442,0.21084 -0.161231,0.440283 -0.08682,0.223243 -0.173633,0.452686 -0.08682,0.223242 -0.155029,0.42168 -0.06821,0.198437 -0.111621,0.347265 -0.04341,0.148828 -0.04341,0.217041 0,0.03721 0.03721,0.03721 0.06821,0 0.204638,-0.08061 0.136426,-0.08062 0.310059,-0.21084 0.179834,-0.130224 0.37207,-0.285254 0.192237,-0.155029 0.365869,-0.303857 0.179834,-0.155029 0.322461,-0.279053 0.142627,-0.124023 0.217041,-0.186035 0.05581,0.05581 0.130225,0.142627 0.08062,0.08682 0.148828,0.16123 -0.136426,0.136426 -0.341064,0.334864 -0.204639,0.192236 -0.446485,0.396875 -0.235644,0.204638 -0.496094,0.409277 -0.254248,0.204639 -0.496093,0.365869 -0.241846,0.161231 -0.452686,0.260449 -0.21084,0.09922 -0.359668,0.09922 -0.09302,0 -0.235644,-0.06821 -0.142627,-0.06201 -0.272852,-0.16123 -0.130225,-0.09302 -0.223242,-0.21084 -0.09302,-0.117822 -0.09302,-0.229443 0.05581,-0.254248 0.148828,-0.576709 0.09302,-0.322461 0.204639,-0.657325 0.111621,-0.341064 0.229443,-0.669726 0.124024,-0.328662 0.235645,-0.607715 -0.124023,0.148828 -0.328662,0.359668 -0.204639,0.21084 -0.465088,0.558105 -0.260449,0.341065 -0.558106,0.849561 -0.297656,0.508496 -0.595312,1.240234 -0.03721,0.124024 -0.179834,0.124024 -0.07441,0 -0.186035,-0.03101 -0.10542,-0.02481 -0.229444,-0.08682 -0.117822,-0.05581 -0.248047,-0.142627 -0.124023,-0.08682 -0.235644,-0.21084 0,-0.04341 0.04341,-0.260449 0.04961,-0.223243 0.136426,-0.564307 0.09302,-0.341065 0.217041,-0.762744 0.124023,-0.42168 0.279053,-0.868164 -0.148828,0.16123 -0.372071,0.415478 -0.223242,0.248047 -0.47749,0.607715 -0.254248,0.353467 -0.520898,0.824756 -0.266651,0.471289 -0.502295,1.066601 -0.03721,0.130225 -0.173633,0.130225 -0.10542,0 -0.235645,-0.06201 -0.136425,-0.05581 -0.272851,-0.155029 -0.142627,-0.09302 -0.279053,-0.21084 -0.142627,-0.117822 -0.254248,-0.235644 0,-0.03721 0.03721,-0.21084 0.03101,-0.173633 0.09302,-0.434082 0.06201,-0.266651 0.155029,-0.601514 0.08682,-0.341064 0.204639,-0.713135 0.117822,-0.37207 0.260449,-0.756543 0.142627,-0.390674 0.303857,-0.750342 0.260449,0.124024 0.576709,0.303858 0.322461,0.179834 0.589112,0.42168 z"
       style="font-style:normal;font-variant:normal;font-weight:normal;font-stretch:normal;font-family:Yesteryear;-inkscape-font-specification:Yesteryear;fill:#fcd198;fill-opacity:1;stroke-width:0.26458335"
       id="path888" />
    <path
       d="m 52.255863,17.098098 q 0,0.03721 0.03721,0.03721 0.06821,0 0.204639,-0.08062 0.142627,-0.08061 0.322461,-0.204638 0.179834,-0.124024 0.378272,-0.279053 0.198437,-0.155029 0.378271,-0.297656 0.179834,-0.148828 0.322461,-0.272852 0.148828,-0.124023 0.223242,-0.186035 0.05581,0.05581 0.130225,0.142627 0.08062,0.08682 0.148828,0.16123 -0.136426,0.136426 -0.347266,0.328662 -0.204638,0.192237 -0.452685,0.403077 -0.241846,0.204638 -0.508496,0.409277 -0.26045,0.198438 -0.508497,0.359668 -0.248046,0.155029 -0.465087,0.254248 -0.217041,0.09922 -0.359668,0.09922 -0.10542,0 -0.235645,-0.06821 -0.130225,-0.06201 -0.248047,-0.167432 -0.111621,-0.09922 -0.192236,-0.223242 -0.07441,-0.124023 -0.07441,-0.235644 0,-0.09922 0.07441,-0.378272 0.07441,-0.279053 0.179834,-0.651123 -0.279053,0.378271 -0.545703,0.669727 -0.266651,0.285254 -0.489893,0.489892 -0.223242,0.204639 -0.390674,0.328662 -0.167431,0.130225 -0.248047,0.186035 -0.04961,0.03101 -0.117822,0.04341 -0.06821,0.0186 -0.124023,0.0186 -0.117823,0 -0.26045,-0.07441 -0.142627,-0.06821 -0.260449,-0.173633 -0.124023,-0.10542 -0.204639,-0.235644 -0.08682,-0.130225 -0.08682,-0.248047 0,-0.136426 0.09302,-0.452686 0.08682,-0.316259 0.241845,-0.756543 0.148828,-0.440283 0.353467,-0.985986 0.204639,-0.545703 0.440283,-1.147217 0.0124,-0.03101 0.0186,-0.02481 0.0124,0 0.03721,0 0.117822,0.0186 0.322461,0.09922 0.204639,0.07441 0.396875,0.167432 0.198437,0.09302 0.341064,0.179834 0.142627,0.08061 0.142627,0.111621 -0.0186,0.04341 -0.09922,0.204639 -0.07441,0.16123 -0.179834,0.390673 -0.09922,0.223243 -0.217041,0.489893 -0.111622,0.260449 -0.21084,0.502295 -0.09302,0.241846 -0.15503,0.440283 -0.06201,0.192237 -0.06201,0.285254 0,0.02481 0.0248,0.02481 0.04961,0 0.217041,-0.130225 0.167432,-0.136426 0.409278,-0.42168 0.248047,-0.285253 0.558105,-0.731738 0.310059,-0.452685 0.644922,-1.085205 l 0.173633,-0.489893 q 0.0186,-0.04961 0.08062,-0.04961 0.04341,0 0.186035,0.08682 0.148829,0.08062 0.310059,0.192237 0.167432,0.10542 0.297656,0.217041 0.130225,0.10542 0.142627,0.148828 0,0.0186 -0.0062,0.06821 -0.0062,0.04341 -0.0186,0.07441 -0.06201,0.167432 -0.142627,0.396875 -0.08062,0.223242 -0.167432,0.471289 -0.08061,0.241846 -0.161231,0.489893 -0.08061,0.248046 -0.148828,0.465088 -0.06201,0.210839 -0.10542,0.378271 -0.03721,0.161231 -0.03721,0.235645 z"
       style="font-style:normal;font-variant:normal;font-weight:normal;font-stretch:normal;font-family:Yesteryear;-inkscape-font-specification:Yesteryear;fill:#fcd198;fill-opacity:1;stroke-width:0.26458335"
       id="path890" />
    <path
       d="m 65.526373,10.059767 q 0,0.322461 -0.05581,0.762744 -0.05581,0.434082 -0.192236,1.00459 -0.130225,0.564307 -0.359668,1.265039 -0.223243,0.700733 -0.558106,1.556495 -0.365869,0.930175 -0.750342,1.649511 -0.378271,0.713135 -0.713135,1.209229 -0.328662,0.496094 -0.576709,0.768945 -0.248047,0.272852 -0.347265,0.322461 -0.161231,0.07441 -0.353467,0.07441 -0.161231,0 -0.328662,-0.04961 -0.167432,-0.04961 -0.285254,-0.155029 -0.07441,-0.06201 -0.248047,-0.31626 -0.167432,-0.254248 -0.359668,-0.719336 -0.192236,-0.471289 -0.37207,-1.172022 -0.179834,-0.700732 -0.266651,-1.668115 -0.26665,0.347266 -0.58291,0.744141 -0.31626,0.396875 -0.644922,0.79375 -0.328662,0.390674 -0.657324,0.768945 -0.322461,0.37207 -0.607715,0.682129 -0.285254,0.310059 -0.508496,0.533301 -0.223242,0.229443 -0.347266,0.328662 -0.06821,-0.06201 -0.155029,-0.148828 -0.09302,-0.08682 -0.186035,-0.186035 -0.09922,-0.09302 -0.186035,-0.192237 -0.09302,-0.09922 -0.161231,-0.186035 0.905371,-0.79375 1.835547,-2.238623 0.930176,-1.444873 1.773535,-3.485059 0.10542,0.08682 0.198438,0.173633 0.09302,0.08682 0.179834,0.173633 0.02481,-0.868164 0.05581,-1.544092 0.03721,-0.675928 0.08062,-1.1906252 0.04341,-0.5208984 0.08062,-0.8929688 0.04341,-0.3720703 0.08062,-0.6325195 0.03721,-0.2604493 0.06201,-0.4216797 0.03101,-0.1674317 0.04961,-0.2666504 0.06201,0.05581 0.186035,0.1798339 0.124024,0.1178223 0.279053,0.2666505 0.155029,0.1488281 0.322461,0.3162597 0.173633,0.1612305 0.322461,0.3100587 0.155029,0.1488281 0.26665,0.2666504 0.117823,0.1178222 0.161231,0.1736328 -0.08061,0.3100586 -0.186035,0.7255371 -0.09922,0.4092775 -0.192237,0.9673825 -0.08682,0.551905 -0.148828,1.26504 -0.06201,0.713134 -0.06201,1.624707 0.0062,0.84956 0.06201,1.64331 0.02481,0.341065 0.05581,0.706934 0.03721,0.359668 0.08682,0.713135 0.05581,0.347265 0.130225,0.669726 0.07441,0.322461 0.167432,0.576709 0.775146,-1.277441 1.234033,-2.474267 0.465088,-1.196827 0.713135,-2.344043 0.248046,-1.147217 0.322461,-2.257227 0.07441,-1.1162112 0.07441,-2.226221 V 8.0815931 q 0.322461,0.2480469 0.613916,0.5519044 0.291455,0.3038574 0.514697,0.576709 0.260449,0.3162598 0.483691,0.6387207 z"
       style="font-style:normal;font-variant:normal;font-weight:normal;font-stretch:normal;font-family:Yesteryear;-inkscape-font-specification:Yesteryear;fill:#fcd198;fill-opacity:1;stroke-width:0.26458335"
       id="path892" />
    <path
       d="m 68.633162,17.098098 q 0,0.03721 0.03721,0.03721 0.05581,0 0.186035,-0.08062 0.130225,-0.08061 0.297657,-0.204638 0.167431,-0.124024 0.353466,-0.279053 0.192237,-0.155029 0.36587,-0.303858 0.173632,-0.148828 0.310058,-0.272851 0.142627,-0.124024 0.217041,-0.192236 0.05581,0.05581 0.136426,0.148828 0.08682,0.09302 0.155029,0.167431 -0.148828,0.136426 -0.359668,0.334864 -0.204638,0.192236 -0.446484,0.403076 -0.235645,0.21084 -0.489893,0.42168 -0.254248,0.204638 -0.496093,0.365869 -0.241846,0.16123 -0.458887,0.260449 -0.217041,0.10542 -0.378272,0.10542 -0.111621,0 -0.248047,-0.04341 -0.130224,-0.04341 -0.241845,-0.124024 -0.111621,-0.07441 -0.186036,-0.179834 -0.07441,-0.10542 -0.07441,-0.235644 0,-0.04961 -0.0062,-0.117823 0,-0.07441 0.0124,-0.186035 0.0124,-0.117822 0.04961,-0.279052 0.03721,-0.167432 0.111621,-0.409278 -0.204639,0.217041 -0.483691,0.452686 -0.272852,0.235644 -0.576709,0.446484 -0.303858,0.21084 -0.613916,0.378272 -0.303858,0.173632 -0.564307,0.260449 -0.03101,0.0124 -0.04961,0.0124 -0.0186,0 -0.03721,0 -0.06201,0 -0.16123,-0.06201 -0.10542,-0.06201 -0.204639,-0.167431 -0.09922,-0.09922 -0.167431,-0.229444 -0.07441,-0.130224 -0.07441,-0.260449 0,-0.03721 0.03721,-0.248047 0.03721,-0.21084 0.179834,-0.5333 0.136425,-0.328663 0.409277,-0.731739 0.272852,-0.409277 0.744141,-0.837158 0.241845,-0.217041 0.520898,-0.409277 0.235645,-0.161231 0.539502,-0.328663 0.303858,-0.167431 0.638721,-0.26665 0.0124,0 0.0186,-0.0062 0.0124,-0.0062 0.03101,0.0062 0.07441,0.0248 0.173633,0.08061 0.10542,0.04961 0.204639,0.111621 0.10542,0.05581 0.179834,0.117823 0.08062,0.05581 0.10542,0.09302 0.0062,0.0124 0,0.0186 l -0.0124,0.0124 q -0.279052,0.148828 -0.527099,0.334863 -0.248047,0.179834 -0.440284,0.341065 -0.223242,0.192236 -0.415478,0.378271 -0.452686,0.446485 -0.626318,0.775147 -0.173633,0.322461 -0.173633,0.465088 0,0.10542 0.08682,0.10542 0.08682,0 0.217041,-0.06821 0.136426,-0.07441 0.303858,-0.192236 0.167431,-0.124024 0.365869,-0.285254 0.204638,-0.167432 0.421679,-0.347266 0.192237,-0.155029 0.372071,-0.334863 0.155029,-0.148828 0.322461,-0.341065 0.167431,-0.192236 0.285254,-0.390674 0,-0.0062 0.0062,-0.0124 0.0062,-0.0062 0.0186,0 0.06821,0.04961 0.15503,0.167432 0.08682,0.111621 0.16123,0.248047 0.07441,0.136425 0.124024,0.26665 0.05581,0.124023 0.05581,0.192236 -0.142627,0.291455 -0.223242,0.533301 -0.07441,0.235645 -0.117822,0.415479 -0.03721,0.179834 -0.04961,0.310058 -0.0062,0.124024 -0.0062,0.192237 z"
       style="font-style:normal;font-variant:normal;font-weight:normal;font-stretch:normal;font-family:Yesteryear;-inkscape-font-specification:Yesteryear;fill:#fcd198;fill-opacity:1;stroke-width:0.26458335"
       id="path894" />
    <path
       d="m 70.282674,15.932277 q 0.142627,-0.136426 0.328663,-0.310058 0.179834,-0.173633 0.359668,-0.378272 0.186035,-0.204639 0.341064,-0.440283 0.16123,-0.235645 0.254248,-0.508496 0.02481,-0.142627 0.07441,-0.297657 0.05581,-0.16123 0.117822,-0.291455 0.06821,-0.130224 0.130225,-0.217041 0.06201,-0.08682 0.111621,-0.08682 0.07441,0.04341 0.223242,0.167432 0.148828,0.117822 0.297657,0.254248 0.148828,0.136425 0.260449,0.254248 0.117822,0.111621 0.117822,0.136425 -0.07441,0.285254 -0.07441,0.514698 0.0062,0.229443 0.03721,0.452685 0.03721,0.223243 0.07441,0.477491 0.04341,0.248047 0.04341,0.576709 0,0.198437 -0.06821,0.458886 -0.06201,0.254248 -0.223242,0.458887 0.31626,-0.186035 0.626319,-0.415478 0.310058,-0.235645 0.551904,-0.440284 0.285254,-0.241845 0.545703,-0.483691 l 0.279053,0.303857 q -0.204639,0.192237 -0.446485,0.409278 -0.235644,0.217041 -0.496093,0.427881 -0.254248,0.210839 -0.520899,0.403076 -0.26665,0.192236 -0.527099,0.341064 -0.26045,0.148828 -0.502295,0.235645 -0.241846,0.08682 -0.452686,0.08682 -0.179834,0 -0.396875,-0.08682 -0.217041,-0.08682 -0.409277,-0.21084 -0.192237,-0.124023 -0.334864,-0.260449 -0.142627,-0.136426 -0.167431,-0.229444 0,-0.0124 0.0248,-0.04961 0.02481,-0.04341 0.06201,-0.08682 0.03101,-0.04341 0.06821,-0.07441 0.03101,-0.03721 0.04961,-0.03721 0.03721,0 0.148829,0.05581 0.111621,0.05581 0.37207,0.05581 0.142627,0 0.241846,-0.07441 0.105419,-0.07441 0.173632,-0.198438 0.06821,-0.124023 0.09922,-0.285254 0.03101,-0.16123 0.03101,-0.341064 0,-0.26045 -0.02481,-0.502295 -0.0248,-0.248047 -0.05581,-0.477491 -0.10542,0.124024 -0.241846,0.26045 -0.136426,0.136425 -0.279053,0.272851 -0.136425,0.130225 -0.279052,0.260449 -0.136426,0.124024 -0.248047,0.223243 l -0.297657,-0.303858 z"
       style="font-style:normal;font-variant:normal;font-weight:normal;font-stretch:normal;font-family:Yesteryear;-inkscape-font-specification:Yesteryear;fill:#fcd198;fill-opacity:1;stroke-width:0.26458335"
       id="path896" />
    <path
       d="m 74.797126,17.984865 q -0.09302,0 -0.235645,-0.06821 -0.142626,-0.06201 -0.272851,-0.16123 -0.130225,-0.09302 -0.223242,-0.21084 -0.09302,-0.117822 -0.09302,-0.229443 0.06201,-0.272852 0.167432,-0.626319 0.10542,-0.353467 0.229443,-0.719336 0.117822,-0.365869 0.254248,-0.713135 0.130225,-0.353466 0.235645,-0.626318 0.111621,-0.272852 0.192236,-0.440283 0.08062,-0.167432 0.10542,-0.167432 0.03721,0 0.186035,0.08061 0.148828,0.08062 0.310059,0.198438 0.167431,0.111621 0.297656,0.241846 0.130225,0.124023 0.130225,0.217041 0,0.0186 -0.0062,0.04961 -0.0062,0.0248 -0.0186,0.06821 -0.04961,0.155029 -0.130225,0.365869 -0.07441,0.21084 -0.16123,0.440283 -0.08682,0.223243 -0.173633,0.452686 -0.08682,0.223242 -0.155029,0.42168 -0.06821,0.198437 -0.111621,0.347265 -0.04341,0.148828 -0.04341,0.217041 0,0.03721 0.03721,0.03721 0.06821,0 0.204639,-0.08061 0.136426,-0.08062 0.310059,-0.21084 0.179834,-0.130224 0.37207,-0.285254 0.192236,-0.155029 0.365869,-0.303857 0.179834,-0.155029 0.322461,-0.279053 0.142627,-0.124023 0.217041,-0.186035 0.05581,0.05581 0.130225,0.142627 0.08062,0.08682 0.148828,0.16123 -0.136426,0.136426 -0.341064,0.334864 -0.204639,0.192236 -0.446485,0.396875 -0.235644,0.204638 -0.496094,0.409277 -0.254248,0.204639 -0.496093,0.365869 -0.241846,0.161231 -0.452686,0.260449 -0.21084,0.09922 -0.359668,0.09922 z m 2.455664,-5.853906 q -0.0062,0.0248 -0.04961,0.124023 -0.03721,0.09302 -0.09302,0.223242 -0.05581,0.124024 -0.130224,0.266651 -0.06821,0.136425 -0.136426,0.254248 -0.06821,0.117822 -0.130225,0.198437 -0.06201,0.07441 -0.09922,0.07441 -0.111621,-0.0062 -0.272851,-0.06821 -0.155029,-0.06201 -0.303858,-0.136425 -0.142626,-0.08062 -0.248046,-0.15503 -0.09922,-0.07441 -0.09922,-0.10542 0,-0.130224 0.07441,-0.334863 0.07441,-0.21084 0.173633,-0.403076 0.09922,-0.198438 0.198437,-0.341065 0.10542,-0.142627 0.161231,-0.142627 0.111621,0 0.272851,0.07442 0.161231,0.06821 0.310059,0.16123 0.155029,0.09302 0.260449,0.186035 0.111621,0.08682 0.111621,0.124024 z"
       style="font-style:normal;font-variant:normal;font-weight:normal;font-stretch:normal;font-family:Yesteryear;-inkscape-font-specification:Yesteryear;fill:#fcd198;fill-opacity:1;stroke-width:0.26458335"
       id="path898" />
  </g>
</svg>
